<svg width="214" height="104" viewBox="0 0 214 104" fill="none" xmlns="http://www.w3.org/2000/svg">
<path d="M2.01818 2.27394C2.01818 3.24666 2.49071 3.67772 3.26058 3.67772C3.74233 3.67772 4.19872 3.5256 4.63898 3.23056V0.870166C4.63898 0.676545 4.80033 0.524414 5.00317 0.524414C5.20602 0.524414 5.35815 0.676545 5.35815 0.870166V6.19016C5.35815 6.38378 5.1968 6.54514 5.00317 6.54514C4.80955 6.54514 4.63898 6.38378 4.63898 6.19016V3.89899C4.21716 4.20325 3.69162 4.35538 3.07387 4.35538C2.03431 4.35538 1.29901 3.763 1.29901 2.46989V0.872474C1.29901 0.678852 1.46036 0.526721 1.6632 0.526721C1.86605 0.526721 2.01818 0.678852 2.01818 0.872474V2.27625V2.27394Z" fill="black"/>
<path d="M8.44478 6.22209C8.47935 6.637 7.73483 6.637 7.76941 6.22209V3.35461H6.69527C6.28037 3.38919 6.28037 2.64468 6.69527 2.67695H9.51892C9.93382 2.64237 9.93382 3.38688 9.51892 3.35461H8.44478V6.22209Z" fill="black"/>
<path d="M10.3211 4.58113C10.3211 4.00718 10.5078 3.53236 10.8881 3.15203C11.2592 2.78093 11.7502 2.59424 12.3518 2.59424C12.9534 2.59424 13.4421 2.78093 13.8224 3.15203C14.1935 3.53236 14.3802 4.00718 14.3802 4.58113C14.3802 5.15508 14.1935 5.62989 13.8224 6.001C13.4421 6.38133 12.9511 6.56808 12.3518 6.56808C11.7525 6.56808 11.2616 6.38133 10.8881 6.001C10.5078 5.62989 10.3211 5.15508 10.3211 4.58113ZM12.3518 5.9342C13.1217 5.9342 13.6634 5.38328 13.6634 4.58113C13.6634 3.77899 13.1217 3.22812 12.3518 3.22812C11.5819 3.22812 11.0403 3.77668 11.0403 4.58113C11.0403 5.38558 11.5819 5.9342 12.3518 5.9342Z" fill="black"/>
<path d="M18.4923 5.99424C18.1281 6.37457 17.6556 6.56819 17.0886 6.56819C15.8462 6.56819 15.0763 5.66231 15.0763 4.20093C15.0763 2.55285 15.5488 1.5294 16.4893 1.13064C16.7336 1.01999 17.0217 0.943916 17.3606 0.88629C17.6994 0.82636 17.9345 0.759542 18.0613 0.683476C18.1719 0.607411 18.2803 0.565918 18.3748 0.565918C18.4693 0.565918 18.543 0.607411 18.603 0.683476C18.6537 0.743406 18.679 0.810225 18.679 0.88629C18.679 0.987711 18.6375 1.07302 18.5615 1.13986C18.3679 1.31735 18.0636 1.4441 17.6487 1.52017C17.2338 1.59624 16.9226 1.68154 16.7175 1.77374C16.1343 2.03652 15.8208 2.65425 15.7609 3.60853C16.0052 3.07607 16.6322 2.72107 17.2753 2.72107C18.3586 2.72107 19.0432 3.46559 19.0432 4.61579C19.0432 5.15747 18.8565 5.61391 18.4923 5.99424ZM17.0701 5.93431C17.4343 5.93431 17.7386 5.80751 17.976 5.56318C18.2042 5.31885 18.3218 5.01459 18.3218 4.6504C18.3218 3.88052 17.8746 3.35726 17.1047 3.35726C16.4293 3.35726 15.9199 3.79751 15.7932 4.32997C15.7932 5.30269 16.3164 5.93662 17.0701 5.93662V5.93431Z" fill="black"/>
<path d="M20.6635 3.82022H21.2905C22.3739 3.82022 22.7957 4.36195 22.7957 5.13182C22.7957 5.9017 22.3231 6.48484 21.2144 6.48484H20.3086C20.1311 6.48484 19.9882 6.34195 19.9882 6.16446V2.96046C19.9536 2.54555 20.6981 2.54555 20.6635 2.96046V3.82253V3.82022ZM20.6635 5.85096H21.1545C21.8045 5.85096 22.0765 5.62276 22.0765 5.15714C22.0765 4.69153 21.7722 4.45641 21.1637 4.45641H20.6635V5.85096ZM24.1994 6.22209C24.234 6.63699 23.4895 6.63699 23.5218 6.22209V2.95815C23.4872 2.54325 24.2317 2.54325 24.1994 2.95815V6.22209Z" fill="black"/>
<path d="M30.4668 5.99424C30.1026 6.37457 29.63 6.56819 29.063 6.56819C27.8206 6.56819 27.0507 5.66231 27.0507 4.20093C27.0507 2.55285 27.5232 1.5294 28.4637 1.13064C28.708 1.01999 28.9962 0.943916 29.335 0.88629C29.6738 0.82636 29.9089 0.759542 30.0357 0.683476C30.1464 0.607411 30.2547 0.565918 30.3492 0.565918C30.4437 0.565918 30.5175 0.607411 30.5774 0.683476C30.6281 0.743406 30.6535 0.810225 30.6535 0.88629C30.6535 0.987711 30.612 1.07302 30.5359 1.13986C30.3423 1.31735 30.038 1.4441 29.6231 1.52017C29.2082 1.59624 28.897 1.68154 28.6919 1.77374C28.1087 2.03652 27.7952 2.65425 27.7353 3.60853C27.9796 3.07607 28.6066 2.72107 29.2497 2.72107C30.3331 2.72107 31.0177 3.46559 31.0177 4.61579C31.0177 5.15747 30.8309 5.61391 30.4668 5.99424ZM29.0446 5.93431C29.4088 5.93431 29.713 5.80751 29.9504 5.56318C30.1786 5.31885 30.2962 5.01459 30.2962 4.6504C30.2962 3.88052 29.849 3.35726 29.0791 3.35726C28.4038 3.35726 27.8944 3.79751 27.7676 4.32997C27.7676 5.30269 28.2908 5.93662 29.0446 5.93662V5.93431Z" fill="black"/>
<path d="M33.2905 5.09748C33.2997 5.12284 33.3758 5.31646 33.5187 5.67143C33.5694 5.48472 33.6293 5.2911 33.6962 5.08825L34.5006 2.89849C34.5606 2.721 34.6689 2.63574 34.8302 2.63574C35.0677 2.63574 35.2013 2.77172 35.2013 2.96534C35.2013 3.00683 35.1921 3.05753 35.1668 3.12668L33.8229 6.48511C33.5602 7.14434 33.3251 7.59384 33.113 7.82895C32.9009 8.05715 32.6474 8.1747 32.3685 8.1747C31.9213 8.1747 31.6908 8.03871 31.6908 7.77825C31.6908 7.60076 31.783 7.50852 31.9605 7.50852C32.0204 7.50852 32.1887 7.55005 32.2901 7.55005C32.6036 7.55005 32.841 7.2965 33.1015 6.68798L33.1868 6.48511L31.5894 3.15437C31.564 3.11288 31.5548 3.05296 31.5548 2.99303C31.5548 2.79941 31.6977 2.63805 31.9259 2.63805C32.0688 2.63805 32.1795 2.70488 32.2463 2.85009L33.2859 5.09979L33.2905 5.09748Z" fill="black"/>
<path d="M36.6904 6.2226C36.725 6.6375 35.9804 6.6375 36.0127 6.2226V2.95866C35.9781 2.54375 36.7226 2.54375 36.6904 2.95866V6.2226ZM37.0638 4.78427C36.9532 4.64136 36.9532 4.42005 37.0638 4.29327L38.3408 2.81347C38.5436 2.57605 38.7879 2.60138 38.9078 2.72815C39.0254 2.85493 39.0184 3.04858 38.9078 3.15922L37.6815 4.49614L39.0346 5.96671C39.1014 6.04278 39.136 6.12809 39.136 6.22029C39.136 6.38855 39.0092 6.54066 38.7972 6.54066C38.6704 6.54066 38.5597 6.48073 38.4675 6.3724L37.0638 4.78196V4.78427Z" fill="black"/>
<path d="M42.3492 4.50464C42.9416 4.61528 43.2366 4.91958 43.2366 5.41055C43.2366 6.14585 42.6535 6.51922 41.4871 6.51922C41.4272 6.51922 41.0722 6.51003 40.413 6.4939C40.2355 6.48468 40.0926 6.33255 40.0926 6.15507V3.00869C40.0926 2.8312 40.2355 2.67907 40.413 2.66985C41.0215 2.65372 41.3765 2.64453 41.471 2.64453C42.5613 2.64453 43.1122 2.97415 43.1122 3.62647C43.1122 4.07364 42.7987 4.43088 42.3515 4.50695L42.3492 4.50464ZM40.768 4.35253H41.6208C42.0864 4.35253 42.3907 4.12432 42.3907 3.76012C42.3907 3.39593 42.1026 3.1931 41.5194 3.1931C41.358 3.1931 41.1045 3.20234 40.7657 3.21848V4.35253H40.768ZM40.768 4.77667V5.94297C41.1736 5.9591 41.4364 5.96835 41.5471 5.96835C42.1971 5.96835 42.5198 5.76553 42.5198 5.35985C42.5198 4.95416 42.2063 4.77667 41.5816 4.77667H40.7703H40.768Z" fill="black"/>
<path d="M44.9445 3.82022H45.5691C46.6525 3.82022 47.0743 4.36195 47.0743 5.13182C47.0743 5.9017 46.6018 6.48484 45.4931 6.48484H44.5872C44.4097 6.48484 44.2668 6.34195 44.2668 6.16446V2.96046C44.2322 2.54555 44.9767 2.54555 44.9445 2.96046V3.82253V3.82022ZM44.9445 5.85096H45.4354C46.0855 5.85096 46.3574 5.62276 46.3574 5.15714C46.3574 4.69153 46.0532 4.45641 45.4447 4.45641H44.9468V5.85096H44.9445ZM48.4804 6.22209C48.5149 6.63699 47.7704 6.63699 47.8027 6.22209V2.95815C47.7681 2.54325 48.5126 2.54325 48.4804 2.95815V6.22209Z" fill="black"/>
<path d="M53.012 4.11774L53.9502 2.82465C54.0424 2.69788 54.1438 2.63793 54.2544 2.63793C54.4573 2.63793 54.5748 2.77394 54.5748 2.93298C54.5748 2.99983 54.5587 3.05972 54.5149 3.11965L53.4823 4.51419L54.5818 6.01015C54.6232 6.07008 54.6486 6.14618 54.6486 6.22225C54.6486 6.39973 54.5218 6.54262 54.3098 6.54262C54.1991 6.54262 54.0977 6.48267 54.0055 6.3559L52.9821 4.94295L51.9425 6.3559C51.8503 6.48267 51.7489 6.54262 51.629 6.54262C51.4354 6.54262 51.3248 6.40662 51.3248 6.24757C51.3248 6.1715 51.3501 6.10469 51.3916 6.04476L52.5003 4.5488L51.493 3.15426C51.4515 3.09433 51.4331 3.03668 51.4331 2.96061C51.4331 2.74164 51.7627 2.42819 52.0762 2.82465L53.0074 4.11774H53.012Z" fill="black"/>
<path d="M55.347 4.58113C55.347 4.00718 55.5337 3.53236 55.914 3.15203C56.2943 2.77171 56.7761 2.59424 57.3777 2.59424C57.9793 2.59424 58.468 2.78093 58.8483 3.15203C59.2194 3.53236 59.4061 4.00718 59.4061 4.58113C59.4061 5.15508 59.2194 5.62989 58.8483 6.001C58.468 6.38133 57.977 6.56808 57.3777 6.56808C56.7784 6.56808 56.2874 6.38133 55.914 6.001C55.5337 5.62989 55.347 5.15508 55.347 4.58113ZM57.3754 5.9342C58.1453 5.9342 58.687 5.38328 58.687 4.58113C58.687 3.77899 58.1453 3.22812 57.3754 3.22812C56.6055 3.22812 56.0638 3.77668 56.0638 4.58113C56.0638 5.38558 56.6055 5.9342 57.3754 5.9342Z" fill="black"/>
<path d="M61.0474 7.85425C61.082 8.26915 60.3374 8.26915 60.372 7.85425V2.95839C60.3374 2.54349 61.082 2.54349 61.0474 2.95839V3.12665C61.3171 2.81317 61.8265 2.59424 62.3405 2.59424C62.8545 2.59424 63.304 2.77168 63.6267 3.12665C63.9402 3.49085 64.1015 3.95647 64.1015 4.5212C64.1015 5.08593 63.9148 5.59536 63.5506 5.98491C63.1864 6.37446 62.7047 6.56808 62.1215 6.56808C61.6744 6.56808 61.3102 6.48277 61.0474 6.30528V7.85194V7.85425ZM61.0474 5.63916C61.3424 5.83278 61.6813 5.9342 62.0616 5.9342C62.866 5.9342 63.3801 5.36025 63.3801 4.54658C63.3801 3.73291 62.9145 3.22812 62.1446 3.22812C61.6974 3.22812 61.324 3.40555 61.0451 3.7513V5.63685L61.0474 5.63916Z" fill="black"/>
<path d="M64.8184 4.58113C64.8184 4.00718 65.0051 3.53236 65.3854 3.15203C65.7565 2.78093 66.2475 2.59424 66.8491 2.59424C67.4507 2.59424 67.9394 2.78093 68.3197 3.15203C68.6908 3.53236 68.8775 4.00718 68.8775 4.58113C68.8775 5.15508 68.6908 5.62989 68.3197 6.001C67.9394 6.38133 67.4484 6.56808 66.8491 6.56808C66.2498 6.56808 65.7588 6.38133 65.3854 6.001C65.0051 5.62989 64.8184 5.15508 64.8184 4.58113ZM66.8491 5.9342C67.619 5.9342 68.1606 5.38328 68.1606 4.58113C68.1606 3.77899 67.619 3.22812 66.8491 3.22812C66.0792 3.22812 65.5375 3.77668 65.5375 4.58113C65.5375 5.38558 66.0792 5.9342 66.8491 5.9342Z" fill="black"/>
<path d="M74.663 6.16216C74.663 6.33964 74.5201 6.48253 74.3426 6.48253H70.1659C69.9884 6.48253 69.8455 6.33964 69.8455 6.16216V2.95815C69.811 2.54325 70.5555 2.54325 70.5232 2.95815V5.85096H71.9177V2.95815C71.8832 2.54325 72.6277 2.54325 72.5954 2.95815V5.85096H73.99V2.95815C73.9554 2.54325 74.6999 2.54325 74.6676 2.95815V6.16216H74.663Z" fill="black"/>
<path d="M75.6268 4.58113C75.6268 4.00718 75.8135 3.53236 76.1938 3.15203C76.5741 2.77171 77.0559 2.59424 77.6575 2.59424C78.2591 2.59424 78.7478 2.78093 79.1281 3.15203C79.4992 3.53236 79.6859 4.00718 79.6859 4.58113C79.6859 5.15508 79.4992 5.62989 79.1281 6.001C78.7478 6.38133 78.2568 6.56808 77.6575 6.56808C77.0582 6.56808 76.5672 6.38133 76.1938 6.001C75.8135 5.62989 75.6268 5.15508 75.6268 4.58113ZM77.6552 5.9342C78.4251 5.9342 78.9667 5.38328 78.9667 4.58113C78.9667 3.77899 78.4251 3.22812 77.6552 3.22812C76.8853 3.22812 76.3436 3.77668 76.3436 4.58113C76.3436 5.38558 76.8853 5.9342 77.6552 5.9342Z" fill="black"/>
<path d="M84.3212 3.22812C83.9663 3.22812 83.662 3.35487 83.4085 3.60842C83.1457 3.87119 83.0189 4.19159 83.0189 4.58113C83.0189 4.97068 83.1549 5.31644 83.4154 5.56307C83.6781 5.8074 83.9985 5.9342 84.3881 5.9342C84.7016 5.9342 84.9713 5.84889 85.1995 5.6714C85.2917 5.59534 85.3769 5.56076 85.4622 5.56076C85.5383 5.56076 85.5982 5.58615 85.6558 5.64608C85.7135 5.70601 85.7481 5.77284 85.7481 5.85812C85.7481 5.95032 85.7135 6.02638 85.6558 6.07709C85.2917 6.4067 84.8514 6.56808 84.3374 6.56808C83.7289 6.56808 83.2379 6.38135 82.8668 6.01946C82.4865 5.65527 82.2997 5.18274 82.2997 4.58113C82.2997 4.02332 82.4865 3.54851 82.8506 3.16819C83.2148 2.78786 83.6781 2.59424 84.229 2.59424C84.7016 2.59424 85.1165 2.69561 85.4645 2.88923C85.5821 2.94916 85.642 3.05058 85.642 3.17736C85.642 3.23729 85.6259 3.28803 85.6005 3.32952C85.5406 3.43095 85.4484 3.48164 85.3216 3.48164C85.2617 3.48164 85.2041 3.47244 85.1603 3.44708C84.8814 3.30417 84.6025 3.22812 84.3236 3.22812H84.3212Z" fill="black"/>
<path d="M86.3334 4.58113C86.3334 4.00718 86.5201 3.53236 86.9004 3.15203C87.2807 2.77171 87.7625 2.59424 88.3641 2.59424C88.9657 2.59424 89.4544 2.78093 89.8347 3.15203C90.2058 3.53236 90.3925 4.00718 90.3925 4.58113C90.3925 5.15508 90.2058 5.62989 89.8347 6.001C89.4544 6.38133 88.9634 6.56808 88.3641 6.56808C87.7648 6.56808 87.2738 6.38133 86.9004 6.001C86.5201 5.62989 86.3334 5.15508 86.3334 4.58113ZM88.3618 5.9342C89.1317 5.9342 89.6733 5.38328 89.6733 4.58113C89.6733 3.77899 89.1317 3.22812 88.3618 3.22812C87.5919 3.22812 87.0502 3.77668 87.0502 4.58113C87.0502 5.38558 87.5919 5.9342 88.3618 5.9342Z" fill="black"/>
<path d="M94.8229 4.52351C94.8136 4.6595 94.6707 4.79318 94.5347 4.79318H91.8632C91.9231 5.50312 92.4372 5.9342 93.1909 5.9342C93.5459 5.9342 93.8593 5.85814 94.1221 5.70601C94.182 5.67143 94.2489 5.65525 94.3088 5.65525C94.3941 5.65525 94.4702 5.68988 94.537 5.76594C94.5716 5.80743 94.5877 5.85812 94.5877 5.91805C94.5877 6.02869 94.5532 6.10476 94.4863 6.14625C94.0899 6.42515 93.6404 6.56808 93.1425 6.56808C92.5247 6.56808 92.0338 6.39057 91.6627 6.02638C91.2916 5.66219 91.1049 5.18044 91.1049 4.58113C91.1049 3.98183 91.2823 3.53236 91.6304 3.15203C91.9761 2.78093 92.4579 2.59424 93.0687 2.59424C93.5666 2.59424 93.9907 2.75555 94.3296 3.07595C94.6684 3.40557 94.8367 3.82046 94.8367 4.33679C94.8367 4.42207 94.8367 4.47971 94.8275 4.52351H94.8229ZM94.129 4.24461C94.0945 3.61073 93.6819 3.23042 93.0295 3.23042C92.3772 3.23042 91.8955 3.64531 91.8194 4.24461H94.129Z" fill="black"/>
<path d="M95.9063 6.48541V7.09391C95.9063 7.27139 95.7634 7.41433 95.5928 7.41433C95.4222 7.41433 95.2724 7.27139 95.2724 7.09391V6.1719C95.2724 5.99441 95.4153 5.85153 95.5928 5.85153H95.7449C96.0146 5.51269 96.2612 4.67599 96.3281 3.68714L96.3696 3.0025C96.3788 2.82502 96.5309 2.68213 96.7084 2.68213H98.6608C98.8382 2.68213 98.9812 2.82502 98.9812 3.0025V5.85153H99.2946C99.4721 5.85153 99.615 5.99441 99.615 6.1719V7.09391C99.615 7.27139 99.4721 7.41433 99.3016 7.41433C99.1241 7.41433 98.9812 7.27139 98.9812 7.09391V6.48541H95.904H95.9063ZM98.3081 5.85153V3.3137H97.0219L96.9804 3.94758C96.9043 4.83501 96.6669 5.57953 96.4641 5.84922H98.3081V5.85153Z" fill="black"/>
<path d="M103.863 6.22223C103.898 6.63713 103.153 6.63713 103.188 6.22223V3.70973L101.132 6.23832C100.963 6.44116 100.802 6.5426 100.65 6.5426C100.456 6.5426 100.311 6.38126 100.311 6.20377V2.95598C100.276 2.54108 101.021 2.54108 100.986 2.95598V5.4754L103.042 2.94675C103.22 2.73469 103.381 2.6333 103.524 2.6333C103.718 2.6333 103.863 2.80157 103.863 2.97905V6.21761V6.22223Z" fill="black"/>
<path d="M108.549 6.22209C108.584 6.63699 107.839 6.63699 107.874 6.22209V4.87825H105.76V6.22209C105.795 6.63699 105.05 6.63699 105.085 6.22209V2.95815C105.05 2.54325 105.795 2.54325 105.76 2.95815V4.24437H107.874V2.95815C107.839 2.54325 108.584 2.54325 108.549 2.95815V6.22209Z" fill="black"/>
<path d="M110.393 5.04694C109.953 4.94552 109.573 4.53062 109.573 3.94745C109.573 3.21215 110.089 2.67969 111.271 2.67969H112.134C112.311 2.67969 112.454 2.82263 112.454 3.00012V6.22252C112.489 6.63743 111.744 6.63743 111.776 6.22252V5.21521H111.041L110.204 6.35618C110.112 6.48295 110.018 6.5429 109.909 6.5429C109.706 6.5429 109.57 6.41611 109.57 6.24785C109.57 6.17178 109.605 6.0957 109.663 6.0035L110.391 5.04694H110.393ZM111.781 4.58133V3.31357H111.163C110.564 3.31357 110.292 3.58327 110.292 3.9659C110.292 4.34854 110.638 4.58363 111.002 4.58363H111.781V4.58133Z" fill="black"/>
<path d="M116.905 6.22252C116.94 6.63743 116.195 6.63743 116.23 6.22252V3.35504H114.893L114.851 3.99815C114.741 5.7661 114.208 6.5429 113.574 6.5429C113.371 6.5429 113.235 6.42532 113.235 6.22939C113.235 6.06804 113.328 5.9597 113.505 5.88364C113.699 5.80757 113.851 5.62088 113.961 5.32584C114.072 5.0308 114.148 4.54678 114.19 3.86219L114.24 3.00012C114.25 2.82263 114.402 2.67969 114.579 2.67969H116.582C116.76 2.67969 116.903 2.82263 116.903 3.00012V6.22252H116.905Z" fill="black"/>
<path d="M121.674 6.22223C121.709 6.63713 120.964 6.63713 120.996 6.22223V3.70973L118.943 6.23832C118.774 6.44116 118.613 6.5426 118.461 6.5426C118.267 6.5426 118.122 6.38126 118.122 6.20377V2.95598C118.087 2.54108 118.832 2.54108 118.8 2.95598V5.4754L120.853 2.94675C121.031 2.73469 121.192 2.6333 121.335 2.6333C121.529 2.6333 121.674 2.80157 121.674 2.97905V6.21761V6.22223Z" fill="black"/>
<path d="M124.659 3.22812C124.304 3.22812 123.999 3.35487 123.746 3.60842C123.483 3.87119 123.356 4.19159 123.356 4.58113C123.356 4.97068 123.492 5.31644 123.753 5.56307C124.016 5.8074 124.336 5.9342 124.725 5.9342C125.039 5.9342 125.309 5.84889 125.537 5.6714C125.629 5.59534 125.714 5.56076 125.8 5.56076C125.876 5.56076 125.936 5.58615 125.993 5.64608C126.051 5.70601 126.085 5.77284 126.085 5.85812C126.085 5.95032 126.051 6.02638 125.993 6.07709C125.629 6.4067 125.189 6.56808 124.675 6.56808C124.066 6.56808 123.575 6.38135 123.204 6.01946C122.824 5.65527 122.637 5.18274 122.637 4.58113C122.637 4.02332 122.824 3.54851 123.188 3.16819C123.552 2.78786 124.018 2.59424 124.566 2.59424C125.041 2.59424 125.454 2.69561 125.802 2.88923C125.919 2.94916 125.979 3.05058 125.979 3.17736C125.979 3.23729 125.963 3.28803 125.938 3.32952C125.878 3.43095 125.786 3.48164 125.659 3.48164C125.599 3.48164 125.541 3.47244 125.498 3.44708C125.219 3.30417 124.94 3.22812 124.661 3.22812H124.659Z" fill="black"/>
<path d="M127.602 3.82036H128.296C129.38 3.82036 129.801 4.36208 129.801 5.13196C129.801 5.90183 129.32 6.48497 128.211 6.48497H127.247C127.07 6.48497 126.927 6.34208 126.927 6.1646V2.96059C126.892 2.54569 127.637 2.54569 127.605 2.96059V3.82267L127.602 3.82036ZM127.602 5.85109H128.16C128.778 5.85109 129.082 5.62289 129.082 5.15728C129.082 4.69167 128.778 4.45654 128.169 4.45654H127.602V5.85109Z" fill="black"/>
<path d="M133.287 3.76979V6.22236C133.321 6.63726 132.577 6.63726 132.611 6.22236V2.95842C132.611 2.78094 132.763 2.63805 132.941 2.63805C133.118 2.63805 133.211 2.72332 133.406 2.96765L134.693 4.56501L135.919 2.94919C136.071 2.73713 136.214 2.63574 136.35 2.63574C136.527 2.63574 136.68 2.77863 136.68 2.95611V6.22005C136.714 6.63496 135.97 6.63496 136.004 6.22005V3.76749L134.93 5.12979C134.794 5.30727 134.541 5.30722 134.407 5.13896L133.291 3.76979H133.287Z" fill="black"/>
<path d="M141.361 4.52351C141.352 4.6595 141.209 4.79318 141.073 4.79318H138.402C138.462 5.50312 138.976 5.9342 139.729 5.9342C140.084 5.9342 140.398 5.85814 140.661 5.70601C140.72 5.67143 140.787 5.65525 140.847 5.65525C140.933 5.65525 141.009 5.68988 141.075 5.76594C141.11 5.80743 141.126 5.85812 141.126 5.91805C141.126 6.02869 141.092 6.10476 141.025 6.14625C140.628 6.42515 140.179 6.56808 139.681 6.56808C139.063 6.56808 138.572 6.39057 138.201 6.02638C137.83 5.66219 137.643 5.18044 137.643 4.58113C137.643 3.98183 137.821 3.53236 138.169 3.15203C138.515 2.78093 138.996 2.59424 139.607 2.59424C140.105 2.59424 140.529 2.75555 140.868 3.07595C141.207 3.40557 141.375 3.82046 141.375 4.33679C141.375 4.42207 141.375 4.47971 141.366 4.52351H141.361ZM140.67 4.24461C140.635 3.61073 140.223 3.23042 139.57 3.23042C138.918 3.23042 138.436 3.64531 138.36 4.24461H140.67Z" fill="black"/>
<path d="M142.657 6.35797C142.571 6.48474 142.463 6.54469 142.336 6.54469C142.134 6.54469 142.016 6.39258 142.016 6.22431C142.016 6.14825 142.041 6.07215 142.083 6.01221L143.192 4.51626L142.177 3.16325C142.136 3.10332 142.11 3.03645 142.11 2.9696C142.11 2.79212 142.246 2.64 142.456 2.64C142.583 2.64 142.684 2.69995 142.77 2.82672L143.777 4.25582C143.888 4.39873 143.888 4.63615 143.777 4.77906L142.661 6.36027L142.657 6.35797ZM144.805 6.22201C144.84 6.63691 144.095 6.63691 144.13 6.22201V2.95807C144.095 2.54316 144.84 2.54316 144.805 2.95807V6.22201ZM145.16 4.77676C145.049 4.60849 145.049 4.42178 145.16 4.25351L146.174 2.82442C146.26 2.69764 146.361 2.6377 146.488 2.6377C146.7 2.6377 146.833 2.78058 146.833 2.95807C146.833 3.04335 146.808 3.11023 146.767 3.16094L145.743 4.51395L146.868 6.00299C146.919 6.06983 146.944 6.14594 146.944 6.22201C146.944 6.39949 146.817 6.54238 146.624 6.54238C146.488 6.54238 146.379 6.48244 146.294 6.35566L145.16 4.77445V4.77676Z" fill="black"/>
<path d="M147.951 6.48541V7.09391C147.951 7.27139 147.808 7.41433 147.638 7.41433C147.467 7.41433 147.317 7.27139 147.317 7.09391V6.1719C147.317 5.99441 147.46 5.85153 147.638 5.85153H147.79C148.06 5.51269 148.306 4.67599 148.373 3.68714L148.415 3.0025C148.424 2.82502 148.576 2.68213 148.753 2.68213H150.706C150.883 2.68213 151.026 2.82502 151.026 3.0025V5.85153H151.34C151.517 5.85153 151.66 5.99441 151.66 6.1719V7.09391C151.66 7.27139 151.517 7.41433 151.347 7.41433C151.169 7.41433 151.026 7.27139 151.026 7.09391V6.48541H147.949H147.951ZM150.351 5.85153V3.3137H149.065L149.023 3.94758C148.947 4.83501 148.71 5.57953 148.507 5.84922H150.351V5.85153Z" fill="black"/>
<path d="M153.684 5.09748C153.693 5.12284 153.769 5.31646 153.912 5.67143C153.963 5.48472 154.023 5.2911 154.089 5.08825L154.894 2.89849C154.954 2.721 155.062 2.63574 155.223 2.63574C155.461 2.63574 155.595 2.77172 155.595 2.96534C155.595 3.00683 155.585 3.05753 155.56 3.12668L154.216 6.48511C153.953 7.14434 153.718 7.59384 153.506 7.82895C153.294 8.05715 153.041 8.1747 152.762 8.1747C152.312 8.1747 152.084 8.03871 152.084 7.77825C152.084 7.60076 152.176 7.50852 152.354 7.50852C152.414 7.50852 152.582 7.55005 152.683 7.55005C152.997 7.55005 153.234 7.2965 153.495 6.68798L153.58 6.48511L151.983 3.15437C151.957 3.11288 151.948 3.05296 151.948 2.99303C151.948 2.79941 152.091 2.63805 152.319 2.63805C152.462 2.63805 152.573 2.70488 152.64 2.85009L153.679 5.09979L153.684 5.09748Z" fill="black"/>
<path d="M160.078 3.22812C159.723 3.22812 159.419 3.35487 159.165 3.60842C158.902 3.87119 158.775 4.19159 158.775 4.58113C158.775 4.97068 158.911 5.31644 159.172 5.56307C159.435 5.8074 159.755 5.9342 160.145 5.9342C160.458 5.9342 160.728 5.84889 160.956 5.6714C161.048 5.59534 161.133 5.56076 161.219 5.56076C161.295 5.56076 161.355 5.58615 161.412 5.64608C161.47 5.70601 161.505 5.77284 161.505 5.85812C161.505 5.95032 161.47 6.02638 161.412 6.07709C161.048 6.4067 160.608 6.56808 160.094 6.56808C159.485 6.56808 158.994 6.38135 158.623 6.01946C158.243 5.65527 158.056 5.18274 158.056 4.58113C158.056 4.02332 158.243 3.54851 158.607 3.16819C158.971 2.78786 159.435 2.59424 159.986 2.59424C160.458 2.59424 160.873 2.69561 161.221 2.88923C161.339 2.94916 161.399 3.05058 161.399 3.17736C161.399 3.23729 161.382 3.28803 161.357 3.32952C161.297 3.43095 161.205 3.48164 161.078 3.48164C161.018 3.48164 160.961 3.47244 160.917 3.44708C160.638 3.30417 160.359 3.22812 160.08 3.22812H160.078Z" fill="black"/>
<path d="M162.09 4.58113C162.09 4.00718 162.277 3.53236 162.657 3.15203C163.028 2.78093 163.519 2.59424 164.121 2.59424C164.722 2.59424 165.211 2.78093 165.591 3.15203C165.962 3.53236 166.149 4.00718 166.149 4.58113C166.149 5.15508 165.962 5.62989 165.591 6.001C165.211 6.38133 164.72 6.56808 164.121 6.56808C163.521 6.56808 163.03 6.38133 162.657 6.001C162.277 5.62989 162.09 5.15508 162.09 4.58113ZM164.118 5.9342C164.888 5.9342 165.43 5.38328 165.43 4.58113C165.43 3.77899 164.888 3.22812 164.118 3.22812C163.348 3.22812 162.807 3.77668 162.807 4.58113C162.807 5.38558 163.348 5.9342 164.118 5.9342Z" fill="black"/>
<path d="M170.259 5.99424C169.895 6.37457 169.423 6.56819 168.856 6.56819C167.613 6.56819 166.843 5.66231 166.843 4.20093C166.843 2.55285 167.316 1.5294 168.256 1.13064C168.501 1.01999 168.789 0.943916 169.128 0.88629C169.466 0.82636 169.701 0.759542 169.828 0.683476C169.939 0.607411 170.047 0.565918 170.142 0.565918C170.236 0.565918 170.31 0.607411 170.37 0.683476C170.421 0.743406 170.446 0.810225 170.446 0.88629C170.446 0.987711 170.405 1.07302 170.328 1.13986C170.135 1.31735 169.828 1.4441 169.416 1.52017C169.001 1.59624 168.687 1.68154 168.484 1.77374C167.901 2.03652 167.588 2.65425 167.528 3.60853C167.772 3.07607 168.399 2.72107 169.042 2.72107C170.126 2.72107 170.81 3.46559 170.81 4.61579C170.81 5.15747 170.623 5.61391 170.259 5.99424ZM168.839 5.93431C169.204 5.93431 169.508 5.80751 169.745 5.56318C169.973 5.31885 170.091 5.01459 170.091 4.6504C170.091 3.88052 169.642 3.35726 168.874 3.35726C168.199 3.35726 167.689 3.79751 167.562 4.32997C167.562 5.30269 168.086 5.93662 168.839 5.93662V5.93431Z" fill="black"/>
<path d="M171.504 4.58113C171.504 4.00718 171.69 3.53236 172.071 3.15203C172.451 2.77171 172.933 2.59424 173.535 2.59424C174.136 2.59424 174.625 2.78093 175.005 3.15203C175.376 3.53236 175.563 4.00718 175.563 4.58113C175.563 5.15508 175.376 5.62989 175.005 6.001C174.625 6.38133 174.134 6.56808 173.535 6.56808C172.935 6.56808 172.444 6.38133 172.071 6.001C171.69 5.62989 171.504 5.15508 171.504 4.58113ZM173.532 5.9342C174.302 5.9342 174.844 5.38328 174.844 4.58113C174.844 3.77899 174.302 3.22812 173.532 3.22812C172.762 3.22812 172.221 3.77668 172.221 4.58113C172.221 5.38558 172.762 5.9342 173.532 5.9342Z" fill="black"/>
<path d="M180.078 6.22214C180.113 6.63705 179.368 6.63705 179.403 6.22214V3.70964L177.347 6.23824C177.179 6.44108 177.017 6.54252 176.865 6.54252C176.672 6.54252 176.526 6.38117 176.526 6.20369V2.9559C176.492 2.54099 177.236 2.54099 177.202 2.9559V5.47532L179.258 2.94667C179.435 2.73461 179.597 2.63322 179.74 2.63322C179.933 2.63322 180.078 2.80148 180.078 2.97897V6.21753V6.22214ZM179.249 0.733887C179.426 0.733887 179.562 0.851449 179.562 1.02894C179.562 1.04507 179.553 1.07964 179.546 1.13957C179.444 1.57061 178.972 1.91864 178.354 1.91864C177.677 1.91864 177.213 1.57291 177.119 1.13957C177.109 1.11422 177.109 1.07965 177.109 1.03816C177.109 0.844543 177.227 0.733887 177.423 0.733887C177.584 0.733887 177.693 0.826069 177.753 1.00356C177.838 1.26633 178.041 1.40001 178.352 1.40001C178.647 1.40001 178.834 1.26402 178.919 1.00356C178.979 0.826069 179.087 0.733887 179.249 0.733887Z" fill="black"/>
<path d="M184.965 3.22812C184.61 3.22812 184.306 3.35487 184.052 3.60842C183.79 3.87119 183.663 4.19159 183.663 4.58113C183.663 4.97068 183.799 5.31644 184.059 5.56307C184.322 5.8074 184.642 5.9342 185.032 5.9342C185.345 5.9342 185.615 5.84889 185.843 5.6714C185.936 5.59534 186.021 5.56076 186.106 5.56076C186.182 5.56076 186.242 5.58615 186.3 5.64608C186.357 5.70601 186.392 5.77284 186.392 5.85812C186.392 5.95032 186.357 6.02638 186.3 6.07709C185.936 6.4067 185.495 6.56808 184.981 6.56808C184.373 6.56808 183.882 6.38135 183.511 6.01946C183.13 5.65527 182.944 5.18274 182.944 4.58113C182.944 4.02332 183.13 3.54851 183.495 3.16819C183.859 2.78786 184.324 2.59424 184.873 2.59424C185.348 2.59424 185.76 2.69561 186.108 2.88923C186.226 2.94916 186.286 3.05058 186.286 3.17736C186.286 3.23729 186.27 3.28803 186.244 3.32952C186.184 3.43095 186.092 3.48164 185.965 3.48164C185.906 3.48164 185.848 3.47244 185.804 3.44708C185.525 3.30417 185.246 3.22812 184.967 3.22812H184.965Z" fill="black"/>
<path d="M187.341 6.48541V7.09391C187.341 7.27139 187.198 7.41433 187.028 7.41433C186.857 7.41433 186.707 7.27139 186.707 7.09391V6.1719C186.707 5.99441 186.85 5.85153 187.028 5.85153H187.18C187.45 5.51269 187.696 4.67599 187.763 3.68714L187.805 3.0025C187.814 2.82502 187.966 2.68213 188.143 2.68213H190.096C190.273 2.68213 190.416 2.82502 190.416 3.0025V5.85153H190.73C190.907 5.85153 191.05 5.99441 191.05 6.1719V7.09391C191.05 7.27139 190.907 7.41433 190.737 7.41433C190.559 7.41433 190.416 7.27139 190.416 7.09391V6.48541H187.339H187.341ZM189.743 5.85153V3.3137H188.457L188.415 3.94758C188.339 4.83501 188.102 5.57953 187.899 5.84922H189.743V5.85153Z" fill="black"/>
<path d="M195.215 4.52351C195.206 4.6595 195.063 4.79318 194.927 4.79318H192.256C192.316 5.50312 192.83 5.9342 193.583 5.9342C193.938 5.9342 194.252 5.85814 194.515 5.70601C194.575 5.67143 194.641 5.65525 194.701 5.65525C194.787 5.65525 194.863 5.68988 194.93 5.76594C194.964 5.80743 194.98 5.85812 194.98 5.91805C194.98 6.02869 194.946 6.10476 194.879 6.14625C194.482 6.42515 194.033 6.56808 193.535 6.56808C192.917 6.56808 192.426 6.39057 192.055 6.02638C191.684 5.66219 191.497 5.18044 191.497 4.58113C191.497 3.98183 191.675 3.53236 192.023 3.15203C192.369 2.78093 192.85 2.59424 193.461 2.59424C193.959 2.59424 194.383 2.75555 194.722 3.07595C195.061 3.40557 195.229 3.82046 195.229 4.33679C195.229 4.42207 195.229 4.47971 195.22 4.52351H195.215ZM194.522 4.24461C194.487 3.61073 194.074 3.23042 193.422 3.23042C192.77 3.23042 192.288 3.64531 192.212 4.24461H194.522Z" fill="black"/>
<path d="M199.41 6.22252C199.445 6.63743 198.7 6.63743 198.735 6.22252V3.35504H197.398L197.357 3.99815C197.246 5.7661 196.714 6.5429 196.08 6.5429C195.877 6.5429 195.741 6.42532 195.741 6.22939C195.741 6.06804 195.833 5.9597 196.011 5.88364C196.204 5.80757 196.356 5.62088 196.467 5.32584C196.578 5.0308 196.654 4.54678 196.695 3.86219L196.746 3.00012C196.755 2.82263 196.907 2.67969 197.085 2.67969H199.088C199.265 2.67969 199.408 2.82263 199.408 3.00012V6.22252H199.41Z" fill="black"/>
<path d="M201.796 4.15943C202.202 4.15943 202.515 4.24473 202.744 4.40378C202.744 3.59241 202.582 3.20287 201.882 3.20287C201.637 3.20287 201.381 3.25356 201.121 3.35498C201.079 3.37112 201.036 3.38036 200.994 3.38036C200.867 3.38036 200.782 3.32044 200.731 3.2121C200.715 3.17061 200.706 3.13603 200.706 3.09454C200.706 2.95855 200.766 2.86636 200.874 2.82487C201.238 2.67274 201.593 2.59668 201.923 2.59668C202.972 2.59668 203.387 3.113 203.387 4.15257V6.2501C203.387 6.41145 203.244 6.54515 203.066 6.54515C202.889 6.54515 202.746 6.40914 202.746 6.2501V5.99658C202.451 6.36077 202.045 6.54515 201.529 6.54515C200.826 6.54515 200.363 6.08873 200.363 5.36956C200.363 4.6504 200.955 4.15943 201.801 4.15943H201.796ZM202.744 4.96388C202.506 4.79561 202.22 4.71036 201.891 4.71036C201.444 4.71036 201.079 4.92933 201.079 5.33732C201.079 5.70843 201.333 5.93665 201.764 5.93665C202.144 5.93665 202.465 5.77527 202.746 5.44565V4.96388H202.744Z" fill="black"/>
<path d="M207.985 4.52351C207.976 4.6595 207.833 4.79318 207.697 4.79318H205.026C205.086 5.50312 205.6 5.9342 206.353 5.9342C206.708 5.9342 207.022 5.85814 207.285 5.70601C207.344 5.67143 207.411 5.65525 207.471 5.65525C207.557 5.65525 207.633 5.68988 207.699 5.76594C207.734 5.80743 207.75 5.85812 207.75 5.91805C207.75 6.02869 207.716 6.10476 207.649 6.14625C207.252 6.42515 206.803 6.56808 206.305 6.56808C205.687 6.56808 205.196 6.39057 204.825 6.02638C204.454 5.66219 204.267 5.18044 204.267 4.58113C204.267 3.98183 204.445 3.53236 204.793 3.15203C205.139 2.78093 205.62 2.59424 206.231 2.59424C206.731 2.59424 207.153 2.75555 207.492 3.07595C207.831 3.40557 207.999 3.82046 207.999 4.33679C207.999 4.42207 207.999 4.47971 207.99 4.52351H207.985ZM207.291 4.24461C207.257 3.61073 206.844 3.23042 206.192 3.23042C205.54 3.23042 205.058 3.64531 204.982 4.24461H207.291Z" fill="black"/>
<path d="M209.636 3.76979V6.22236C209.67 6.63726 208.926 6.63726 208.958 6.22236V2.95842C208.958 2.78094 209.11 2.63805 209.288 2.63805C209.465 2.63805 209.557 2.72332 209.753 2.96765L211.039 4.56501L212.266 2.94919C212.418 2.73713 212.561 2.63574 212.697 2.63574C212.874 2.63574 213.026 2.77863 213.026 2.95611V6.22005C213.061 6.63496 212.316 6.63496 212.349 6.22005V3.76749L211.274 5.12979C211.138 5.30727 210.885 5.30722 210.749 5.13896L209.633 3.76979H209.636Z" fill="black"/>
<path d="M1.46762 16.7745V17.383C1.46762 17.5605 1.32471 17.7034 1.15414 17.7034C0.983566 17.7034 0.83374 17.5605 0.83374 17.383V16.461C0.83374 16.2835 0.976651 16.1406 1.15414 16.1406H1.30627C1.57595 15.8018 1.82259 14.9651 1.88943 13.9762L1.93093 13.2916C1.94015 13.1141 2.09228 12.9712 2.26976 12.9712H4.22211C4.3996 12.9712 4.54251 13.1141 4.54251 13.2916V16.1406H4.85599C5.03348 16.1406 5.17639 16.2835 5.17639 16.461V17.383C5.17639 17.5605 5.03348 17.7034 4.86291 17.7034C4.68542 17.7034 4.54251 17.5605 4.54251 17.383V16.7745H1.46531H1.46762ZM3.86945 16.1406V13.6028H2.58325L2.54175 14.2367C2.46569 15.1241 2.22827 15.8687 2.02543 16.1383H3.86945V16.1406Z" fill="black"/>
<path d="M8.13112 14.7947C8.72351 14.9054 9.01855 15.2096 9.01855 15.7006C9.01855 16.4359 8.43539 16.8093 7.26905 16.8093C7.20912 16.8093 6.85414 16.8001 6.19491 16.7839C6.01742 16.7747 5.87451 16.6226 5.87451 16.4451V13.2988C5.87451 13.1213 6.01742 12.9692 6.19491 12.96C6.80343 12.9438 7.1584 12.9346 7.25291 12.9346C8.34318 12.9346 8.89408 13.2642 8.89408 13.9165C8.89408 14.3637 8.5806 14.721 8.13343 14.797L8.13112 14.7947ZM6.54988 14.6426H7.40504C7.87066 14.6426 8.17492 14.4144 8.17492 14.0502C8.17492 13.686 7.88679 13.4832 7.30362 13.4832C7.14227 13.4832 6.88872 13.4924 6.54988 13.5085V14.6426ZM6.54988 15.0667V16.2331C6.95556 16.2492 7.21834 16.2584 7.32898 16.2584C7.97899 16.2584 8.30169 16.0556 8.30169 15.6499C8.30169 15.2442 7.98821 15.0667 7.36355 15.0667H6.55219H6.54988Z" fill="black"/>
<path d="M11.2175 14.4485C11.6232 14.4485 11.9367 14.5338 12.1649 14.6929C12.1649 13.8815 12.0035 13.4919 11.3028 13.4919C11.0585 13.4919 10.8026 13.5427 10.5422 13.6441C10.5007 13.6602 10.4569 13.6694 10.4154 13.6694C10.2886 13.6694 10.2033 13.6095 10.1526 13.5012C10.1365 13.4597 10.1273 13.4251 10.1273 13.3836C10.1273 13.2476 10.1872 13.1554 10.2955 13.1139C10.6597 12.9618 11.0147 12.8857 11.3443 12.8857C12.3931 12.8857 12.808 13.4021 12.808 14.4416V16.5392C12.808 16.7006 12.6651 16.8342 12.4876 16.8342C12.3101 16.8342 12.1672 16.6983 12.1672 16.5392V16.2856C11.8722 16.6498 11.4642 16.8342 10.9502 16.8342C10.2494 16.8342 9.78381 16.3778 9.78381 15.6587C9.78381 14.9395 10.3762 14.4485 11.2221 14.4485H11.2175ZM12.1649 15.2507C11.9275 15.0824 11.6394 14.9971 11.3097 14.9971C10.8626 14.9971 10.4984 15.2161 10.4984 15.6241C10.4984 15.9952 10.7519 16.2234 11.183 16.2234C11.5633 16.2234 11.8837 16.0621 12.1649 15.7325V15.2507Z" fill="black"/>
<path d="M18.1029 14.7947C18.6953 14.9054 18.9903 15.2096 18.9903 15.7006C18.9903 16.4359 18.4071 16.8093 17.2408 16.8093C17.1809 16.8093 16.8259 16.8001 16.1666 16.7839C15.9892 16.7747 15.8463 16.6226 15.8463 16.4451V13.2988C15.8463 13.1213 15.9892 12.9692 16.1666 12.96C16.7752 12.9438 17.1301 12.9346 17.2247 12.9346C18.3149 12.9346 18.8658 13.2642 18.8658 13.9165C18.8658 14.3637 18.5523 14.721 18.1052 14.797L18.1029 14.7947ZM16.5216 14.6426H17.3768C17.8424 14.6426 18.1467 14.4144 18.1467 14.0502C18.1467 13.686 17.8585 13.4832 17.2754 13.4832C17.114 13.4832 16.8605 13.4924 16.5216 13.5085V14.6426ZM16.5216 15.0667V16.2331C16.9273 16.2492 17.1901 16.2584 17.3007 16.2584C17.953 16.2584 18.2734 16.0556 18.2734 15.6499C18.2734 15.2442 17.96 15.0667 17.3353 15.0667H16.5239H16.5216Z" fill="black"/>
<path d="M23.5746 16.5118C23.6092 16.9267 22.8647 16.9267 22.8992 16.5118V13.9993L20.8432 16.5279C20.6749 16.7308 20.5136 16.8322 20.3614 16.8322C20.1678 16.8322 20.0226 16.6708 20.0226 16.4933V13.2456C19.988 12.8307 20.7325 12.8307 20.7003 13.2456V15.765L22.7563 13.2364C22.9338 13.0243 23.0952 12.9229 23.2381 12.9229C23.4317 12.9229 23.5769 13.0911 23.5769 13.2686V16.5072L23.5746 16.5118Z" fill="black"/>
<path d="M24.9024 16.7745V17.383C24.9024 17.5605 24.7595 17.7034 24.589 17.7034C24.4115 17.7034 24.2686 17.5605 24.2686 17.383V16.461C24.2686 16.2835 24.4115 16.1406 24.589 16.1406H24.7411C25.0108 15.8018 25.2574 14.9651 25.3243 13.9762L25.3657 13.2916C25.375 13.1141 25.5271 12.9712 25.7046 12.9712H27.6569C27.8344 12.9712 27.9773 13.1141 27.9773 13.2916V16.1406H28.2908C28.4683 16.1406 28.6112 16.2835 28.6112 16.461V17.383C28.6112 17.5605 28.4683 17.7034 28.2977 17.7034C28.1272 17.7034 27.9773 17.5605 27.9773 17.383V16.7745H24.9001H24.9024ZM27.3043 16.1406V13.6028H26.0181L25.9766 14.2367C25.9005 15.1241 25.6631 15.8687 25.4603 16.1383H27.3043V16.1406Z" fill="black"/>
<path d="M30.4735 14.4485C30.8792 14.4485 31.1927 14.5338 31.4209 14.6929C31.4209 13.8815 31.2595 13.4919 30.5588 13.4919C30.3145 13.4919 30.0609 13.5427 29.7981 13.6441C29.7567 13.6602 29.7129 13.6694 29.6714 13.6694C29.5446 13.6694 29.4593 13.6095 29.4086 13.5012C29.3925 13.4597 29.3832 13.4251 29.3832 13.3836C29.3832 13.2476 29.4432 13.1554 29.5515 13.1139C29.9157 12.9618 30.2707 12.8857 30.6003 12.8857C31.6491 12.8857 32.064 13.4021 32.064 14.4416V16.5392C32.064 16.7006 31.9211 16.8342 31.7436 16.8342C31.5661 16.8342 31.4232 16.6983 31.4232 16.5392V16.2856C31.1281 16.6498 30.7225 16.8342 30.2061 16.8342C29.5031 16.8342 29.0398 16.3778 29.0398 15.6587C29.0398 14.9395 29.6322 14.4485 30.4781 14.4485H30.4735ZM31.4209 15.2507C31.1835 15.0824 30.8976 14.9971 30.5657 14.9971C30.1185 14.9971 29.7544 15.2161 29.7544 15.6241C29.7544 15.9952 30.0079 16.2234 30.4389 16.2234C30.8193 16.2234 31.1397 16.0621 31.4209 15.7325V15.2507Z" fill="black"/>
<path d="M36.8677 13.5177C36.5128 13.5177 36.2085 13.6444 35.955 13.898C35.7014 14.1515 35.5654 14.4812 35.5654 14.8707C35.5654 15.2603 35.7014 15.606 35.9619 15.8526C36.2247 16.097 36.545 16.2238 36.9346 16.2238C37.2481 16.2238 37.5178 16.1385 37.746 15.961C37.8382 15.8849 37.9234 15.8504 38.0087 15.8504C38.0848 15.8504 38.1447 15.8757 38.2024 15.9356C38.26 15.9956 38.2946 16.0624 38.2946 16.1477C38.2946 16.2399 38.26 16.316 38.2024 16.3667C37.8382 16.6963 37.3979 16.8576 36.8839 16.8576C36.2754 16.8576 35.7844 16.671 35.4133 16.3091C35.033 15.9449 34.8463 15.4723 34.8463 14.8707C34.8463 14.3129 35.033 13.8381 35.3948 13.4577C35.759 13.0774 36.2246 12.8838 36.7732 12.8838C37.2458 12.8838 37.6607 12.9852 38.0087 13.1788C38.1263 13.2388 38.1862 13.3402 38.1862 13.467C38.1862 13.5269 38.1701 13.5776 38.1447 13.6191C38.0848 13.7205 37.9926 13.7712 37.8658 13.7712C37.8059 13.7712 37.7483 13.762 37.7045 13.7366C37.4256 13.5937 37.1467 13.5177 36.8677 13.5177Z" fill="black"/>
<path d="M38.8802 14.8707C38.8802 14.2968 39.0669 13.8219 39.4472 13.4416C39.8183 13.0705 40.3093 12.8838 40.9109 12.8838C41.5125 12.8838 42.0012 13.0705 42.3815 13.4416C42.7526 13.8219 42.9393 14.2968 42.9393 14.8707C42.9393 15.4447 42.7526 15.9195 42.3815 16.2906C42.0012 16.6709 41.5102 16.8576 40.9109 16.8576C40.3116 16.8576 39.8206 16.6709 39.4472 16.2906C39.0669 15.9195 38.8802 15.4447 38.8802 14.8707ZM40.9109 16.2238C41.6808 16.2238 42.2225 15.6729 42.2225 14.8707C42.2225 14.0686 41.6808 13.5177 40.9109 13.5177C40.141 13.5177 39.5994 14.0663 39.5994 14.8707C39.5994 15.6752 40.141 16.2238 40.9109 16.2238Z" fill="black"/>
<path d="M47.3716 14.8131C47.3623 14.9491 47.2194 15.0828 47.0834 15.0828H44.4119C44.4718 15.7927 44.9859 16.2238 45.7396 16.2238C46.0946 16.2238 46.4081 16.1477 46.6708 15.9956C46.7308 15.961 46.7976 15.9449 46.8575 15.9449C46.9428 15.9449 47.0189 15.9794 47.0857 16.0555C47.1203 16.097 47.1364 16.1477 47.1364 16.2076C47.1364 16.3182 47.1019 16.3943 47.035 16.4358C46.6386 16.7147 46.1891 16.8576 45.6912 16.8576C45.0735 16.8576 44.5825 16.6801 44.2114 16.3159C43.8403 15.9517 43.6536 15.47 43.6536 14.8707C43.6536 14.2714 43.831 13.8219 44.1768 13.4416C44.5226 13.0705 45.0066 12.8838 45.6151 12.8838C46.113 12.8838 46.5371 13.0452 46.876 13.3656C47.2148 13.6952 47.3831 14.1101 47.3831 14.6264C47.3831 14.7117 47.3831 14.7693 47.3739 14.8131H47.3716ZM46.6777 14.5342C46.6432 13.9003 46.2306 13.52 45.5783 13.52C44.9259 13.52 44.4442 13.9349 44.3681 14.5342H46.6777Z" fill="black"/>
<path d="M48.4549 16.7745V17.383C48.4549 17.5605 48.3119 17.7034 48.1414 17.7034C47.9639 17.7034 47.821 17.5605 47.821 17.383V16.461C47.821 16.2835 47.9639 16.1406 48.1414 16.1406H48.2935C48.5632 15.8018 48.8098 14.9651 48.8767 13.9762L48.9182 13.2916C48.9274 13.1141 49.0795 12.9712 49.257 12.9712H51.2094C51.3868 12.9712 51.5298 13.1141 51.5298 13.2916V16.1406H51.8432C52.0207 16.1406 52.1636 16.2835 52.1636 16.461V17.383C52.1636 17.5605 52.0207 17.7034 51.8501 17.7034C51.6796 17.7034 51.5298 17.5605 51.5298 17.383V16.7745H48.4526H48.4549ZM50.8544 16.1406V13.6028H49.5682L49.5267 14.2367C49.4506 15.1241 49.2132 15.8687 49.0104 16.1383H50.8544V16.1406Z" fill="black"/>
<path d="M56.412 16.5118C56.4465 16.9267 55.702 16.9267 55.7366 16.5118V13.9993L53.6805 16.5279C53.5123 16.7308 53.3509 16.8322 53.1988 16.8322C53.0051 16.8322 52.8599 16.6708 52.8599 16.4933V13.2456C52.8254 12.8307 53.5699 12.8307 53.5376 13.2456V15.765L55.5937 13.2364C55.7712 13.0243 55.9325 12.9229 56.0754 12.9229C56.2691 12.9229 56.4143 13.0911 56.4143 13.2686V16.5072L56.412 16.5118Z" fill="black"/>
<path d="M61.098 16.5116C61.1326 16.9265 60.3881 16.9265 60.4203 16.5116V15.1677H58.3067V16.5116C58.3412 16.9265 57.5967 16.9265 57.629 16.5116V13.2477C57.5944 12.8328 58.3389 12.8328 58.3067 13.2477V14.5339H60.4203V13.2477C60.3858 12.8328 61.1303 12.8328 61.098 13.2477V16.5116Z" fill="black"/>
<path d="M65.7817 14.8131C65.7724 14.9491 65.6295 15.0828 65.4935 15.0828H62.822C62.8819 15.7927 63.396 16.2238 64.1497 16.2238C64.5047 16.2238 64.8182 16.1477 65.0809 15.9956C65.1409 15.961 65.2077 15.9449 65.2676 15.9449C65.3529 15.9449 65.429 15.9794 65.4958 16.0555C65.5304 16.097 65.5465 16.1477 65.5465 16.2076C65.5465 16.3182 65.512 16.3943 65.4451 16.4358C65.0487 16.7147 64.5992 16.8576 64.1013 16.8576C63.4835 16.8576 62.9926 16.6801 62.6215 16.3159C62.2504 15.9517 62.0637 15.47 62.0637 14.8707C62.0637 14.2714 62.2411 13.8219 62.5892 13.4416C62.935 13.0705 63.4167 12.8838 64.0275 12.8838C64.5254 12.8838 64.9495 13.0452 65.2884 13.3656C65.6272 13.6952 65.7955 14.1101 65.7955 14.6264C65.7955 14.7117 65.7955 14.7693 65.7863 14.8131H65.7817ZM65.0878 14.5342C65.0533 13.9003 64.6384 13.52 63.9884 13.52C63.3383 13.52 62.8543 13.9349 62.7782 14.5342H65.0878Z" fill="black"/>
<path d="M70.2213 16.5116C70.2559 16.9265 69.5114 16.9265 69.546 16.5116V15.1677H67.4323V16.5116C67.4668 16.9265 66.7223 16.9265 66.7569 16.5116V13.2477C66.7223 12.8328 67.4668 12.8328 67.4323 13.2477V14.5339H69.546V13.2477C69.5114 12.8328 70.2559 12.8328 70.2213 13.2477V16.5116Z" fill="black"/>
<path d="M74.9928 16.5118C75.0274 16.9267 74.2829 16.9267 74.3152 16.5118V13.9993L72.2614 16.5279C72.0931 16.7308 71.9318 16.8322 71.7796 16.8322C71.586 16.8322 71.4408 16.6708 71.4408 16.4933V13.2456C71.4062 12.8307 72.1507 12.8307 72.1185 13.2456V15.765L74.1722 13.2364C74.3497 13.0243 74.5111 12.9229 74.654 12.9229C74.8476 12.9229 74.9928 13.0911 74.9928 13.2686V16.5072V16.5118Z" fill="black"/>
<path d="M79.7619 16.5117C79.7965 16.9266 79.0519 16.9266 79.0842 16.5117V13.9992L77.0304 16.5278C76.8622 16.7307 76.7008 16.8321 76.5487 16.8321C76.3551 16.8321 76.2098 16.6707 76.2098 16.4932V13.2455C76.1753 12.8306 76.9198 12.8306 76.8875 13.2455V15.7649L78.9413 13.2363C79.1188 13.0242 79.2801 12.9228 79.423 12.9228C79.6167 12.9228 79.7619 13.091 79.7619 13.2685V16.5071V16.5117ZM78.9321 11.0234C79.1096 11.0234 79.2456 11.141 79.2456 11.3185C79.2456 11.3346 79.2363 11.3692 79.2294 11.4291C79.128 11.8602 78.6555 12.2082 78.0377 12.2082C77.3624 12.2082 76.8967 11.8625 76.8022 11.4291C76.793 11.4038 76.793 11.3692 76.793 11.3277C76.793 11.1341 76.9106 11.0234 77.1065 11.0234C77.2679 11.0234 77.3762 11.1157 77.4361 11.2932C77.5214 11.5559 77.7242 11.6896 78.0354 11.6896C78.3305 11.6896 78.5172 11.5536 78.6025 11.2932C78.6624 11.1157 78.7707 11.0234 78.9321 11.0234Z" fill="black"/>
<path d="M81.2764 15.8691C81.5208 15.8691 81.7236 16.0881 81.7236 16.3163C81.7236 16.5791 81.5369 16.7981 81.2764 16.7981C80.9975 16.7981 80.7947 16.5791 80.7947 16.3163C80.7947 16.0789 80.9975 15.8691 81.2764 15.8691Z" fill="black"/>
<path d="M97.5109 29.2231H9.65292C8.12529 29.2231 6.8869 30.4615 6.8869 31.9892V100.879C6.8869 102.407 8.12529 103.645 9.65292 103.645H97.5109C99.0386 103.645 100.277 102.407 100.277 100.879V31.9892C100.277 30.4615 99.0386 29.2231 97.5109 29.2231Z" fill="white"/>
<path d="M98.5849 103.857H8.57856C7.52978 103.857 6.67462 103.005 6.67462 101.953V30.9152C6.67462 29.8664 7.52748 29.0112 8.57856 29.0112H98.5872C99.6359 29.0112 100.491 29.8641 100.491 30.9152V101.953C100.491 103.002 99.6382 103.857 98.5872 103.857H98.5849ZM8.57856 29.4354C7.76259 29.4354 7.09874 30.0992 7.09874 30.9152V101.953C7.09874 102.769 7.76259 103.433 8.57856 103.433H98.5872C99.4031 103.433 100.067 102.769 100.067 101.953V30.9152C100.067 30.0992 99.4031 29.4354 98.5872 29.4354H8.57856Z" fill="#83BBFF"/>
<path d="M15.0971 34.4976C15.2423 34.4976 15.3645 34.6174 15.3645 34.7649V38.7157C15.3645 38.861 15.2446 38.9831 15.0971 38.9831C14.9496 38.9831 14.8251 38.8633 14.8251 38.7157V35.0047H12.4141V38.7157C12.4141 38.861 12.2942 38.9831 12.1467 38.9831C11.9992 38.9831 11.8747 38.8633 11.8747 38.7157V34.7649C11.8747 34.6197 11.9946 34.4976 12.1421 34.4976H15.0971Z" fill="black"/>
<path d="M19.0872 37.4665C19.0802 37.568 18.9719 37.6694 18.8705 37.6694H16.8674C16.9112 38.2019 17.2985 38.5246 17.8632 38.5246C18.1306 38.5246 18.3634 38.4669 18.5616 38.354C18.6054 38.3286 18.6561 38.3148 18.7022 38.3148C18.7668 38.3148 18.8221 38.3402 18.8728 38.3978C18.8982 38.43 18.912 38.4669 18.912 38.513C18.912 38.596 18.8866 38.6513 18.8359 38.6836C18.5386 38.8934 18.202 39.0017 17.8263 39.0017C17.363 39.0017 16.9965 38.868 16.7176 38.596C16.4387 38.324 16.2981 37.9622 16.2981 37.5104C16.2981 37.0586 16.4318 36.7243 16.6923 36.4385C16.9527 36.1596 17.3146 36.019 17.771 36.019C18.1444 36.019 18.4625 36.1389 18.7161 36.3809C18.9696 36.6275 19.0964 36.9387 19.0964 37.326C19.0964 37.3905 19.0964 37.4343 19.0895 37.4665H19.0872ZM18.5662 37.2568C18.5409 36.782 18.2297 36.4961 17.741 36.4961C17.2524 36.4961 16.8905 36.8073 16.8352 37.2568H18.5662Z" fill="black"/>
<path d="M20.3248 39.9654C20.3502 40.2766 19.7924 40.2766 19.8177 39.9654V36.2935C19.7924 35.9823 20.3502 35.9823 20.3248 36.2935V36.4203C20.5277 36.1852 20.908 36.0215 21.2953 36.0215C21.6825 36.0215 22.019 36.1552 22.2587 36.4203C22.4939 36.6923 22.6137 37.0426 22.6137 37.4667C22.6137 37.8909 22.4754 38.2712 22.2011 38.5639C21.9291 38.8567 21.5672 39.0019 21.1293 39.0019C20.7928 39.0019 20.5208 38.9373 20.3248 38.806V39.9677V39.9654ZM20.3248 38.3035C20.5461 38.4487 20.7997 38.5248 21.0855 38.5248C21.6871 38.5248 22.0743 38.0937 22.0743 37.4852C22.0743 36.8767 21.7263 36.4963 21.1477 36.4963C20.8112 36.4963 20.5323 36.63 20.3225 36.8905V38.3058L20.3248 38.3035Z" fill="black"/>
<path d="M25.036 37.455C25.4809 37.5379 25.7022 37.7661 25.7022 38.1326C25.7022 38.6835 25.2642 38.9624 24.3883 38.9624C24.3445 38.9624 24.0772 38.9555 23.5839 38.944C23.4502 38.9371 23.3419 38.8241 23.3419 38.6904V36.3301C23.3419 36.1964 23.4502 36.0835 23.5839 36.0766C24.0403 36.065 24.3077 36.0581 24.3768 36.0581C25.1951 36.0581 25.6077 36.3047 25.6077 36.7934C25.6077 37.1299 25.3726 37.395 25.036 37.4527V37.455ZM23.8513 37.3397H24.4921C24.8401 37.3397 25.0683 37.1691 25.0683 36.8948C25.0683 36.6205 24.8516 36.4707 24.416 36.4707C24.2961 36.4707 24.1048 36.4776 23.8513 36.4891V37.3397ZM23.8513 37.6578V38.5337C24.1555 38.5452 24.3515 38.5521 24.4344 38.5521C24.9231 38.5521 25.1628 38.4 25.1628 38.0957C25.1628 37.7914 24.9277 37.6578 24.4598 37.6578H23.8513Z" fill="black"/>
<path d="M26.2855 37.5104C26.2855 37.0793 26.4238 36.7243 26.7096 36.4385C26.9955 36.1527 27.3574 36.019 27.8068 36.019C28.2563 36.019 28.6251 36.1596 28.9109 36.4385C29.1898 36.7243 29.3305 37.0793 29.3305 37.5104C29.3305 37.9414 29.1898 38.2964 28.9109 38.5753C28.6251 38.8611 28.2586 38.9994 27.8068 38.9994C27.3551 38.9994 26.9886 38.8588 26.7096 38.5753C26.4238 38.2964 26.2855 37.9414 26.2855 37.5104ZM27.8091 38.5269C28.3854 38.5269 28.7911 38.1143 28.7911 37.5127C28.7911 36.9111 28.3854 36.4984 27.8091 36.4984C27.2329 36.4984 26.8272 36.9111 26.8272 37.5127C26.8272 38.1143 27.2329 38.5269 27.8091 38.5269Z" fill="black"/>
<path d="M32.6543 37.4665C32.6474 37.568 32.5391 37.6694 32.4376 37.6694H30.4346C30.4784 38.2019 30.8656 38.5246 31.4303 38.5246C31.6977 38.5246 31.9305 38.4669 32.1288 38.354C32.1726 38.3286 32.2233 38.3148 32.2694 38.3148C32.3339 38.3148 32.3892 38.3402 32.4399 38.3978C32.4653 38.43 32.4791 38.4669 32.4791 38.513C32.4791 38.596 32.4538 38.6513 32.4031 38.6836C32.1057 38.8934 31.7692 39.0017 31.3935 39.0017C30.9302 39.0017 30.5637 38.868 30.2847 38.596C30.0058 38.324 29.8652 37.9622 29.8652 37.5104C29.8652 37.0586 29.9989 36.7243 30.2594 36.4385C30.5199 36.1596 30.8817 36.019 31.3381 36.019C31.7116 36.019 32.0296 36.1389 32.2832 36.3809C32.5368 36.6275 32.6635 36.9387 32.6635 37.326C32.6635 37.3905 32.6635 37.4343 32.6566 37.4665H32.6543ZM32.1334 37.2568C32.108 36.782 31.7968 36.4961 31.3082 36.4961C30.8195 36.4961 30.4576 36.8073 30.4023 37.2568H32.1334Z" fill="black"/>
<path d="M36.137 36.4963C35.8697 36.4963 35.6415 36.5908 35.4525 36.7822C35.2565 36.9781 35.1597 37.2201 35.1597 37.5106C35.1597 37.801 35.2611 38.0615 35.4571 38.2459C35.653 38.4303 35.895 38.5248 36.1855 38.5248C36.4206 38.5248 36.6234 38.4602 36.794 38.3288C36.8631 38.2712 36.9277 38.2459 36.9899 38.2459C37.0475 38.2459 37.0913 38.2643 37.1351 38.3104C37.1789 38.3565 37.2043 38.4049 37.2043 38.4694C37.2043 38.5386 37.1789 38.5962 37.1351 38.6354C36.8631 38.882 36.5335 39.0042 36.1463 39.0042C35.6899 39.0042 35.3211 38.8636 35.0422 38.5916C34.7563 38.3196 34.618 37.9647 34.618 37.5129C34.618 37.0934 34.7586 36.7384 35.0306 36.4525C35.3026 36.1667 35.653 36.0215 36.0656 36.0215C36.4206 36.0215 36.7317 36.0976 36.9922 36.2428C37.0821 36.2866 37.1259 36.3627 37.1259 36.4595C37.1259 36.5033 37.1144 36.5425 37.0936 36.5747C37.0498 36.6508 36.9784 36.69 36.8839 36.69C36.8401 36.69 36.794 36.683 36.764 36.6646C36.5543 36.5563 36.3445 36.4986 36.137 36.4986V36.4963Z" fill="black"/>
<path d="M39.7698 39.9654C39.7952 40.2766 39.2374 40.2766 39.2627 39.9654V36.2935C39.2374 35.9823 39.7952 35.9823 39.7698 36.2935V36.4203C39.9727 36.1852 40.353 36.0215 40.7403 36.0215C41.1275 36.0215 41.464 36.1552 41.7038 36.4203C41.9389 36.6923 42.0587 37.0426 42.0587 37.4667C42.0587 37.8909 41.9181 38.2712 41.6461 38.5639C41.3741 38.8567 41.0122 39.0019 40.5743 39.0019C40.2378 39.0019 39.9658 38.9373 39.7698 38.806V39.9677V39.9654ZM39.7698 38.3035C39.9911 38.4487 40.2447 38.5248 40.5305 38.5248C41.1321 38.5248 41.5193 38.0937 41.5193 37.4852C41.5193 36.8767 41.1713 36.4963 40.5927 36.4963C40.2562 36.4963 39.9773 36.63 39.7675 36.8905V38.3058L39.7698 38.3035Z" fill="black"/>
<path d="M42.6003 37.5104C42.6003 37.0793 42.7386 36.7243 43.0245 36.4385C43.3103 36.1527 43.6722 36.019 44.1217 36.019C44.5711 36.019 44.9399 36.1596 45.2258 36.4385C45.5047 36.7243 45.6453 37.0793 45.6453 37.5104C45.6453 37.9414 45.5047 38.2964 45.2258 38.5753C44.9399 38.8611 44.5734 38.9994 44.1217 38.9994C43.6699 38.9994 43.3034 38.8588 43.0245 38.5753C42.7386 38.2964 42.6003 37.9414 42.6003 37.5104ZM44.1217 38.5269C44.6979 38.5269 45.1036 38.1143 45.1036 37.5127C45.1036 36.9111 44.6979 36.4984 44.1217 36.4984C43.5454 36.4984 43.1397 36.9111 43.1397 37.5127C43.1397 38.1143 43.5454 38.5269 44.1217 38.5269Z" fill="black"/>
<path d="M48.0608 37.455C48.5056 37.5379 48.7269 37.7661 48.7269 38.1326C48.7269 38.6835 48.289 38.9624 47.4131 38.9624C47.3693 38.9624 47.1019 38.9555 46.6086 38.944C46.4749 38.9371 46.3666 38.8241 46.3666 38.6904V36.3301C46.3666 36.1964 46.4749 36.0835 46.6086 36.0766C47.065 36.065 47.3324 36.0581 47.4015 36.0581C48.2198 36.0581 48.6324 36.3047 48.6324 36.7934C48.6324 37.1299 48.3973 37.395 48.0608 37.4527V37.455ZM46.8737 37.3397H47.5145C47.8625 37.3397 48.0907 37.1691 48.0907 36.8948C48.0907 36.6205 47.8741 36.4707 47.4384 36.4707C47.3186 36.4707 47.1272 36.4776 46.8737 36.4891V37.3397ZM46.8737 37.6578V38.5337C47.1779 38.5452 47.3739 38.5521 47.4569 38.5521C47.9455 38.5521 48.1852 38.4 48.1852 38.0957C48.1852 37.7914 47.9501 37.6578 47.4822 37.6578H46.8737Z" fill="black"/>
<path d="M52.1019 38.7413C52.1272 39.0525 51.5694 39.0525 51.5948 38.7413V37.7318H50.0089V38.7413C50.0343 39.0525 49.4765 39.0525 49.5018 38.7413V36.2934C49.4765 35.9823 50.0343 35.9823 50.0089 36.2934V37.2569H51.5948V36.2934C51.5694 35.9823 52.1272 35.9823 52.1019 36.2934V38.7413Z" fill="black"/>
<path d="M53.5216 36.9415H53.9918C54.8032 36.9415 55.1213 37.3471 55.1213 37.9234C55.1213 38.4997 54.7663 38.9376 53.9342 38.9376H53.2565C53.1228 38.9376 53.0145 38.8293 53.0145 38.6956V36.2915C52.9892 35.9803 53.547 35.9803 53.5216 36.2915V36.9392V36.9415ZM53.5216 38.4628H53.8904C54.3791 38.4628 54.5819 38.2922 54.5819 37.9419C54.5819 37.5915 54.3537 37.4163 53.8973 37.4163H53.5239V38.4628H53.5216ZM56.1724 38.7417C56.1977 39.0529 55.6399 39.0529 55.6653 38.7417V36.2938C55.6399 35.9826 56.1977 35.9826 56.1724 36.2938V38.7417Z" fill="black"/>
<path d="M57.5946 36.9017V38.7411C57.62 39.0522 57.0622 39.0522 57.0875 38.7411V36.2932C57.0875 36.1595 57.2028 36.0511 57.3341 36.0511C57.4655 36.0511 57.537 36.1157 57.6822 36.2978L58.6457 37.4964L59.5654 36.2839C59.6807 36.1249 59.7867 36.0488 59.8881 36.0488C60.0218 36.0488 60.1347 36.1572 60.1347 36.2909V38.7388C60.1601 39.0499 59.6023 39.0499 59.6276 38.7388V36.8994L58.8232 37.9205C58.7218 38.0542 58.5305 38.0542 58.429 37.9274L57.5923 36.8994L57.5946 36.9017Z" fill="black"/>
<path d="M62.2875 37.5104C62.2875 37.0793 62.4281 36.7243 62.7116 36.4385C62.9905 36.1596 63.3593 36.019 63.8088 36.019C64.2583 36.019 64.6271 36.1596 64.9129 36.4385C65.1918 36.7243 65.3324 37.0793 65.3324 37.5104C65.3324 37.9414 65.1918 38.2964 64.9129 38.5753C64.6271 38.8611 64.2606 38.9994 63.8088 38.9994C63.357 38.9994 62.9905 38.8588 62.7116 38.5753C62.4258 38.2964 62.2875 37.9414 62.2875 37.5104ZM63.8088 38.5269C64.385 38.5269 64.7907 38.1143 64.7907 37.5127C64.7907 36.9111 64.385 36.4984 63.8088 36.4984C63.2325 36.4984 62.8268 36.9111 62.8268 37.5127C62.8268 38.1143 63.2325 38.5269 63.8088 38.5269Z" fill="black"/>
<path d="M66.5635 38.741C66.5888 39.0522 66.031 39.0522 66.0564 38.741V36.2931C66.031 35.982 66.5888 35.982 66.5635 36.2931V38.741ZM66.8424 37.6646C66.7594 37.5563 66.7594 37.3926 66.8424 37.2958L67.8013 36.1848C67.9534 36.0073 68.1378 36.0258 68.2254 36.1203C68.313 36.2148 68.3084 36.3623 68.2254 36.443L67.3057 37.4457L68.3199 38.5498C68.3706 38.6074 68.396 38.6696 68.396 38.741C68.396 38.8678 68.3015 38.9831 68.1424 38.9831C68.0479 38.9831 67.9649 38.9393 67.8958 38.8563L66.8424 37.6646Z" fill="black"/>
<path d="M68.9213 37.5104C68.9213 37.0793 69.0619 36.7243 69.3454 36.4385C69.6244 36.1596 69.9932 36.019 70.4426 36.019C70.8921 36.019 71.2609 36.1596 71.5467 36.4385C71.8256 36.7243 71.9663 37.0793 71.9663 37.5104C71.9663 37.9414 71.8256 38.2964 71.5467 38.5753C71.2609 38.8611 70.8944 38.9994 70.4426 38.9994C69.9909 38.9994 69.6244 38.8588 69.3454 38.5753C69.0596 38.2964 68.9213 37.9414 68.9213 37.5104ZM70.4449 38.5269C71.0212 38.5269 71.4269 38.1143 71.4269 37.5127C71.4269 36.9111 71.0212 36.4984 70.4449 36.4984C69.8687 36.4984 69.463 36.9111 69.463 37.5127C69.463 38.1143 69.8687 38.5269 70.4449 38.5269Z" fill="black"/>
<path d="M75.29 38.7413C75.3153 39.0525 74.7575 39.0525 74.7829 38.7413V37.7318H73.197V38.7413C73.2224 39.0525 72.6646 39.0525 72.6899 38.7413V36.2934C72.6646 35.9823 73.2224 35.9823 73.197 36.2934V37.2569H74.7829V36.2934C74.7575 35.9823 75.3153 35.9823 75.29 36.2934V38.7413Z" fill="black"/>
<path d="M77.8397 36.2934C77.8143 35.9823 78.3721 35.9823 78.3468 36.2934V38.7413C78.3721 39.0525 77.8143 39.0525 77.8397 38.7413V37.8286C77.6184 37.9692 77.3579 38.0383 77.0467 38.0383C76.3691 38.0383 76.0325 37.6764 76.0325 36.948V36.2957C76.0325 36.1621 76.1478 36.0537 76.3045 36.0537C76.4613 36.0537 76.5719 36.1621 76.5719 36.2957V36.8927C76.5719 37.3422 76.7747 37.5658 77.1873 37.5658C77.4547 37.5658 77.6691 37.5082 77.8397 37.3883V36.2981V36.2934Z" fill="black"/>
<path d="M80.1354 37.1948C80.4396 37.1948 80.6748 37.257 80.8453 37.3792C80.8453 36.7706 80.7255 36.4779 80.1976 36.4779C80.0132 36.4779 79.8242 36.5148 79.626 36.5932C79.5937 36.6047 79.5614 36.6116 79.5315 36.6116C79.437 36.6116 79.3724 36.5678 79.3355 36.4848C79.3217 36.4525 79.3171 36.4272 79.3171 36.3949C79.3171 36.2935 79.3609 36.2244 79.4439 36.1921C79.7159 36.0769 79.9833 36.0215 80.2299 36.0215C81.0159 36.0215 81.3271 36.4087 81.3271 37.1878V38.7599C81.3271 38.8797 81.2187 38.9811 81.085 38.9811C80.9513 38.9811 80.843 38.8797 80.843 38.7599V38.5685C80.6217 38.8405 80.3175 38.9811 79.9302 38.9811C79.4047 38.9811 79.0543 38.6377 79.0543 38.1006C79.0543 37.5635 79.4992 37.1948 80.1331 37.1948H80.1354ZM80.8453 37.7964C80.6678 37.6696 80.4512 37.6051 80.2045 37.6051C79.868 37.6051 79.596 37.771 79.596 38.0753C79.596 38.3542 79.7873 38.5248 80.11 38.5248C80.3958 38.5248 80.6356 38.4049 80.8453 38.1559V37.7941V37.7964Z" fill="black"/>
<path d="M84.7774 38.7413C84.8027 39.0525 84.2449 39.0525 84.2703 38.7413V37.7318H82.6844V38.7413C82.7098 39.0525 82.1519 39.0525 82.1773 38.7413V36.2934C82.1519 35.9823 82.7098 35.9823 82.6844 36.2934V37.2569H84.2703V36.2934C84.2449 35.9823 84.8027 35.9823 84.7774 36.2934V38.7413Z" fill="black"/>
<path d="M88.3552 38.7412C88.3806 39.0524 87.8227 39.0524 87.8481 38.7412V36.858L86.306 38.755C86.1793 38.9072 86.0594 38.9832 85.9441 38.9832C85.7989 38.9832 85.6906 38.8634 85.6906 38.7297V36.2933C85.6652 35.9821 86.223 35.9821 86.1977 36.2933V38.1834L87.7397 36.2864C87.8734 36.1273 87.9933 36.0513 88.1016 36.0513C88.2469 36.0513 88.3552 36.178 88.3552 36.3117V38.7412Z" fill="black"/>
<path d="M91.87 37.4665C91.8631 37.568 91.7548 37.6694 91.6533 37.6694H89.648C89.6918 38.2019 90.079 38.5246 90.6438 38.5246C90.9111 38.5246 91.1439 38.4669 91.3422 38.354C91.386 38.3286 91.4367 38.3148 91.4828 38.3148C91.5473 38.3148 91.6026 38.3402 91.6533 38.3978C91.6787 38.43 91.6902 38.4669 91.6902 38.513C91.6902 38.596 91.6649 38.6513 91.6142 38.6836C91.3168 38.8934 90.9803 39.0017 90.6046 39.0017C90.1413 39.0017 89.7748 38.868 89.4936 38.596C89.2146 38.324 89.074 37.9622 89.074 37.5104C89.074 37.0586 89.2077 36.7243 89.4682 36.4385C89.7287 36.1596 90.0906 36.019 90.5469 36.019C90.9204 36.019 91.2384 36.1389 91.492 36.3809C91.7455 36.6275 91.8723 36.9387 91.8723 37.326C91.8723 37.3905 91.8723 37.4343 91.8654 37.4665H91.87ZM91.3491 37.2568C91.3237 36.782 91.0125 36.4961 90.5239 36.4961C90.0352 36.4961 89.6733 36.8073 89.618 37.2568H91.3491Z" fill="black"/>
<path d="M93.1055 36.9017V38.7411C93.1308 39.0522 92.573 39.0522 92.5984 38.7411V36.2932C92.5984 36.1595 92.7136 36.0511 92.845 36.0511C92.9764 36.0511 93.0479 36.1157 93.1931 36.2978L94.1566 37.4964L95.0763 36.2839C95.1915 36.1249 95.2976 36.0488 95.399 36.0488C95.5327 36.0488 95.6456 36.1572 95.6456 36.2909V38.7388C95.671 39.0499 95.1132 39.0499 95.1385 38.7388V36.8994L94.3341 37.9205C94.2326 38.0542 94.0413 38.0542 93.9399 37.9274L93.1032 36.8994L93.1055 36.9017Z" fill="black"/>
<path d="M100.067 77.5H7.09882V77.7812H100.067V77.5Z" fill="#B4D2FC"/>
<path d="M100.067 93.4277H7.09882V93.7089H100.067V93.4277Z" fill="#B4D2FC"/>
<path d="M64.2054 52.2158C64.1731 52.2481 61.3126 55.2031 56.8063 59.6726C56.5296 59.9469 56.0871 59.9538 55.8036 59.6887C55.5039 59.4075 55.4993 58.935 55.7897 58.6468C60.2868 54.1935 63.1381 51.2454 63.1704 51.2155C63.447 50.9273 63.9034 50.9181 64.1892 51.1947C64.4773 51.4759 64.482 51.9277 64.2054 52.2158Z" fill="#1D1D1B"/>
<path d="M55.2987 60.5483C55.5707 60.8295 55.5661 61.2767 55.2918 61.5556C54.4459 62.4084 53.5331 63.3282 52.5534 64.2894C48.1854 68.5859 44.9561 69.1806 43.5016 69.1806C42.9899 69.1806 42.7018 69.1114 42.6603 69.0976C42.2777 68.9916 42.0495 68.5951 42.1532 68.2125C42.2569 67.8299 42.6488 67.6017 43.0314 67.7054C43.1006 67.7169 46.3437 68.3808 51.5438 63.2636C52.5189 62.307 53.427 61.3919 54.2684 60.5391C54.5542 60.251 55.0198 60.2533 55.301 60.546L55.2987 60.5483Z" fill="#1D1D1B"/>
<path d="M63.6984 50.236C63.6984 50.236 63.6868 50.236 63.6799 50.236C63.4517 50.2268 63.2765 50.0331 63.2858 49.8072L63.3687 47.8895L61.451 47.8065C61.2228 47.7973 61.0476 47.6036 61.0568 47.3777C61.066 47.1519 61.2643 46.9767 61.4855 46.9836L63.8136 47.085C64.0418 47.0942 64.217 47.2879 64.2078 47.5138L64.1063 49.8419C64.0971 50.0631 63.915 50.236 63.6961 50.236H63.6984Z" fill="#ED1C24"/>
<path d="M59.5193 51.8907C59.4063 51.8907 59.2934 51.8446 59.2127 51.7547C59.0606 51.5865 59.0744 51.326 59.2427 51.1739L63.3641 47.4651C63.5323 47.313 63.7928 47.3268 63.9449 47.4951C64.0971 47.6633 64.0832 47.9238 63.915 48.0759L59.7936 51.7847C59.7152 51.8562 59.6161 51.8907 59.517 51.8907H59.5193Z" fill="#ED1C24"/>
<path d="M23.34 93.4414C23.3169 93.4414 23.2939 93.4414 23.2708 93.4391C22.6877 93.3838 22.2128 93.0749 21.9339 92.5701C20.4311 89.8479 25.1702 80.1668 26.136 78.2537C26.3158 77.8987 26.7491 77.7581 27.1041 77.9356C27.4591 78.1154 27.602 78.5487 27.4222 78.9037C25.1656 83.38 22.3604 90.3619 23.1948 91.874C23.234 91.9454 23.2685 91.9823 23.3607 91.9985C25.4906 91.8279 29.9577 86.2751 32.3203 82.7531L34.4801 78.226C34.6507 77.8664 35.0817 77.7143 35.4413 77.8849C35.8009 78.0554 35.953 78.4864 35.7825 78.846L33.5996 83.4215C33.5858 83.4515 33.5674 83.4837 33.5489 83.5114C32.8805 84.5141 26.9036 93.3054 23.3654 93.4414C23.3561 93.4414 23.3469 93.4414 23.3377 93.4414H23.34Z" fill="#000089"/>
<path d="M30.981 93.4419C30.4508 93.4419 30.0082 93.2114 29.734 92.7896C28.5169 90.9179 31.3913 84.6644 32.3017 82.7928C32.4769 82.4355 32.908 82.288 33.2652 82.4585C33.6225 82.6337 33.7723 83.0647 33.5995 83.422C31.7255 87.276 30.4716 91.3144 30.9303 91.9828C33.0117 91.1622 37.3843 86.7873 38.9287 85.1323C39.2007 84.8419 39.657 84.8258 39.9475 85.0978C40.2379 85.3698 40.254 85.8261 39.9821 86.1166C39.3758 86.7666 33.9798 92.49 31.2483 93.4004C31.1815 93.4212 31.1147 93.435 31.0455 93.4373C31.0248 93.4373 31.0017 93.4373 30.981 93.4373V93.4419Z" fill="#000089"/>
<path d="M27.2538 79.058C27.2215 79.0903 24.361 82.0476 19.8547 86.5193C19.5781 86.7936 19.1355 86.8006 18.852 86.5355C18.5524 86.2543 18.5478 85.7817 18.8382 85.4936C23.3353 81.038 26.1866 78.0876 26.2189 78.0553C26.4955 77.7672 26.9519 77.7579 27.2377 78.0345C27.5258 78.3158 27.5304 78.7676 27.2538 79.058Z" fill="#000089"/>
<path d="M26.5622 77.076C26.5622 77.076 26.5507 77.076 26.5437 77.076C26.3155 77.0668 26.1404 76.8731 26.1496 76.6472L26.2326 74.7295L24.3148 74.6465C24.0866 74.6373 23.9114 74.4437 23.9206 74.2178C23.9299 73.9919 24.1281 73.8144 24.3494 73.8236L26.6774 73.925C26.9056 73.9343 27.0808 74.1279 27.0716 74.3538L26.9702 76.6841C26.9609 76.9054 26.7789 77.0783 26.5599 77.0783L26.5622 77.076Z" fill="#ED1C24"/>
<path d="M22.381 78.7329C22.268 78.7329 22.1551 78.6868 22.0744 78.5969C21.9223 78.4286 21.9361 78.1682 22.1044 78.016L26.2258 74.3049C26.394 74.1528 26.6545 74.1667 26.8066 74.3349C26.9587 74.5032 26.9449 74.7637 26.7766 74.9158L22.6553 78.6268C22.5769 78.6983 22.4778 78.7329 22.3787 78.7329H22.381Z" fill="#ED1C24"/>
<path d="M71.7035 93.4487C71.6805 93.4487 71.6574 93.4487 71.6344 93.4464C71.0512 93.3911 70.5764 93.0822 70.2975 92.5774C68.7946 89.8552 73.5337 80.1741 74.4995 78.2609C74.6793 77.906 75.1126 77.7654 75.4676 77.9429C75.8226 78.1227 75.9655 78.556 75.7857 78.911C73.5291 83.3873 70.7239 90.3692 71.5583 91.8813C71.5975 91.9528 71.6321 91.9897 71.7243 92.0058C73.8541 91.8352 78.3212 86.2824 80.6839 82.7603L82.8437 78.2333C83.0142 77.8737 83.4453 77.7216 83.8049 77.8922C84.1644 78.0628 84.3166 78.4938 84.146 78.8534L81.9631 83.4288C81.9493 83.4588 81.9309 83.491 81.9124 83.5187C81.244 84.5214 75.2671 93.3127 71.7289 93.4487C71.7197 93.4487 71.7104 93.4487 71.7012 93.4487H71.7035Z" fill="#FF767D"/>
<path d="M79.3449 93.4488C78.8147 93.4488 78.3721 93.2182 78.0978 92.7964C76.8808 90.9247 79.7551 84.6713 80.6656 82.7996C80.8408 82.4423 81.2719 82.2948 81.6291 82.4654C81.9864 82.6406 82.1362 83.0716 81.9634 83.4289C80.0894 87.2828 78.8355 91.3212 79.2942 91.9897C81.3756 91.1691 85.7482 86.7942 87.2926 85.1392C87.5645 84.8487 88.0209 84.8326 88.3114 85.1046C88.6018 85.3766 88.6179 85.833 88.3459 86.1234C87.7397 86.7734 82.3437 92.4968 79.6122 93.4073C79.5454 93.428 79.4786 93.4418 79.4094 93.4441C79.3887 93.4441 79.3656 93.4441 79.3449 93.4441V93.4488Z" fill="#FF767D"/>
<path d="M75.6152 79.0653C75.5829 79.0976 72.7224 82.0549 68.2161 86.5267C67.9395 86.8009 67.4969 86.8079 67.2134 86.5428C66.9138 86.2616 66.9092 85.7891 67.1996 85.5009C71.6967 81.0453 74.548 78.0949 74.5803 78.0626C74.8569 77.7745 75.3132 77.7653 75.5991 78.0419C75.8872 78.3231 75.8918 78.7749 75.6152 79.0653Z" fill="#FF767D"/>
<path d="M68.5782 86.121C67.4787 87.3588 61.9813 93.4509 59.4619 93.4509C58.5468 93.4509 58.042 92.9922 57.8138 92.6257C57.4473 92.031 57.4012 91.2519 57.5395 90.3806C55.8914 92.3053 54.0128 93.4048 52.5468 93.4048C52.4085 93.4048 52.3186 93.3587 52.1803 93.3587C51.1731 93.2665 50.394 92.764 49.8431 91.9388C49.2484 91.0237 48.7436 89.2351 49.7509 86.0288C49.8892 85.524 50.0713 85.0215 50.3018 84.5628C49.5688 85.2497 48.8358 86.0287 48.0106 86.8539C47.7363 87.1282 47.2776 87.1282 47.0033 86.8539C46.865 86.7156 46.7751 86.5336 46.7751 86.3492C46.7751 85.6623 52.0881 80.6696 52.9133 79.9366C54.0589 78.791 55.5249 77.8759 57.2191 77.8759C59.4181 77.8759 60.6997 79.8467 60.838 81.8152L62.5783 77.922C62.7166 77.6016 63.173 77.4172 63.4934 77.6016C63.8599 77.7399 64.042 78.1525 63.8599 78.5167L60.241 86.7157C59.4619 88.32 58.5468 91.0675 59.0493 91.8466C59.0954 91.8927 59.1415 92.0287 59.4619 92.0287C60.8357 92.0287 64.9594 87.9973 67.4787 85.1575C67.753 84.8832 68.2117 84.8371 68.486 85.1114C68.8064 85.3857 68.8064 85.8444 68.5782 86.1187V86.121ZM52.5445 91.9388C54.1027 91.9388 57.3551 89.6477 59.0493 84.655C59.0493 84.5628 59.9206 82.0434 59.0032 80.4852C58.4984 79.6139 57.8576 79.3396 57.1707 79.3396C56.0712 79.3396 54.9717 80.2109 54.8334 80.2547C53.2752 81.5363 51.9475 83.9197 51.1223 86.4852C50.4815 88.5459 50.4354 90.1962 51.0301 91.1574C51.3505 91.6161 51.9452 91.9365 52.5422 91.9365L52.5445 91.9388Z" fill="#1EB2F4"/>
<path d="M203.26 29.1519H115.402C113.874 29.1519 112.636 30.3902 112.636 31.9179V100.808C112.636 102.336 113.874 103.574 115.402 103.574H203.26C204.787 103.574 206.026 102.336 206.026 100.808V31.9179C206.026 30.3902 204.787 29.1519 203.26 29.1519Z" fill="white"/>
<path d="M204.334 103.786H114.326C113.277 103.786 112.422 102.933 112.422 101.882V30.8439C112.422 29.7951 113.275 28.9399 114.326 28.9399H204.334C205.383 28.9399 206.238 29.7928 206.238 30.8439V101.882C206.238 102.931 205.385 103.786 204.334 103.786ZM114.328 29.3641C113.512 29.3641 112.848 30.0279 112.848 30.8439V101.882C112.848 102.698 113.512 103.362 114.328 103.362H204.337C205.152 103.362 205.816 102.698 205.816 101.882V30.8439C205.816 30.0279 205.152 29.3641 204.337 29.3641H114.328Z" fill="#83BBFF"/>
<path d="M160.205 61.7526C160.504 62.0292 160.516 62.4994 160.228 62.7875C159.594 63.4237 158.928 64.0921 158.222 64.7859C153.854 69.0825 150.62 69.6772 149.171 69.6772C148.659 69.6772 148.366 69.6035 148.327 69.5942C147.944 69.4882 147.716 69.0917 147.82 68.7091C147.926 68.3265 148.313 68.0983 148.698 68.1974C148.772 68.2135 152.01 68.8774 157.211 63.7602C157.909 63.0733 158.575 62.4095 159.207 61.7733C159.481 61.4967 159.921 61.4898 160.207 61.7526H160.205Z" fill="#1D1D1B"/>
<path d="M170.31 53.3371C170.31 53.3371 169.346 53.6044 167.841 54.9967C166.922 55.8495 165.739 57.0481 164.372 58.4403C163.635 59.1872 162.837 60.0008 161.977 60.8652C161.703 61.1418 161.256 61.1511 160.97 60.8837C160.673 60.6048 160.666 60.1346 160.954 59.8441C161.811 58.9843 162.609 58.173 163.344 57.4262C164.725 56.0247 165.919 54.81 166.866 53.9364C168.655 52.2768 169.853 51.9632 169.98 51.9287C170.368 51.8388 170.755 52.0762 170.849 52.4635C170.939 52.8553 170.697 53.2426 170.31 53.3324V53.3371Z" fill="#1D1D1B"/>
<path d="M164.381 52.1566C164.321 52.1566 164.259 52.1428 164.201 52.1151C163.996 52.016 163.911 51.7717 164.01 51.5666C164.072 51.4375 165.52 48.5078 168.851 48.5078C168.952 48.5078 169.056 48.5101 169.16 48.5147C169.385 48.5263 169.561 48.7222 169.549 48.9481C169.538 49.1762 169.335 49.3537 169.116 49.3376C166.138 49.1716 164.808 51.8109 164.752 51.9216C164.681 52.0691 164.533 52.1544 164.381 52.1544V52.1566Z" fill="#ED1C24"/>
<path d="M168.023 51.073C167.926 51.073 167.832 51.0407 167.754 50.9716C167.581 50.8217 167.562 50.5613 167.712 50.3907L168.968 48.9408L167.518 47.6846C167.346 47.5348 167.327 47.2743 167.477 47.1037C167.627 46.9309 167.887 46.9124 168.058 47.0623L169.819 48.5881C169.992 48.738 170.01 48.9984 169.86 49.169L168.334 50.9301C168.254 51.0246 168.138 51.073 168.023 51.073Z" fill="#ED1C24"/>
<path d="M120.747 36.4939C120.747 37.0264 120.443 37.3698 119.987 37.5266C120.551 37.628 120.906 37.9968 120.906 38.5869C120.906 39.449 120.266 39.8754 119.295 39.8754C119.042 39.8754 118.73 39.8685 118.369 39.8639C118.223 39.857 118.101 39.7371 118.101 39.5919V35.6918C118.101 35.5466 118.221 35.4198 118.369 35.4198C118.915 35.4083 119.231 35.4014 119.321 35.4014C120.316 35.4014 120.747 35.8324 120.747 36.4986V36.4939ZM118.643 37.356H119.353C119.841 37.356 120.208 37.0771 120.208 36.6138C120.208 36.1505 119.911 35.9039 119.307 35.9039C119.18 35.9039 118.959 35.9108 118.641 35.9223V37.356H118.643ZM118.643 37.8309V39.3407C118.839 39.3591 119.067 39.366 119.327 39.366C119.994 39.366 120.367 39.0871 120.367 38.5547C120.367 38.0914 119.998 37.8309 119.36 37.8309H118.643Z" fill="black"/>
<path d="M122.999 39.659C123.025 39.9702 122.467 39.9702 122.492 39.659V37.5085H121.688C121.377 37.5338 121.377 36.976 121.688 37.0013H123.806C124.117 36.976 124.117 37.5338 123.806 37.5085H123.002V39.659H122.999Z" fill="black"/>
<path d="M124.408 38.4279C124.408 37.9968 124.548 37.6418 124.832 37.356C125.111 37.0771 125.479 36.9365 125.929 36.9365C126.378 36.9365 126.747 37.0771 127.033 37.356C127.312 37.6418 127.453 37.9968 127.453 38.4279C127.453 38.8589 127.312 39.2138 127.033 39.4928C126.747 39.7786 126.381 39.9169 125.929 39.9169C125.477 39.9169 125.111 39.7763 124.832 39.4928C124.546 39.2138 124.408 38.8589 124.408 38.4279ZM125.929 39.442C126.505 39.442 126.911 39.0295 126.911 38.4279C126.911 37.8263 126.505 37.4136 125.929 37.4136C125.353 37.4136 124.947 37.8263 124.947 38.4279C124.947 39.0295 125.353 39.442 125.929 39.442Z" fill="black"/>
<path d="M128.684 40.8828C128.709 41.194 128.151 41.194 128.176 40.8828V37.2109C128.151 36.8998 128.709 36.8998 128.684 37.2109V37.3377C128.886 37.1026 129.267 36.939 129.654 36.939C130.041 36.939 130.378 37.0727 130.618 37.3377C130.853 37.6097 130.972 37.96 130.972 38.3842C130.972 38.8083 130.832 39.1886 130.56 39.4813C130.288 39.7741 129.926 39.9193 129.488 39.9193C129.152 39.9193 128.88 39.8548 128.684 39.7234V40.8851V40.8828ZM128.684 39.2209C128.905 39.3661 129.158 39.4422 129.444 39.4422C130.046 39.4422 130.433 39.0111 130.433 38.4026C130.433 37.7941 130.085 37.4138 129.506 37.4138C129.17 37.4138 128.891 37.5474 128.681 37.8079V39.2232L128.684 39.2209Z" fill="black"/>
<path d="M131.512 38.4279C131.512 37.9968 131.65 37.6418 131.936 37.356C132.222 37.0702 132.584 36.9365 133.033 36.9365C133.483 36.9365 133.851 37.0771 134.137 37.356C134.416 37.6418 134.557 37.9968 134.557 38.4279C134.557 38.8589 134.416 39.2138 134.137 39.4928C133.851 39.7786 133.485 39.9169 133.033 39.9169C132.581 39.9169 132.215 39.7763 131.936 39.4928C131.65 39.2138 131.512 38.8589 131.512 38.4279ZM133.033 39.442C133.609 39.442 134.015 39.0295 134.015 38.4279C134.015 37.8263 133.609 37.4136 133.033 37.4136C132.457 37.4136 132.051 37.8263 132.051 38.4279C132.051 39.0295 132.457 39.442 133.033 39.442Z" fill="black"/>
<path d="M137.88 38.384C137.874 38.4854 137.765 38.5869 137.664 38.5869H135.661C135.705 39.1194 136.092 39.442 136.657 39.442C136.924 39.442 137.157 39.3844 137.355 39.2715C137.399 39.2461 137.449 39.2323 137.496 39.2323C137.56 39.2323 137.615 39.2576 137.666 39.3153C137.691 39.3475 137.705 39.3844 137.705 39.4305C137.705 39.5135 137.68 39.5688 137.629 39.6011C137.332 39.8108 136.995 39.9192 136.62 39.9192C136.156 39.9192 135.79 39.7855 135.511 39.5135C135.232 39.2415 135.091 38.8796 135.091 38.4279C135.091 37.9761 135.225 37.6418 135.486 37.356C135.746 37.0771 136.108 36.9365 136.564 36.9365C136.938 36.9365 137.256 37.0563 137.509 37.2984C137.763 37.545 137.89 37.8562 137.89 38.2434C137.89 38.308 137.89 38.3518 137.883 38.384H137.88ZM137.36 38.1743C137.334 37.6995 137.023 37.4136 136.534 37.4136C136.046 37.4136 135.684 37.7248 135.628 38.1743H137.36Z" fill="black"/>
<path d="M141.361 37.4138C141.094 37.4138 140.865 37.5083 140.676 37.6996C140.481 37.8955 140.384 38.1376 140.384 38.428C140.384 38.7184 140.485 38.9789 140.681 39.1633C140.877 39.3477 141.119 39.4422 141.409 39.4422C141.645 39.4422 141.847 39.3777 142.018 39.2463C142.087 39.1887 142.152 39.1633 142.214 39.1633C142.272 39.1633 142.315 39.1817 142.359 39.2278C142.403 39.2716 142.428 39.3223 142.428 39.3869C142.428 39.456 142.403 39.5136 142.359 39.5528C142.087 39.7995 141.758 39.9216 141.37 39.9216C140.914 39.9216 140.545 39.781 140.266 39.509C139.98 39.237 139.842 38.8821 139.842 38.4303C139.842 38.0108 139.98 37.6558 140.255 37.37C140.527 37.0842 140.877 36.939 141.287 36.939C141.642 36.939 141.953 37.015 142.214 37.1602C142.304 37.204 142.348 37.2801 142.348 37.3769C142.348 37.4207 142.336 37.4599 142.315 37.4921C142.272 37.5682 142.2 37.6074 142.106 37.6074C142.062 37.6074 142.016 37.6005 141.986 37.582C141.776 37.4737 141.566 37.4161 141.359 37.4161L141.361 37.4138Z" fill="black"/>
<path d="M146.462 37.7043C146.462 38.0339 146.296 38.2621 145.962 38.382C146.342 38.4327 146.559 38.7116 146.559 39.0597C146.559 39.5852 146.063 39.9148 145.346 39.9148C144.948 39.9148 144.623 39.8249 144.364 39.6543C144.295 39.6036 144.256 39.5391 144.256 39.4584C144.256 39.4215 144.27 39.3754 144.3 39.3247C144.344 39.2556 144.408 39.2233 144.491 39.2233C144.535 39.2233 144.581 39.2348 144.625 39.2625C144.853 39.3962 145.07 39.4584 145.273 39.4584C145.711 39.4584 146.022 39.2671 146.022 38.9882C146.022 38.7531 145.812 38.6194 145.464 38.6194H145.196C145.077 38.6194 144.98 38.5295 144.98 38.4096C144.98 38.3013 145.074 38.2068 145.196 38.2068H145.432C145.717 38.2068 145.927 38.0293 145.927 37.8011C145.927 37.5476 145.692 37.3885 145.319 37.3885C145.097 37.3885 144.881 37.4392 144.666 37.5406C144.634 37.5591 144.59 37.566 144.546 37.566C144.463 37.566 144.401 37.5268 144.355 37.4577C144.337 37.4254 144.33 37.3931 144.33 37.3562C144.33 37.2732 144.374 37.211 144.463 37.1534C144.717 37.0082 145.028 36.9321 145.395 36.9321C146.079 36.9321 146.467 37.2248 146.467 37.6997L146.462 37.7043Z" fill="black"/>
<path d="M148.204 38.1097C148.509 38.1097 148.744 38.172 148.914 38.2942C148.914 37.6856 148.795 37.3929 148.267 37.3929C148.082 37.3929 147.893 37.4298 147.695 37.5082C147.663 37.5197 147.633 37.5266 147.601 37.5266C147.506 37.5266 147.442 37.4828 147.405 37.3998C147.393 37.3676 147.386 37.3422 147.386 37.3099C147.386 37.2085 147.43 37.1394 147.513 37.1071C147.785 36.9918 148.052 36.9365 148.299 36.9365C149.085 36.9365 149.396 37.3237 149.396 38.1028V39.6749C149.396 39.7947 149.288 39.8961 149.154 39.8961C149.02 39.8961 148.912 39.7947 148.912 39.6749V39.4835C148.691 39.7555 148.387 39.8961 147.999 39.8961C147.474 39.8961 147.123 39.5527 147.123 39.0157C147.123 38.4786 147.568 38.1097 148.202 38.1097H148.204ZM148.917 38.7137C148.739 38.5869 148.523 38.5223 148.276 38.5223C147.939 38.5223 147.667 38.6883 147.667 38.9926C147.667 39.2715 147.859 39.442 148.181 39.442C148.467 39.442 148.707 39.3222 148.917 39.0733V38.7114V38.7137Z" fill="black"/>
<path d="M150.756 39.6589C150.782 39.9701 150.224 39.9701 150.249 39.6589V37.211C150.224 36.8998 150.782 36.8998 150.756 37.211V39.6589ZM151.035 38.5801C150.952 38.4718 150.952 38.3081 151.035 38.2113L151.994 37.1003C152.146 36.9229 152.331 36.9413 152.418 37.0358C152.506 37.1303 152.501 37.2778 152.418 37.3585L151.498 38.3612L152.513 39.4653C152.563 39.5229 152.589 39.5851 152.589 39.6566C152.589 39.7833 152.494 39.8986 152.335 39.8986C152.241 39.8986 152.158 39.8548 152.089 39.7718L151.035 38.5801Z" fill="black"/>
<path d="M153.813 40.8828C153.838 41.194 153.28 41.194 153.305 40.8828V37.2109C153.28 36.8998 153.838 36.8998 153.813 37.2109V37.3377C154.015 37.1026 154.396 36.939 154.783 36.939C155.17 36.939 155.507 37.0727 155.746 37.3377C155.982 37.6097 156.101 37.96 156.101 38.3842C156.101 38.8083 155.963 39.1886 155.689 39.4813C155.417 39.7741 155.055 39.9193 154.617 39.9193C154.28 39.9193 154.008 39.8548 153.813 39.7234V40.8851V40.8828ZM153.813 39.2209C154.034 39.3661 154.287 39.4422 154.573 39.4422C155.175 39.4422 155.562 39.0111 155.562 38.4026C155.562 37.7941 155.214 37.4138 154.635 37.4138C154.299 37.4138 154.02 37.5474 153.81 37.8079V39.2232L153.813 39.2209Z" fill="black"/>
<path d="M157.828 38.8154C157.835 38.8339 157.893 38.9814 157.999 39.2465C158.038 39.1059 158.082 38.9606 158.132 38.8085L158.734 37.1651C158.778 37.0314 158.861 36.9691 158.981 36.9691C159.158 36.9691 159.259 37.0705 159.259 37.2158C159.259 37.248 159.253 37.2849 159.234 37.3356L158.227 39.8527C158.031 40.3483 157.853 40.6825 157.694 40.86C157.535 41.0306 157.346 41.1204 157.137 41.1204C156.8 41.1204 156.629 41.019 156.629 40.8231C156.629 40.6894 156.699 40.6203 156.832 40.6203C156.876 40.6203 157.003 40.6525 157.079 40.6525C157.314 40.6525 157.492 40.4612 157.687 40.0048L157.752 39.8527L156.553 37.354C156.535 37.3218 156.528 37.278 156.528 37.2342C156.528 37.0889 156.636 36.9668 156.807 36.9668C156.915 36.9668 156.998 37.0175 157.049 37.1258L157.828 38.8131V38.8154Z" fill="black"/>
<path d="M160.377 37.4758V39.6587C160.403 39.9698 159.845 39.9698 159.87 39.6587V37.243C159.87 37.1093 159.979 37.001 160.112 37.001H161.438C161.572 37.001 161.68 37.1093 161.68 37.2361C161.68 37.3629 161.572 37.4781 161.438 37.4781H160.377V37.4758Z" fill="black"/>
<path d="M164.582 39.6588C164.607 39.97 164.049 39.97 164.075 39.6588V37.5083H163.072L163.04 37.99C162.957 39.3154 162.558 39.8986 162.081 39.8986C161.929 39.8986 161.827 39.8087 161.827 39.6634C161.827 39.5436 161.896 39.4606 162.03 39.403C162.175 39.3454 162.291 39.2071 162.374 38.9835C162.457 38.7622 162.514 38.4003 162.544 37.8863L162.581 37.2386C162.588 37.1049 162.701 36.9966 162.835 36.9966H164.337C164.471 36.9966 164.579 37.1049 164.579 37.2386V39.6542L164.582 39.6588Z" fill="black"/>
<path d="M168.097 38.3843C168.09 38.4857 167.982 38.5871 167.88 38.5871H165.875C165.919 39.1196 166.306 39.4423 166.871 39.4423C167.138 39.4423 167.371 39.3847 167.569 39.2717C167.613 39.2464 167.664 39.2326 167.71 39.2326C167.772 39.2326 167.83 39.2579 167.88 39.3155C167.906 39.3478 167.917 39.3847 167.917 39.4308C167.917 39.5137 167.892 39.5691 167.841 39.6013C167.544 39.8111 167.207 39.9194 166.834 39.9194C166.371 39.9194 166.004 39.7858 165.723 39.5138C165.444 39.2418 165.303 38.8799 165.303 38.4281C165.303 37.9763 165.437 37.6421 165.697 37.3562C165.958 37.0773 166.32 36.9368 166.776 36.9368C167.15 36.9368 167.468 37.0566 167.721 37.2986C167.975 37.5453 168.102 37.8565 168.102 38.2437C168.102 38.3082 168.102 38.352 168.095 38.3843H168.097ZM165.806 35.9871C165.806 35.8096 165.933 35.6943 166.103 35.6943C166.248 35.6943 166.382 35.8142 166.382 35.9871C166.382 36.183 166.255 36.3052 166.103 36.3052C165.933 36.3052 165.806 36.1853 165.806 35.9871ZM167.576 38.1745C167.551 37.6997 167.24 37.4139 166.751 37.4139C166.262 37.4139 165.9 37.7251 165.845 38.1745H167.576ZM167.094 35.9871C167.094 35.8165 167.228 35.6943 167.399 35.6943C167.544 35.6943 167.677 35.8142 167.677 35.9871C167.677 36.183 167.551 36.3052 167.399 36.3052C167.228 36.3052 167.094 36.1853 167.094 35.9871Z" fill="black"/>
<path d="M171.425 39.6593C171.451 39.9705 170.893 39.9705 170.918 39.6593V38.6497H169.332V39.6593C169.358 39.9705 168.8 39.9705 168.825 39.6593V37.2114C168.8 36.9002 169.358 36.9002 169.332 37.2114V38.1749H170.918V37.2114C170.893 36.9002 171.451 36.9002 171.425 37.2114V39.6593Z" fill="black"/>
<path d="M174.941 39.6593C174.966 39.9705 174.408 39.9705 174.433 39.6593V38.6497H172.848V39.6593C172.873 39.9705 172.315 39.9705 172.34 39.6593V37.2114C172.315 36.9002 172.873 36.9002 172.848 37.2114V38.1749H174.433V37.2114C174.408 36.9002 174.966 36.9002 174.941 37.2114V39.6593Z" fill="black"/>
<path d="M176.361 37.8561H176.831C177.642 37.8561 177.96 38.2618 177.96 38.838C177.96 39.4143 177.605 39.8522 176.773 39.8522H176.095C175.962 39.8522 175.853 39.7438 175.853 39.6102V37.206C175.828 36.8949 176.386 36.8949 176.361 37.206V37.8538V37.8561ZM176.361 39.3797H176.729C177.218 39.3797 177.421 39.2091 177.421 38.8587C177.421 38.5084 177.193 38.3332 176.736 38.3332H176.363V39.3797H176.361ZM179.011 39.6586C179.037 39.9697 178.479 39.9697 178.504 39.6586V37.2107C178.479 36.8995 179.037 36.8995 179.011 37.2107V39.6586Z" fill="black"/>
<path d="M180.434 37.8196V39.659C180.459 39.9702 179.901 39.9702 179.926 39.659V37.2111C179.926 37.0775 180.042 36.9691 180.173 36.9691C180.305 36.9691 180.376 37.0337 180.521 37.2158L181.485 38.4144L182.404 37.2019C182.52 37.0429 182.626 36.9668 182.727 36.9668C182.861 36.9668 182.974 37.0751 182.974 37.2088V39.6567C182.999 39.9679 182.441 39.9679 182.467 39.6567V37.8173L181.662 38.8385C181.561 38.9722 181.369 38.9721 181.268 38.8454L180.431 37.8173L180.434 37.8196Z" fill="black"/>
<path d="M117.705 45.758C117.705 45.327 117.843 44.972 118.129 44.6861C118.414 44.4003 118.776 44.2666 119.226 44.2666C119.675 44.2666 120.044 44.4072 120.33 44.6861C120.609 44.972 120.749 45.327 120.749 45.758C120.749 46.189 120.609 46.544 120.33 46.8229C120.044 47.1087 119.678 47.247 119.226 47.247C118.774 47.247 118.408 47.1064 118.129 46.8229C117.843 46.544 117.705 46.189 117.705 45.758ZM119.226 46.7722C119.802 46.7722 120.208 46.3596 120.208 45.758C120.208 45.1564 119.802 44.7438 119.226 44.7438C118.65 44.7438 118.244 45.1564 118.244 45.758C118.244 46.3596 118.65 46.7722 119.226 46.7722Z" fill="black"/>
<path d="M121.978 46.989C122.003 47.3001 121.446 47.3001 121.471 46.989V44.5411C121.446 44.2299 122.003 44.2299 121.978 44.5411V46.989ZM122.257 45.9102C122.174 45.8019 122.174 45.6382 122.257 45.5414L123.214 44.4304C123.366 44.2529 123.55 44.2714 123.638 44.3659C123.728 44.4604 123.721 44.6079 123.638 44.6886L122.718 45.6913L123.732 46.7954C123.783 46.853 123.808 46.9152 123.808 46.9867C123.808 47.1134 123.714 47.2287 123.555 47.2287C123.46 47.2287 123.377 47.1849 123.308 47.1019L122.255 45.9102H122.257Z" fill="black"/>
<path d="M124.338 45.758C124.338 45.327 124.477 44.972 124.763 44.6861C125.041 44.4072 125.41 44.2666 125.86 44.2666C126.309 44.2666 126.678 44.4072 126.964 44.6861C127.243 44.972 127.383 45.327 127.383 45.758C127.383 46.189 127.243 46.544 126.964 46.8229C126.678 47.1087 126.312 47.247 125.86 47.247C125.408 47.247 125.041 47.1064 124.763 46.8229C124.477 46.544 124.338 46.189 124.338 45.758ZM125.86 46.7722C126.436 46.7722 126.842 46.3596 126.842 45.758C126.842 45.1564 126.436 44.7438 125.86 44.7438C125.283 44.7438 124.878 45.1564 124.878 45.758C124.878 46.3596 125.283 46.7722 125.86 46.7722Z" fill="black"/>
<path d="M130.707 46.9889C130.732 47.3001 130.175 47.3001 130.2 46.9889V45.9793H128.614V46.9889C128.64 47.3001 128.082 47.3001 128.107 46.9889V44.541C128.082 44.2298 128.64 44.2298 128.614 44.541V45.5045H130.2V44.541C130.175 44.2298 130.732 44.2298 130.707 44.541V46.9889Z" fill="black"/>
<path d="M133.256 44.5386C133.231 44.2274 133.789 44.2274 133.763 44.5386V46.9865C133.789 47.2976 133.231 47.2976 133.256 46.9865V46.0737C133.035 46.2143 132.775 46.2834 132.463 46.2834C131.786 46.2834 131.449 45.9215 131.449 45.1931V44.5409C131.449 44.4072 131.564 44.2988 131.721 44.2988C131.878 44.2988 131.989 44.4072 131.989 44.5409V45.1378C131.989 45.5873 132.191 45.8109 132.604 45.8109C132.871 45.8109 133.086 45.7533 133.256 45.6334V44.5432V44.5386Z" fill="black"/>
<path d="M135.552 45.4399C135.857 45.4399 136.092 45.5021 136.262 45.6243C136.262 45.0158 136.143 44.723 135.615 44.723C135.43 44.723 135.241 44.7599 135.043 44.8382C135.011 44.8498 134.981 44.8567 134.949 44.8567C134.854 44.8567 134.789 44.8129 134.753 44.7299C134.741 44.6976 134.734 44.6723 134.734 44.64C134.734 44.5386 134.778 44.4694 134.861 44.4372C135.133 44.3219 135.4 44.2666 135.647 44.2666C136.433 44.2666 136.744 44.6539 136.744 45.433V47.005C136.744 47.1249 136.636 47.2263 136.502 47.2263C136.368 47.2263 136.26 47.1249 136.26 47.005V46.8137C136.039 47.0856 135.735 47.2263 135.347 47.2263C134.822 47.2263 134.471 46.8828 134.471 46.3457C134.471 45.8087 134.916 45.4399 135.55 45.4399H135.552ZM136.262 46.0438C136.085 45.917 135.868 45.8525 135.622 45.8525C135.285 45.8525 135.013 46.0185 135.013 46.3227C135.013 46.6016 135.204 46.7722 135.527 46.7722C135.813 46.7722 136.053 46.6523 136.262 46.4034V46.0415V46.0438Z" fill="black"/>
<path d="M140.195 46.9889C140.22 47.3001 139.662 47.3001 139.688 46.9889V45.9793H138.102V46.9889C138.127 47.3001 137.569 47.3001 137.595 46.9889V44.541C137.569 44.2298 138.127 44.2298 138.102 44.541V45.5045H139.688V44.541C139.662 44.2298 140.22 44.2298 140.195 44.541V46.9889Z" fill="black"/>
<path d="M143.772 46.9888C143.797 47.2999 143.239 47.2999 143.265 46.9888V45.1056L141.723 47.0026C141.596 47.1547 141.476 47.2308 141.361 47.2308C141.216 47.2308 141.107 47.1109 141.107 46.9772V44.5409C141.082 44.2297 141.64 44.2297 141.614 44.5409V46.431L143.157 44.5339C143.29 44.3749 143.41 44.2988 143.518 44.2988C143.664 44.2988 143.772 44.4256 143.772 44.5593V46.9888Z" fill="black"/>
<path d="M147.285 45.7142C147.278 45.8156 147.17 45.917 147.068 45.917H145.065C145.109 46.4495 145.496 46.7722 146.061 46.7722C146.328 46.7722 146.561 46.7146 146.759 46.6016C146.803 46.5763 146.854 46.5624 146.9 46.5624C146.964 46.5624 147.02 46.5878 147.07 46.6454C147.096 46.6777 147.11 46.7145 147.11 46.7606C147.11 46.8436 147.084 46.8989 147.034 46.9312C146.736 47.141 146.4 47.2493 146.024 47.2493C145.561 47.2493 145.194 47.1156 144.915 46.8437C144.636 46.5717 144.496 46.2098 144.496 45.758C144.496 45.3062 144.629 44.972 144.89 44.6861C145.15 44.4072 145.512 44.2666 145.969 44.2666C146.342 44.2666 146.66 44.3865 146.914 44.6285C147.167 44.8751 147.294 45.1863 147.294 45.5736C147.294 45.6381 147.294 45.6819 147.287 45.7142H147.285ZM146.766 45.5044C146.741 45.0296 146.43 44.7438 145.941 44.7438C145.452 44.7438 145.09 45.0549 145.035 45.5044H146.766Z" fill="black"/>
<path d="M148.523 45.1497V46.9891C148.548 47.3003 147.99 47.3003 148.016 46.9891V44.5412C148.016 44.4075 148.131 44.2992 148.262 44.2992C148.394 44.2992 148.465 44.3637 148.61 44.5458L149.574 45.7444L150.494 44.532C150.609 44.3729 150.715 44.2969 150.816 44.2969C150.95 44.2969 151.063 44.4052 151.063 44.5389V46.9868C151.088 47.298 150.531 47.298 150.556 46.9868V45.1474L149.751 46.1685C149.65 46.3022 149.459 46.3022 149.357 46.1754L148.521 45.1474L148.523 45.1497Z" fill="black"/>
<path d="M205.775 77.4287H112.887V77.7099H205.775V77.4287Z" fill="#B4D2FC"/>
<path d="M205.775 93.3564H112.887V93.6377H205.775V93.3564Z" fill="#B4D2FC"/>
<path d="M183.133 103.505H132.814V103.787H183.133V103.505Z" fill="#B4D2FC"/>
<path d="M129.036 78.085C128.976 78.085 128.914 78.0711 128.856 78.0434C128.651 77.9443 128.566 77.7 128.665 77.4949C128.73 77.3635 130.251 74.2678 133.815 74.4453C134.04 74.4569 134.216 74.6528 134.204 74.8787C134.193 75.1068 133.999 75.282 133.771 75.2682C130.8 75.1091 129.463 77.7415 129.407 77.8522C129.336 77.9997 129.188 78.085 129.036 78.085Z" fill="#ED1C24"/>
<path d="M132.678 77.0017C132.581 77.0017 132.487 76.9695 132.409 76.9003C132.236 76.7505 132.217 76.49 132.367 76.3194L133.623 74.8696L132.174 73.6133C132.001 73.4635 131.982 73.2031 132.132 73.0325C132.282 72.8596 132.542 72.8435 132.713 72.991L134.474 74.5169C134.647 74.6667 134.665 74.9272 134.515 75.0978L132.989 76.8588C132.909 76.9533 132.794 77.0017 132.678 77.0017Z" fill="#ED1C24"/>
<path d="M157.683 93.3765C157.66 93.3765 157.637 93.3765 157.614 93.3742C157.031 93.3188 156.556 93.01 156.277 92.5052C154.774 89.7829 159.513 80.1019 160.479 78.1887C160.659 77.8338 161.092 77.6931 161.447 77.8706C161.802 78.0504 161.945 78.4837 161.765 78.8387C159.508 83.3151 156.703 90.297 157.538 91.809C157.577 91.8805 157.611 91.9174 157.704 91.9335C159.833 91.763 164.301 86.2102 166.663 82.6881L168.823 78.1611C168.994 77.8015 169.425 77.6493 169.784 77.8199C170.144 77.9905 170.296 78.4215 170.125 78.7811L167.943 83.3566C167.929 83.3865 167.91 83.4188 167.892 83.4464C167.223 84.4491 161.246 93.2405 157.708 93.3765C157.699 93.3765 157.69 93.3765 157.681 93.3765H157.683Z" fill="#1EB2F4"/>
<path d="M165.324 93.3784C164.794 93.3784 164.352 93.1479 164.077 92.7261C162.86 90.8544 165.735 84.601 166.645 82.7293C166.82 82.372 167.251 82.2245 167.608 82.3951C167.966 82.5702 168.116 83.0013 167.943 83.3585C166.069 87.2125 164.815 91.2509 165.274 91.9194C167.355 91.0988 171.728 86.7239 173.272 85.0689C173.544 84.7784 174 84.7623 174.291 85.0343C174.581 85.3063 174.597 85.7627 174.325 86.0531C173.719 86.7031 168.323 92.4265 165.592 93.337C165.525 93.3577 165.458 93.3715 165.389 93.3738C165.368 93.3738 165.345 93.3738 165.324 93.3738V93.3784Z" fill="#1EB2F4"/>
<path d="M161.595 78.993C161.563 79.0253 158.702 81.9826 154.196 86.4544C153.919 86.7287 153.477 86.7356 153.193 86.4705C152.893 86.1893 152.889 85.7168 153.179 85.4286C157.676 80.973 160.528 78.0226 160.56 77.9903C160.837 77.7022 161.293 77.693 161.579 77.9696C161.867 78.2508 161.871 78.7026 161.595 78.993Z" fill="#1EB2F4"/>
<path d="M194.116 86.0492C193.017 87.287 187.519 93.3791 185 93.3791C184.085 93.3791 183.58 92.9204 183.352 92.5539C182.985 91.9592 182.939 91.1801 183.077 90.3088C181.429 92.2335 179.551 93.333 178.085 93.333C177.946 93.333 177.857 93.287 177.718 93.287C176.711 93.1948 175.932 92.6922 175.381 91.867C174.786 90.9519 174.281 89.1633 175.289 85.957C175.427 85.4522 175.609 84.9497 175.84 84.491C175.107 85.1779 174.344 86.123 173.519 86.9482C173.244 87.2225 172.813 87.0888 172.541 86.7822C172.248 86.5263 172.272 86.1022 172.391 85.9616C173.878 84.2351 177.626 80.5978 178.451 79.8649C179.597 78.7193 181.063 77.8041 182.757 77.8041C184.956 77.8041 186.238 79.7749 186.376 81.7434L188.116 77.8503C188.254 77.5299 188.711 77.3454 189.031 77.5298C189.398 77.6681 189.58 78.0807 189.398 78.4449L185.779 86.6439C185 88.2482 184.085 90.9958 184.587 91.7749C184.633 91.821 184.679 91.957 185 91.957C186.374 91.957 190.497 87.9255 193.017 85.0857C193.291 84.8114 193.75 84.7653 194.024 85.0396C194.344 85.3139 194.344 85.7726 194.116 86.0469V86.0492ZM178.085 91.867C179.643 91.867 182.895 89.5759 184.59 84.5832C184.59 84.491 185.461 81.9716 184.543 80.4134C184.039 79.5421 183.398 79.2678 182.711 79.2678C181.611 79.2678 180.512 80.1391 180.374 80.1829C178.815 81.4645 177.488 83.8479 176.663 86.4134C176.022 88.4741 175.976 90.1245 176.57 91.0857C176.891 91.5444 177.485 91.8647 178.082 91.8647L178.085 91.867Z" fill="#FF767D"/>
<path d="M146.195 86.0492C145.095 87.287 139.598 93.3791 137.079 93.3791C136.163 93.3791 135.659 92.9204 135.43 92.5539C135.064 91.9592 135.018 91.1801 135.156 90.3088C133.508 92.2335 131.629 93.333 130.164 93.333C130.025 93.333 129.935 93.287 129.797 93.287C128.79 93.1948 128.011 92.6922 127.46 91.867C126.865 90.9519 126.36 89.1633 127.368 85.957C127.506 85.4522 127.688 84.9497 127.918 84.491C127.185 85.1779 126.422 86.123 125.597 86.9482C125.323 87.2225 124.892 87.0888 124.62 86.7822C124.327 86.5263 124.35 86.1022 124.47 85.9616C125.957 84.2351 129.705 80.5978 130.53 79.8649C131.676 78.7193 133.142 77.8041 134.836 77.8041C137.035 77.8041 138.316 79.7749 138.455 81.7434L140.195 77.8503C140.333 77.5299 140.79 77.3454 141.11 77.5298C141.477 77.6681 141.659 78.0807 141.477 78.4449L137.858 86.6439C137.079 88.2482 136.163 90.9958 136.666 91.7749C136.712 91.821 136.758 91.957 137.079 91.957C138.452 91.957 142.576 87.9255 145.095 85.0857C145.37 84.8114 145.828 84.7653 146.103 85.0396C146.423 85.3139 146.423 85.7726 146.195 86.0469V86.0492ZM130.161 91.867C131.719 91.867 134.972 89.5759 136.666 84.5832C136.666 84.491 137.537 81.9716 136.62 80.4134C136.115 79.5421 135.474 79.2678 134.787 79.2678C133.688 79.2678 132.588 80.1391 132.45 80.1829C130.892 81.4645 129.564 83.8479 128.739 86.4134C128.098 88.4741 128.052 90.1245 128.647 91.0857C128.967 91.5444 129.562 91.8647 130.159 91.8647L130.161 91.867Z" fill="#000089"/>
</svg>
