<svg width="617" height="301" viewBox="0 0 617 301" fill="none" xmlns="http://www.w3.org/2000/svg">
<path d="M3.44093 5.75396C3.44093 8.57995 4.81374 9.83228 7.05042 9.83228C8.45002 9.83228 9.77596 9.39034 11.055 8.53317V1.67564C11.055 1.11312 11.5238 0.671143 12.1131 0.671143C12.7024 0.671143 13.1444 1.11312 13.1444 1.67564V17.1316C13.1444 17.6941 12.6756 18.1629 12.1131 18.1629C11.5506 18.1629 11.055 17.6941 11.055 17.1316V10.4751C9.82953 11.3591 8.30269 11.8011 6.50799 11.8011C3.48779 11.8011 1.35156 10.0801 1.35156 6.32324V1.68234C1.35156 1.11983 1.82033 0.677846 2.40964 0.677846C2.99894 0.677846 3.44093 1.11983 3.44093 1.68234V5.76067V5.75396Z" fill="black"/>
<path d="M22.1118 17.2255C22.2123 18.4309 20.0492 18.4309 20.1497 17.2255V8.89478H17.029C15.8237 8.99523 15.8237 6.83225 17.029 6.926H25.2325C26.4378 6.82555 26.4378 8.98853 25.2325 8.89478H22.1118V17.2255Z" fill="black"/>
<path d="M27.5635 12.4575C27.5635 10.79 28.1059 9.41054 29.2109 8.3056C30.289 7.22744 31.7154 6.68506 33.4632 6.68506C35.2111 6.68506 36.6307 7.22744 37.7357 8.3056C38.8139 9.41054 39.3563 10.79 39.3563 12.4575C39.3563 14.125 38.8139 15.5044 37.7357 16.5826C36.6307 17.6875 35.2044 18.2301 33.4632 18.2301C31.7221 18.2301 30.2957 17.6875 29.2109 16.5826C28.1059 15.5044 27.5635 14.125 27.5635 12.4575ZM33.4632 16.3885C35.6999 16.3885 37.2736 14.7879 37.2736 12.4575C37.2736 10.1271 35.6999 8.52664 33.4632 8.52664C31.2265 8.52664 29.6528 10.1204 29.6528 12.4575C29.6528 14.7946 31.2265 16.3885 33.4632 16.3885Z" fill="black"/>
<path d="M51.3024 16.5626C50.2443 17.6676 48.8715 18.2301 47.2241 18.2301C43.6146 18.2301 41.3779 15.5983 41.3779 11.3526C41.3779 6.56452 42.7507 3.59116 45.483 2.43264C46.1928 2.1112 47.0299 1.89017 48.0143 1.72276C48.9987 1.54864 49.6818 1.35452 50.0501 1.13353C50.3715 0.912539 50.6863 0.791992 50.9608 0.791992C51.2354 0.791992 51.4497 0.912539 51.6238 1.13353C51.7711 1.30764 51.8448 1.50177 51.8448 1.72276C51.8448 2.01741 51.7243 2.26525 51.5033 2.45945C50.9408 2.9751 50.0568 3.34335 48.8514 3.56434C47.646 3.78533 46.7419 4.03317 46.1459 4.30103C44.4517 5.06445 43.541 6.85913 43.3668 9.63154C44.0767 8.08462 45.8982 7.05327 47.7665 7.05327C50.914 7.05327 52.9029 9.21627 52.9029 12.5579C52.9029 14.1316 52.3604 15.4577 51.3024 16.5626ZM47.1705 16.3885C48.2286 16.3885 49.1126 16.0201 49.8023 15.3103C50.4653 14.6004 50.8068 13.7165 50.8068 12.6584C50.8068 10.4218 49.5077 8.90155 47.271 8.90155C45.3089 8.90155 43.8289 10.1806 43.4606 11.7275C43.4606 14.5535 44.9807 16.3952 47.1705 16.3952V16.3885Z" fill="black"/>
<path d="M57.61 10.2475H59.4315C62.579 10.2475 63.8044 11.8213 63.8044 14.058C63.8044 16.2947 62.4316 17.9888 59.2105 17.9888H56.5788C56.0631 17.9888 55.6479 17.5737 55.6479 17.0581V7.74962C55.5475 6.54422 57.7105 6.54422 57.61 7.74962V10.2542V10.2475ZM57.61 16.1473H59.0364C60.9249 16.1473 61.7151 15.4843 61.7151 14.1316C61.7151 12.7788 60.8311 12.0957 59.0632 12.0957H57.61V16.1473ZM67.8827 17.2255C67.9832 18.4309 65.8201 18.4309 65.9139 17.2255V7.74292C65.8134 6.53752 67.9765 6.53752 67.8827 7.74292V17.2255Z" fill="black"/>
<path d="M86.0914 16.5626C85.0334 17.6676 83.6606 18.2301 82.0132 18.2301C78.4037 18.2301 76.167 15.5983 76.167 11.3526C76.167 6.56452 77.5398 3.59116 80.272 2.43264C80.9819 2.1112 81.819 1.89017 82.8034 1.72276C83.7878 1.54864 84.4709 1.35452 84.8392 1.13353C85.1606 0.912539 85.4753 0.791992 85.7499 0.791992C86.0245 0.791992 86.2388 0.912539 86.4129 1.13353C86.5602 1.30764 86.6339 1.50177 86.6339 1.72276C86.6339 2.01741 86.5133 2.26525 86.2923 2.45945C85.7298 2.9751 84.8459 3.34335 83.6405 3.56434C82.4351 3.78533 81.531 4.03317 80.935 4.30103C79.2408 5.06445 78.33 6.85913 78.1559 9.63154C78.8657 8.08462 80.6872 7.05327 82.5556 7.05327C85.703 7.05327 87.6919 9.21627 87.6919 12.5579C87.6919 14.1316 87.1495 15.4577 86.0914 16.5626ZM81.9596 16.3885C83.0177 16.3885 83.9016 16.0201 84.5914 15.3103C85.2544 14.6004 85.5959 13.7165 85.5959 12.6584C85.5959 10.4218 84.2967 8.90155 82.06 8.90155C80.0979 8.90155 78.618 10.1806 78.2497 11.7275C78.2497 14.5535 79.7698 16.3952 81.9596 16.3952V16.3885Z" fill="black"/>
<path d="M94.2945 13.9574C94.3213 14.0311 94.5423 14.5936 94.9575 15.6249C95.1048 15.0824 95.2789 14.5199 95.4732 13.9306L97.8103 7.56877C97.9844 7.05312 98.2991 6.80542 98.7679 6.80542C99.4577 6.80542 99.8461 7.20048 99.8461 7.763C99.8461 7.88354 99.8193 8.03083 99.7456 8.23173L95.8415 17.9888C95.078 19.904 94.395 21.2099 93.7789 21.893C93.1628 22.556 92.4262 22.8975 91.6159 22.8975C90.3167 22.8975 89.6471 22.5024 89.6471 21.7457C89.6471 21.2301 89.9149 20.9621 90.4306 20.9621C90.6047 20.9621 91.0935 21.0827 91.3882 21.0827C92.2989 21.0827 92.9887 20.3461 93.7454 18.5782L93.9932 17.9888L89.3524 8.31217C89.2787 8.19163 89.252 8.01755 89.252 7.84343C89.252 7.28092 89.6671 6.81212 90.3301 6.81212C90.7453 6.81212 91.0667 7.00627 91.2609 7.42816L94.2811 13.9641L94.2945 13.9574Z" fill="black"/>
<path d="M104.172 17.2254C104.273 18.4308 102.11 18.4308 102.204 17.2254V7.74285C102.103 6.53745 104.266 6.53745 104.172 7.74285V17.2254ZM105.257 13.0467C104.936 12.6315 104.936 11.9886 105.257 11.6202L108.967 7.32104C109.557 6.63128 110.266 6.70487 110.615 7.07318C110.956 7.4415 110.936 8.0041 110.615 8.32553L107.052 12.2096L110.983 16.482C111.177 16.703 111.278 16.9508 111.278 17.2187C111.278 17.7076 110.909 18.1495 110.293 18.1495C109.925 18.1495 109.603 17.9754 109.336 17.6606L105.257 13.04V13.0467Z" fill="black"/>
<path d="M120.613 12.2361C122.334 12.5576 123.191 13.4416 123.191 14.868C123.191 17.0043 121.497 18.089 118.108 18.089C117.934 18.089 116.903 18.0623 114.987 18.0154C114.472 17.9886 114.057 17.5467 114.057 17.031V7.88999C114.057 7.37435 114.472 6.93239 114.987 6.9056C116.755 6.85873 117.787 6.83203 118.061 6.83203C121.229 6.83203 122.829 7.78966 122.829 9.68481C122.829 10.984 121.919 12.0218 120.619 12.2428L120.613 12.2361ZM116.019 11.7942H118.497C119.849 11.7942 120.733 11.1312 120.733 10.0731C120.733 9.01504 119.896 8.42576 118.202 8.42576C117.733 8.42576 116.996 8.45262 116.012 8.49949V11.7942H116.019ZM116.019 13.0264V16.4148C117.197 16.4617 117.961 16.4886 118.282 16.4886C120.171 16.4886 121.108 15.8993 121.108 14.7207C121.108 13.5421 120.197 13.0264 118.383 13.0264H116.025H116.019Z" fill="black"/>
<path d="M128.153 10.2475H129.968C133.115 10.2475 134.341 11.8213 134.341 14.058C134.341 16.2947 132.968 17.9888 129.747 17.9888H127.115C126.599 17.9888 126.184 17.5737 126.184 17.0581V7.74962C126.084 6.54422 128.247 6.54422 128.153 7.74962V10.2542V10.2475ZM128.153 16.1473H129.579C131.468 16.1473 132.258 15.4843 132.258 14.1316C132.258 12.7788 131.374 12.0957 129.606 12.0957H128.16V16.1473H128.153ZM138.426 17.2255C138.526 18.4309 136.363 18.4309 136.457 17.2255V7.74292C136.356 6.53752 138.519 6.53752 138.426 7.74292V17.2255Z" fill="black"/>
<path d="M151.591 11.1111L154.317 7.35441C154.585 6.98609 154.879 6.81194 155.201 6.81194C155.79 6.81194 156.132 7.20706 156.132 7.66913C156.132 7.86334 156.085 8.03732 155.958 8.21144L152.958 12.2629L156.152 16.6091C156.272 16.7832 156.346 17.0043 156.346 17.2253C156.346 17.7409 155.978 18.156 155.362 18.156C155.04 18.156 154.746 17.9819 154.478 17.6136L151.504 13.5086L148.484 17.6136C148.216 17.9819 147.922 18.156 147.573 18.156C147.011 18.156 146.689 17.7609 146.689 17.2988C146.689 17.0779 146.763 16.8837 146.884 16.7096L150.105 12.3635L147.178 8.31198C147.058 8.13787 147.004 7.9704 147.004 7.74941C147.004 7.11322 147.962 6.20258 148.873 7.35441L151.578 11.1111H151.591Z" fill="black"/>
<path d="M158.375 12.4575C158.375 10.79 158.917 9.41054 160.022 8.3056C161.127 7.20065 162.527 6.68506 164.275 6.68506C166.023 6.68506 167.442 7.22744 168.547 8.3056C169.625 9.41054 170.168 10.79 170.168 12.4575C170.168 14.125 169.625 15.5044 168.547 16.5826C167.442 17.6875 166.016 18.2301 164.275 18.2301C162.534 18.2301 161.107 17.6875 160.022 16.5826C158.917 15.5044 158.375 14.125 158.375 12.4575ZM164.268 16.3885C166.505 16.3885 168.078 14.7879 168.078 12.4575C168.078 10.1271 166.505 8.52664 164.268 8.52664C162.031 8.52664 160.458 10.1204 160.458 12.4575C160.458 14.7946 162.031 16.3885 164.268 16.3885Z" fill="black"/>
<path d="M174.936 21.9667C175.037 23.1721 172.874 23.1721 172.974 21.9667V7.74302C172.874 6.53762 175.037 6.53762 174.936 7.74302V8.23186C175.72 7.32112 177.2 6.68506 178.693 6.68506C180.186 6.68506 181.492 7.20058 182.43 8.23186C183.341 9.28993 183.809 10.6427 183.809 12.2834C183.809 13.9241 183.267 15.4041 182.209 16.5358C181.151 17.6675 179.751 18.2301 178.057 18.2301C176.758 18.2301 175.7 17.9822 174.936 17.4666V21.96V21.9667ZM174.936 15.5313C175.793 16.0938 176.778 16.3885 177.883 16.3885C180.22 16.3885 181.713 14.721 181.713 12.3571C181.713 9.99319 180.361 8.52664 178.124 8.52664C176.825 8.52664 175.74 9.04213 174.93 10.0466V15.5246L174.936 15.5313Z" fill="black"/>
<path d="M185.892 12.4575C185.892 10.79 186.434 9.41054 187.539 8.3056C188.617 7.22744 190.044 6.68506 191.791 6.68506C193.539 6.68506 194.959 7.22744 196.064 8.3056C197.142 9.41054 197.684 10.79 197.684 12.4575C197.684 14.125 197.142 15.5044 196.064 16.5826C194.959 17.6875 193.532 18.2301 191.791 18.2301C190.05 18.2301 188.624 17.6875 187.539 16.5826C186.434 15.5044 185.892 14.125 185.892 12.4575ZM191.791 16.3885C194.028 16.3885 195.602 14.7879 195.602 12.4575C195.602 10.1271 194.028 8.52664 191.791 8.52664C189.555 8.52664 187.981 10.1204 187.981 12.4575C187.981 14.7946 189.555 16.3885 191.791 16.3885Z" fill="black"/>
<path d="M214.493 17.0514C214.493 17.567 214.077 17.9821 213.562 17.9821H201.427C200.912 17.9821 200.497 17.567 200.497 17.0514V7.74292C200.396 6.53752 202.559 6.53752 202.465 7.74292V16.1473H206.517V7.74292C206.416 6.53752 208.579 6.53752 208.486 7.74292V16.1473H212.537V7.74292C212.437 6.53752 214.6 6.53752 214.506 7.74292V17.0514H214.493Z" fill="black"/>
<path d="M217.293 12.4575C217.293 10.79 217.835 9.41054 218.94 8.3056C220.045 7.20065 221.445 6.68506 223.193 6.68506C224.941 6.68506 226.36 7.22744 227.465 8.3056C228.543 9.41054 229.086 10.79 229.086 12.4575C229.086 14.125 228.543 15.5044 227.465 16.5826C226.36 17.6875 224.934 18.2301 223.193 18.2301C221.452 18.2301 220.025 17.6875 218.94 16.5826C217.835 15.5044 217.293 14.125 217.293 12.4575ZM223.186 16.3885C225.423 16.3885 226.996 14.7879 226.996 12.4575C226.996 10.1271 225.423 8.52664 223.186 8.52664C220.949 8.52664 219.376 10.1204 219.376 12.4575C219.376 14.7946 220.949 16.3885 223.186 16.3885Z" fill="black"/>
<path d="M242.552 8.52664C241.52 8.52664 240.636 8.89489 239.9 9.63152C239.136 10.3949 238.768 11.3258 238.768 12.4575C238.768 13.5892 239.163 14.5937 239.92 15.3103C240.683 16.0201 241.614 16.3885 242.746 16.3885C243.657 16.3885 244.44 16.1406 245.103 15.625C245.371 15.404 245.619 15.3036 245.867 15.3036C246.087 15.3036 246.262 15.3773 246.429 15.5514C246.596 15.7255 246.697 15.9197 246.697 16.1675C246.697 16.4353 246.596 16.6563 246.429 16.8036C245.371 17.7612 244.092 18.2301 242.599 18.2301C240.831 18.2301 239.404 17.6876 238.326 16.6362C237.221 15.5781 236.679 14.2053 236.679 12.4575C236.679 10.8369 237.221 9.45747 238.279 8.35252C239.337 7.24757 240.683 6.68506 242.284 6.68506C243.657 6.68506 244.862 6.97957 245.873 7.54209C246.215 7.7162 246.389 8.01085 246.389 8.37917C246.389 8.55328 246.342 8.70071 246.268 8.82125C246.094 9.11591 245.826 9.26317 245.458 9.26317C245.284 9.26317 245.116 9.23645 244.989 9.16279C244.179 8.7476 243.369 8.52664 242.558 8.52664H242.552Z" fill="black"/>
<path d="M248.397 12.4575C248.397 10.79 248.94 9.41054 250.045 8.3056C251.15 7.20065 252.549 6.68506 254.297 6.68506C256.045 6.68506 257.465 7.22744 258.57 8.3056C259.648 9.41054 260.19 10.79 260.19 12.4575C260.19 14.125 259.648 15.5044 258.57 16.5826C257.465 17.6875 256.038 18.2301 254.297 18.2301C252.556 18.2301 251.13 17.6875 250.045 16.5826C248.94 15.5044 248.397 14.125 248.397 12.4575ZM254.291 16.3885C256.527 16.3885 258.101 14.7879 258.101 12.4575C258.101 10.1271 256.527 8.52664 254.291 8.52664C252.054 8.52664 250.48 10.1204 250.48 12.4575C250.48 14.7946 252.054 16.3885 254.291 16.3885Z" fill="black"/>
<path d="M273.062 12.2901C273.036 12.6852 272.62 13.0735 272.225 13.0735H264.464C264.638 15.1361 266.131 16.3885 268.321 16.3885C269.352 16.3885 270.263 16.1675 271.027 15.7255C271.201 15.6251 271.395 15.5781 271.569 15.5781C271.817 15.5781 272.038 15.6787 272.232 15.8997C272.333 16.0202 272.379 16.1675 272.379 16.3416C272.379 16.663 272.279 16.884 272.085 17.0045C270.933 17.8148 269.627 18.2301 268.181 18.2301C266.386 18.2301 264.959 17.7144 263.881 16.6563C262.803 15.5982 262.261 14.1986 262.261 12.4575C262.261 10.7164 262.776 9.41054 263.788 8.3056C264.792 7.22744 266.192 6.68506 267.966 6.68506C269.413 6.68506 270.645 7.15372 271.629 8.08455C272.614 9.04218 273.103 10.2476 273.103 11.7476C273.103 11.9954 273.103 12.1628 273.076 12.2901H273.062ZM271.047 11.4798C270.946 9.63822 269.748 8.53334 267.852 8.53334C265.957 8.53334 264.558 9.73867 264.337 11.4798H271.047Z" fill="black"/>
<path d="M276.21 17.9892V19.757C276.21 20.2727 275.795 20.688 275.299 20.688C274.803 20.688 274.368 20.2727 274.368 19.757V17.0784C274.368 16.5627 274.783 16.1476 275.299 16.1476H275.741C276.524 15.1632 277.241 12.7324 277.435 9.85951L277.556 7.87046C277.583 7.35482 278.025 6.9397 278.54 6.9397H284.212C284.728 6.9397 285.143 7.35482 285.143 7.87046V16.1476H286.054C286.569 16.1476 286.985 16.5627 286.985 17.0784V19.757C286.985 20.2727 286.569 20.688 286.074 20.688C285.558 20.688 285.143 20.2727 285.143 19.757V17.9892H276.203H276.21ZM283.188 16.1476V8.77457H279.451L279.33 10.6162C279.109 13.1944 278.42 15.3574 277.83 16.1409H283.188V16.1476Z" fill="black"/>
<path d="M299.326 17.2256C299.426 18.431 297.263 18.431 297.364 17.2256V9.92611L291.39 17.2723C290.901 17.8616 290.433 18.1563 289.991 18.1563C289.428 18.1563 289.006 17.6876 289.006 17.1719V7.73629C288.906 6.5309 291.069 6.5309 290.968 7.73629V15.0559L296.942 7.70948C297.457 7.09339 297.926 6.79883 298.341 6.79883C298.904 6.79883 299.326 7.28768 299.326 7.80333V17.2122V17.2256Z" fill="black"/>
<path d="M312.941 17.2255C313.041 18.4309 310.878 18.4309 310.978 17.2255V13.3213H304.838V17.2255C304.938 18.4309 302.775 18.4309 302.875 17.2255V7.74292C302.775 6.53752 304.938 6.53752 304.838 7.74292V11.4797H310.978V7.74292C310.878 6.53752 313.041 6.53752 312.941 7.74292V17.2255Z" fill="black"/>
<path d="M318.298 13.8101C317.019 13.5154 315.914 12.31 315.914 10.6158C315.914 8.47954 317.414 6.93262 320.849 6.93262H323.354C323.87 6.93262 324.285 7.3479 324.285 7.86354V17.2255C324.385 18.4309 322.222 18.4309 322.316 17.2255V14.2989H320.18L317.749 17.6137C317.481 17.9821 317.206 18.1562 316.892 18.1562C316.302 18.1562 315.907 17.7879 315.907 17.299C315.907 17.078 316.008 16.857 316.175 16.5891L318.291 13.8101H318.298ZM322.329 12.4574V8.7742H320.535C318.793 8.7742 318.003 9.55776 318.003 10.6694C318.003 11.781 319.008 12.4641 320.066 12.4641H322.329V12.4574Z" fill="black"/>
<path d="M337.216 17.2255C337.316 18.4309 335.153 18.4309 335.254 17.2255V8.89469H331.37L331.249 10.7631C330.928 15.8994 329.381 18.1562 327.539 18.1562C326.95 18.1562 326.555 17.8146 326.555 17.2454C326.555 16.7766 326.823 16.4619 327.338 16.2409C327.901 16.0199 328.343 15.4775 328.664 14.6204C328.986 13.7632 329.207 12.357 329.327 10.3681L329.474 7.86354C329.501 7.3479 329.943 6.93262 330.459 6.93262H336.278C336.794 6.93262 337.209 7.3479 337.209 7.86354V17.2255H337.216Z" fill="black"/>
<path d="M351.071 17.2256C351.171 18.431 349.008 18.431 349.102 17.2256V9.92611L343.135 17.2723C342.647 17.8616 342.178 18.1563 341.736 18.1563C341.173 18.1563 340.751 17.6876 340.751 17.1719V7.73629C340.651 6.5309 342.814 6.5309 342.72 7.73629V15.0559L348.687 7.70948C349.203 7.09339 349.671 6.79883 350.087 6.79883C350.649 6.79883 351.071 7.28768 351.071 7.80333V17.2122V17.2256Z" fill="black"/>
<path d="M359.743 8.52664C358.712 8.52664 357.828 8.89489 357.091 9.63152C356.328 10.3949 355.959 11.3258 355.959 12.4575C355.959 13.5892 356.355 14.5937 357.111 15.3103C357.875 16.0201 358.806 16.3885 359.937 16.3885C360.848 16.3885 361.632 16.1406 362.295 15.625C362.562 15.404 362.81 15.3036 363.058 15.3036C363.279 15.3036 363.453 15.3773 363.62 15.5514C363.788 15.7255 363.888 15.9197 363.888 16.1675C363.888 16.4353 363.788 16.6563 363.62 16.8036C362.562 17.7612 361.283 18.2301 359.79 18.2301C358.022 18.2301 356.596 17.6876 355.518 16.6362C354.413 15.5781 353.87 14.2053 353.87 12.4575C353.87 10.8369 354.413 9.45747 355.471 8.35252C356.529 7.24757 357.881 6.68506 359.475 6.68506C360.855 6.68506 362.053 6.97957 363.065 7.54209C363.406 7.7162 363.58 8.01085 363.58 8.37917C363.58 8.55328 363.533 8.70071 363.46 8.82125C363.286 9.11591 363.018 9.26317 362.649 9.26317C362.475 9.26317 362.308 9.23645 362.181 9.16279C361.37 8.7476 360.56 8.52664 359.75 8.52664H359.743Z" fill="black"/>
<path d="M368.295 10.2471H370.31C373.458 10.2471 374.683 11.8209 374.683 14.0576C374.683 16.2943 373.284 17.9885 370.063 17.9885H367.263C366.748 17.9885 366.332 17.5734 366.332 17.0577V7.74926C366.232 6.54387 368.395 6.54387 368.301 7.74926V10.2538L368.295 10.2471ZM368.295 16.1469H369.915C371.71 16.1469 372.594 15.4839 372.594 14.1312C372.594 12.7785 371.71 12.0954 369.942 12.0954H368.295V16.1469Z" fill="black"/>
<path d="M384.809 10.1001V17.2255C384.91 18.4309 382.747 18.4309 382.847 17.2255V7.74289C382.847 7.22724 383.289 6.81212 383.805 6.81212C384.32 6.81212 384.588 7.05985 385.157 7.7697L388.894 12.4104L392.457 7.71607C392.899 7.09998 393.314 6.80542 393.709 6.80542C394.225 6.80542 394.667 7.22054 394.667 7.73618V17.2188C394.767 18.4242 392.604 18.4242 392.705 17.2188V10.0934L389.584 14.0512C389.189 14.5669 388.452 14.5668 388.064 14.0779L384.823 10.1001H384.809Z" fill="black"/>
<path d="M408.268 12.2901C408.241 12.6852 407.826 13.0735 407.43 13.0735H399.669C399.843 15.1361 401.337 16.3885 403.526 16.3885C404.558 16.3885 405.468 16.1675 406.232 15.7255C406.406 15.6251 406.6 15.5781 406.774 15.5781C407.022 15.5781 407.243 15.6787 407.437 15.8997C407.538 16.0202 407.584 16.1675 407.584 16.3416C407.584 16.663 407.484 16.884 407.29 17.0045C406.138 17.8148 404.832 18.2301 403.386 18.2301C401.591 18.2301 400.165 17.7144 399.086 16.6563C398.008 15.5982 397.466 14.1986 397.466 12.4575C397.466 10.7164 397.981 9.41054 398.993 8.3056C399.997 7.22744 401.397 6.68506 403.171 6.68506C404.618 6.68506 405.85 7.15372 406.834 8.08455C407.819 9.04218 408.308 10.2476 408.308 11.7476C408.308 11.9954 408.308 12.1628 408.281 12.2901H408.268ZM406.259 11.4798C406.158 9.63822 404.959 8.53334 403.064 8.53334C401.169 8.53334 399.77 9.73867 399.549 11.4798H406.259Z" fill="black"/>
<path d="M412.032 17.6203C411.784 17.9887 411.469 18.1628 411.101 18.1628C410.511 18.1628 410.17 17.7209 410.17 17.232C410.17 17.0111 410.244 16.79 410.364 16.6158L413.585 12.2697L410.639 8.33887C410.518 8.16476 410.444 7.97049 410.444 7.77629C410.444 7.26065 410.84 6.81871 411.449 6.81871C411.817 6.81871 412.112 6.99287 412.36 7.36118L415.286 11.5131C415.608 11.9283 415.608 12.618 415.286 13.0332L412.045 17.627L412.032 17.6203ZM418.273 17.2253C418.373 18.4307 416.21 18.4307 416.311 17.2253V7.74277C416.21 6.53738 418.373 6.53738 418.273 7.74277V17.2253ZM419.304 13.0265C418.983 12.5377 418.983 11.9952 419.304 11.5064L422.251 7.35448C422.498 6.98616 422.793 6.81201 423.161 6.81201C423.778 6.81201 424.166 7.22713 424.166 7.74277C424.166 7.99055 424.092 8.18484 423.972 8.33217L420.998 12.263L424.266 16.589C424.414 16.7832 424.487 17.0044 424.487 17.2253C424.487 17.741 424.119 18.1561 423.557 18.1561C423.161 18.1561 422.847 17.982 422.599 17.6136L419.304 13.0198V13.0265Z" fill="black"/>
<path d="M427.414 17.9892V19.757C427.414 20.2727 426.999 20.688 426.503 20.688C426.008 20.688 425.572 20.2727 425.572 19.757V17.0784C425.572 16.5627 425.987 16.1476 426.503 16.1476H426.945C427.729 15.1632 428.445 12.7324 428.639 9.85951L428.76 7.87046C428.787 7.35482 429.229 6.9397 429.744 6.9397H435.416C435.932 6.9397 436.347 7.35482 436.347 7.87046V16.1476H437.258C437.774 16.1476 438.189 16.5627 438.189 17.0784V19.757C438.189 20.2727 437.774 20.688 437.278 20.688C436.762 20.688 436.347 20.2727 436.347 19.757V17.9892H427.407H427.414ZM434.385 16.1476V8.77457H430.648L430.528 10.6162C430.307 13.1944 429.617 15.3574 429.028 16.1409H434.385V16.1476Z" fill="black"/>
<path d="M444.068 13.9574C444.095 14.0311 444.316 14.5936 444.731 15.6249C444.878 15.0824 445.052 14.5199 445.247 13.9306L447.584 7.56877C447.758 7.05312 448.073 6.80542 448.541 6.80542C449.231 6.80542 449.62 7.20048 449.62 7.763C449.62 7.88354 449.593 8.03083 449.519 8.23173L445.615 17.9888C444.851 19.904 444.168 21.2099 443.552 21.893C442.936 22.556 442.2 22.8975 441.389 22.8975C440.083 22.8975 439.421 22.5024 439.421 21.7457C439.421 21.2301 439.688 20.9621 440.204 20.9621C440.378 20.9621 440.867 21.0827 441.162 21.0827C442.072 21.0827 442.762 20.3461 443.519 18.5782L443.767 17.9888L439.126 8.31217C439.052 8.19163 439.025 8.01755 439.025 7.84343C439.025 7.28092 439.441 6.81212 440.104 6.81212C440.519 6.81212 440.84 7.00627 441.034 7.42816L444.055 13.9641L444.068 13.9574Z" fill="black"/>
<path d="M462.644 8.52664C461.613 8.52664 460.729 8.89489 459.993 9.63152C459.229 10.3949 458.861 11.3258 458.861 12.4575C458.861 13.5892 459.256 14.5937 460.013 15.3103C460.776 16.0201 461.707 16.3885 462.839 16.3885C463.749 16.3885 464.533 16.1406 465.196 15.625C465.464 15.404 465.712 15.3036 465.959 15.3036C466.18 15.3036 466.354 15.3773 466.522 15.5514C466.689 15.7255 466.79 15.9197 466.79 16.1675C466.79 16.4353 466.689 16.6563 466.522 16.8036C465.464 17.7612 464.185 18.2301 462.691 18.2301C460.923 18.2301 459.497 17.6876 458.419 16.6362C457.314 15.5781 456.771 14.2053 456.771 12.4575C456.771 10.8369 457.314 9.45747 458.372 8.35252C459.43 7.24757 460.776 6.68506 462.377 6.68506C463.749 6.68506 464.955 6.97957 465.966 7.54209C466.308 7.7162 466.482 8.01085 466.482 8.37917C466.482 8.55328 466.435 8.70071 466.361 8.82125C466.187 9.11591 465.919 9.26317 465.551 9.26317C465.377 9.26317 465.209 9.23645 465.082 9.16279C464.272 8.7476 463.461 8.52664 462.651 8.52664H462.644Z" fill="black"/>
<path d="M468.49 12.4575C468.49 10.79 469.033 9.41054 470.138 8.3056C471.216 7.22744 472.642 6.68506 474.39 6.68506C476.138 6.68506 477.558 7.22744 478.662 8.3056C479.741 9.41054 480.283 10.79 480.283 12.4575C480.283 14.125 479.741 15.5044 478.662 16.5826C477.558 17.6875 476.131 18.2301 474.39 18.2301C472.649 18.2301 471.222 17.6875 470.138 16.5826C469.033 15.5044 468.49 14.125 468.49 12.4575ZM474.383 16.3885C476.62 16.3885 478.194 14.7879 478.194 12.4575C478.194 10.1271 476.62 8.52664 474.383 8.52664C472.147 8.52664 470.573 10.1204 470.573 12.4575C470.573 14.7946 472.147 16.3885 474.383 16.3885Z" fill="black"/>
<path d="M492.224 16.5626C491.166 17.6676 489.793 18.2301 488.146 18.2301C484.536 18.2301 482.3 15.5983 482.3 11.3526C482.3 6.56452 483.673 3.59116 486.405 2.43264C487.115 2.1112 487.952 1.89017 488.936 1.72276C489.921 1.54864 490.604 1.35452 490.972 1.13353C491.293 0.912539 491.608 0.791992 491.883 0.791992C492.157 0.791992 492.372 0.912539 492.546 1.13353C492.693 1.30764 492.767 1.50177 492.767 1.72276C492.767 2.01741 492.646 2.26525 492.425 2.45945C491.863 2.9751 490.972 3.34335 489.773 3.56434C488.568 3.78533 487.657 4.03317 487.068 4.30103C485.374 5.06445 484.463 6.85913 484.289 9.63154C484.999 8.08462 486.82 7.05327 488.688 7.05327C491.836 7.05327 493.825 9.21627 493.825 12.5579C493.825 14.1316 493.282 15.4577 492.224 16.5626ZM488.099 16.3885C489.157 16.3885 490.041 16.0201 490.731 15.3103C491.394 14.6004 491.735 13.7165 491.735 12.6584C491.735 10.4218 490.43 8.90155 488.2 8.90155C486.237 8.90155 484.757 10.1806 484.389 11.7275C484.389 14.5535 485.909 16.3952 488.099 16.3952V16.3885Z" fill="black"/>
<path d="M495.84 12.4575C495.84 10.79 496.382 9.41054 497.487 8.3056C498.592 7.20065 499.992 6.68506 501.74 6.68506C503.487 6.68506 504.907 7.22744 506.012 8.3056C507.09 9.41054 507.633 10.79 507.633 12.4575C507.633 14.125 507.09 15.5044 506.012 16.5826C504.907 17.6875 503.481 18.2301 501.74 18.2301C499.998 18.2301 498.572 17.6875 497.487 16.5826C496.382 15.5044 495.84 14.125 495.84 12.4575ZM501.733 16.3885C503.97 16.3885 505.543 14.7879 505.543 12.4575C505.543 10.1271 503.97 8.52664 501.733 8.52664C499.496 8.52664 497.922 10.1204 497.922 12.4575C497.922 14.7946 499.496 16.3885 501.733 16.3885Z" fill="black"/>
<path d="M520.751 17.2255C520.851 18.4309 518.688 18.4309 518.789 17.2255V9.92608L512.815 17.2723C512.326 17.8616 511.858 18.1563 511.416 18.1563C510.853 18.1563 510.431 17.6876 510.431 17.1719V7.73627C510.331 6.53087 512.494 6.53087 512.393 7.73627V15.0558L518.367 7.70945C518.882 7.09336 519.351 6.7988 519.766 6.7988C520.329 6.7988 520.751 7.28765 520.751 7.8033V17.2121V17.2255ZM518.34 1.28076C518.856 1.28076 519.251 1.62231 519.251 2.13795C519.251 2.18483 519.224 2.28527 519.204 2.45938C518.909 3.71165 517.536 4.72277 515.742 4.72277C513.773 4.72277 512.427 3.71835 512.152 2.45938C512.125 2.38572 512.125 2.28531 512.125 2.16477C512.125 1.60225 512.467 1.28076 513.036 1.28076C513.505 1.28076 513.82 1.54858 513.994 2.06422C514.242 2.82764 514.831 3.21602 515.735 3.21602C516.592 3.21602 517.134 2.82094 517.382 2.06422C517.556 1.54858 517.871 1.28076 518.34 1.28076Z" fill="black"/>
<path d="M534.948 8.52664C533.917 8.52664 533.033 8.89489 532.296 9.63152C531.533 10.3949 531.165 11.3258 531.165 12.4575C531.165 13.5892 531.56 14.5937 532.316 15.3103C533.08 16.0201 534.011 16.3885 535.142 16.3885C536.053 16.3885 536.837 16.1406 537.5 15.625C537.767 15.404 538.015 15.3036 538.263 15.3036C538.484 15.3036 538.658 15.3773 538.826 15.5514C538.993 15.7255 539.093 15.9197 539.093 16.1675C539.093 16.4353 538.993 16.6563 538.826 16.8036C537.767 17.7612 536.488 18.2301 534.995 18.2301C533.227 18.2301 531.801 17.6876 530.723 16.6362C529.618 15.5781 529.075 14.2053 529.075 12.4575C529.075 10.8369 529.618 9.45747 530.676 8.35252C531.734 7.24757 533.086 6.68506 534.68 6.68506C536.06 6.68506 537.258 6.97957 538.27 7.54209C538.611 7.7162 538.785 8.01085 538.785 8.37917C538.785 8.55328 538.738 8.70071 538.665 8.82125C538.491 9.11591 538.223 9.26317 537.855 9.26317C537.68 9.26317 537.513 9.23645 537.386 9.16279C536.575 8.7476 535.765 8.52664 534.955 8.52664H534.948Z" fill="black"/>
<path d="M541.851 17.9892V19.757C541.851 20.2727 541.436 20.688 540.941 20.688C540.445 20.688 540.01 20.2727 540.01 19.757V17.0784C540.01 16.5627 540.425 16.1476 540.941 16.1476H541.383C542.166 15.1632 542.883 12.7324 543.077 9.85951L543.197 7.87046C543.224 7.35482 543.666 6.9397 544.182 6.9397H549.854C550.369 6.9397 550.785 7.35482 550.785 7.87046V16.1476H551.695C552.211 16.1476 552.626 16.5627 552.626 17.0784V19.757C552.626 20.2727 552.211 20.688 551.716 20.688C551.2 20.688 550.785 20.2727 550.785 19.757V17.9892H541.845H541.851ZM548.829 16.1476V8.77457H545.093L544.972 10.6162C544.751 13.1944 544.061 15.3574 543.472 16.1409H548.829V16.1476Z" fill="black"/>
<path d="M564.727 12.2901C564.701 12.6852 564.286 13.0735 563.89 13.0735H556.129C556.303 15.1361 557.796 16.3885 559.986 16.3885C561.018 16.3885 561.928 16.1675 562.692 15.7255C562.866 15.6251 563.06 15.5781 563.234 15.5781C563.482 15.5781 563.703 15.6787 563.897 15.8997C563.998 16.0202 564.044 16.1675 564.044 16.3416C564.044 16.663 563.944 16.884 563.75 17.0045C562.598 17.8148 561.292 18.2301 559.846 18.2301C558.051 18.2301 556.625 17.7144 555.546 16.6563C554.468 15.5982 553.926 14.1986 553.926 12.4575C553.926 10.7164 554.441 9.41054 555.453 8.3056C556.457 7.22744 557.857 6.68506 559.631 6.68506C561.078 6.68506 562.31 7.15372 563.294 8.08455C564.279 9.04218 564.768 10.2476 564.768 11.7476C564.768 11.9954 564.768 12.1628 564.741 12.2901H564.727ZM562.712 11.4798C562.611 9.63822 561.413 8.53334 559.518 8.53334C557.622 8.53334 556.223 9.73867 556.002 11.4798H562.712Z" fill="black"/>
<path d="M576.915 17.2255C577.015 18.4309 574.852 18.4309 574.953 17.2255V8.89469H571.069L570.948 10.7631C570.627 15.8994 569.08 18.1562 567.238 18.1562C566.649 18.1562 566.254 17.8146 566.254 17.2454C566.254 16.7766 566.522 16.4619 567.037 16.2409C567.6 16.0199 568.042 15.4775 568.363 14.6204C568.685 13.7632 568.906 12.357 569.026 10.3681L569.174 7.86354C569.2 7.3479 569.642 6.93262 570.158 6.93262H575.977C576.493 6.93262 576.908 7.3479 576.908 7.86354V17.2255H576.915Z" fill="black"/>
<path d="M583.847 11.2318C585.026 11.2318 585.936 11.4797 586.599 11.9417C586.599 9.5845 586.131 8.45279 584.095 8.45279C583.385 8.45279 582.642 8.60006 581.885 8.89471C581.764 8.94159 581.637 8.96845 581.517 8.96845C581.148 8.96845 580.9 8.79435 580.753 8.47961C580.706 8.35907 580.679 8.25861 580.679 8.13807C580.679 7.74297 580.854 7.47515 581.168 7.35461C582.226 6.91263 583.258 6.69165 584.215 6.69165C587.262 6.69165 588.468 8.1917 588.468 11.2119V17.3058C588.468 17.7745 588.053 18.1629 587.537 18.1629C587.021 18.1629 586.606 17.7678 586.606 17.3058V16.5692C585.749 17.6273 584.57 18.1629 583.07 18.1629C581.028 18.1629 579.682 16.8369 579.682 14.7476C579.682 12.6582 581.403 11.2318 583.86 11.2318H583.847ZM586.599 13.569C585.91 13.0801 585.079 12.8324 584.122 12.8324C582.822 12.8324 581.764 13.4686 581.764 14.6539C581.764 15.7321 582.501 16.3951 583.753 16.3951C584.858 16.3951 585.789 15.9262 586.606 14.9686V13.569H586.599Z" fill="black"/>
<path d="M601.827 12.2901C601.8 12.6852 601.385 13.0735 600.99 13.0735H593.229C593.403 15.1361 594.896 16.3885 597.086 16.3885C598.117 16.3885 599.028 16.1675 599.791 15.7255C599.965 15.6251 600.16 15.5781 600.334 15.5781C600.582 15.5781 600.803 15.6787 600.997 15.8997C601.097 16.0202 601.144 16.1675 601.144 16.3416C601.144 16.663 601.044 16.884 600.849 17.0045C599.698 17.8148 598.392 18.2301 596.945 18.2301C595.151 18.2301 593.724 17.7144 592.646 16.6563C591.568 15.5982 591.025 14.1986 591.025 12.4575C591.025 10.7164 591.541 9.41054 592.552 8.3056C593.557 7.22744 594.956 6.68506 596.731 6.68506C598.184 6.68506 599.41 7.15372 600.394 8.08455C601.378 9.04218 601.867 10.2476 601.867 11.7476C601.867 11.9954 601.867 12.1628 601.841 12.2901H601.827ZM599.811 11.4798C599.711 9.63822 598.512 8.53334 596.617 8.53334C594.722 8.53334 593.322 9.73867 593.101 11.4798H599.811Z" fill="black"/>
<path d="M606.622 10.1001V17.2255C606.723 18.4309 604.56 18.4309 604.653 17.2255V7.74289C604.653 7.22724 605.095 6.81212 605.611 6.81212C606.127 6.81212 606.394 7.05985 606.964 7.7697L610.7 12.4104L614.263 7.71607C614.705 7.09998 615.12 6.80542 615.515 6.80542C616.031 6.80542 616.473 7.22054 616.473 7.73618V17.2188C616.573 18.4242 614.41 18.4242 614.504 17.2188V10.0934L611.384 14.0512C610.988 14.5669 610.252 14.5668 609.857 14.0779L606.616 10.1001H606.622Z" fill="black"/>
<path d="M1.84158 47.8825V49.6505C1.84158 50.1661 1.42639 50.5813 0.930835 50.5813C0.435282 50.5813 0 50.1661 0 49.6505V46.9718C0 46.4562 0.415192 46.0409 0.930835 46.0409H1.37281C2.15631 45.0565 2.87286 42.6257 3.06706 39.7528L3.1876 37.7639C3.21439 37.2483 3.65637 36.833 4.17201 36.833H9.84408C10.3597 36.833 10.7749 37.2483 10.7749 37.7639V46.0409H11.6857C12.2013 46.0409 12.6165 46.4562 12.6165 46.9718V49.6505C12.6165 50.1661 12.2013 50.5813 11.7058 50.5813C11.1901 50.5813 10.7749 50.1661 10.7749 49.6505V47.8825H1.83488H1.84158ZM8.81949 46.0409V38.668H5.08276L4.96221 40.5096C4.74122 43.0878 4.05148 45.2509 3.46217 46.0344H8.81949V46.0409Z" fill="black"/>
<path d="M21.2006 42.1303C22.9216 42.4518 23.7788 43.3357 23.7788 44.7621C23.7788 46.8983 22.0845 47.9832 18.696 47.9832C18.5219 47.9832 17.4906 47.9563 15.5754 47.9095C15.0597 47.8827 14.6445 47.4407 14.6445 46.9251V37.7842C14.6445 37.2686 15.0597 36.8266 15.5754 36.7998C17.3433 36.7529 18.3746 36.7261 18.6491 36.7261C21.8166 36.7261 23.4171 37.6837 23.4171 39.5789C23.4171 40.878 22.5064 41.916 21.2073 42.137L21.2006 42.1303ZM16.6066 41.6882H19.0911C20.4438 41.6882 21.3278 41.0254 21.3278 39.9673C21.3278 38.9092 20.4907 38.32 18.7965 38.32C18.3277 38.32 17.5911 38.3467 16.6066 38.3935V41.6882ZM16.6066 42.9205V46.309C17.7853 46.3559 18.5487 46.3826 18.8701 46.3826C20.7586 46.3826 21.6961 45.7934 21.6961 44.6148C21.6961 43.4361 20.7854 42.9205 18.9706 42.9205H16.6133H16.6066Z" fill="black"/>
<path d="M30.1673 41.1256C31.3459 41.1256 32.2566 41.3734 32.9196 41.8354C32.9196 39.4782 32.4508 38.3463 30.4151 38.3463C29.7052 38.3463 28.9619 38.4938 28.2052 38.7884C28.0846 38.8353 27.9574 38.862 27.8368 38.862C27.4685 38.862 27.2207 38.6879 27.0734 38.3732C27.0265 38.2526 26.9998 38.1522 26.9998 38.0316C26.9998 37.6365 27.1739 37.3687 27.4886 37.2482C28.5467 36.8062 29.578 36.5852 30.5356 36.5852C33.5826 36.5852 34.788 38.0853 34.788 41.1054V47.1995C34.788 47.6682 34.3728 48.0565 33.8571 48.0565C33.3415 48.0565 32.9263 47.6615 32.9263 47.1995V46.4628C32.0691 47.5208 30.8838 48.0565 29.3905 48.0565C27.3547 48.0565 26.002 46.7307 26.002 44.6413C26.002 42.5519 27.723 41.1256 30.1807 41.1256H30.1673ZM32.9196 43.456C32.2298 42.9671 31.3928 42.7193 30.4351 42.7193C29.136 42.7193 28.0779 43.3554 28.0779 44.5408C28.0779 45.6189 28.8146 46.2819 30.0668 46.2819C31.1718 46.2819 32.1026 45.8133 32.9196 44.8556V43.456Z" fill="black"/>
<path d="M50.1713 42.1303C51.8923 42.4518 52.7495 43.3357 52.7495 44.7621C52.7495 46.8983 51.0552 47.9832 47.6667 47.9832C47.4926 47.9832 46.4613 47.9563 44.5461 47.9095C44.0304 47.8827 43.6152 47.4407 43.6152 46.9251V37.7842C43.6152 37.2686 44.0304 36.8266 44.5461 36.7998C46.314 36.7529 47.3453 36.7261 47.6198 36.7261C50.7873 36.7261 52.3879 37.6837 52.3879 39.5789C52.3879 40.878 51.4771 41.916 50.178 42.137L50.1713 42.1303ZM45.5774 41.6882H48.0618C49.4145 41.6882 50.2985 41.0254 50.2985 39.9673C50.2985 38.9092 49.4614 38.32 47.7672 38.32C47.2984 38.32 46.5618 38.3467 45.5774 38.3935V41.6882ZM45.5774 42.9205V46.309C46.756 46.3559 47.5194 46.3826 47.8408 46.3826C49.736 46.3826 50.6668 45.7934 50.6668 44.6148C50.6668 43.4361 49.7561 42.9205 47.9413 42.9205H45.5841H45.5774Z" fill="black"/>
<path d="M66.0681 47.1194C66.1685 48.3248 64.0055 48.3248 64.1059 47.1194V39.8201L58.1325 47.1663C57.6437 47.7556 57.1749 48.0501 56.7329 48.0501C56.1704 48.0501 55.7485 47.5814 55.7485 47.0657V37.6303C55.6481 36.4249 57.8111 36.4249 57.7173 37.6303V44.9497L63.6907 37.6034C64.2064 36.9874 64.6751 36.6926 65.0903 36.6926C65.6529 36.6926 66.0747 37.1815 66.0747 37.6971V47.106L66.0681 47.1194Z" fill="black"/>
<path d="M69.9256 47.8825V49.6505C69.9256 50.1661 69.5104 50.5813 69.0148 50.5813C68.4992 50.5813 68.084 50.1661 68.084 49.6505V46.9718C68.084 46.4562 68.4992 46.0409 69.0148 46.0409H69.4568C70.2403 45.0565 70.9569 42.6257 71.1511 39.7528L71.2716 37.7639C71.2984 37.2483 71.7404 36.833 72.256 36.833H77.9281C78.4437 36.833 78.8589 37.2483 78.8589 37.7639V46.0409H79.7697C80.2853 46.0409 80.7005 46.4562 80.7005 46.9718V49.6505C80.7005 50.1661 80.2853 50.5813 79.7897 50.5813C79.2942 50.5813 78.8589 50.1661 78.8589 49.6505V47.8825H69.9189H69.9256ZM76.9035 46.0409V38.668H73.1667L73.0462 40.5096C72.8252 43.0878 72.1355 45.2509 71.5462 46.0344H76.9035V46.0409Z" fill="black"/>
<path d="M86.1106 41.1256C87.2892 41.1256 88.2 41.3734 88.8629 41.8354C88.8629 39.4782 88.3942 38.3463 86.3584 38.3463C85.6486 38.3463 84.9119 38.4938 84.1485 38.7884C84.028 38.8353 83.9007 38.862 83.7802 38.862C83.4119 38.862 83.1641 38.6879 83.0168 38.3732C82.9699 38.2526 82.9431 38.1522 82.9431 38.0316C82.9431 37.6365 83.1172 37.3687 83.432 37.2482C84.49 36.8062 85.5213 36.5852 86.4789 36.5852C89.5259 36.5852 90.7313 38.0853 90.7313 41.1054V47.1995C90.7313 47.6682 90.3161 48.0565 89.8005 48.0565C89.2849 48.0565 88.8697 47.6615 88.8697 47.1995V46.4628C88.0125 47.5208 86.8339 48.0565 85.3338 48.0565C83.2913 48.0565 81.9453 46.7307 81.9453 44.6413C81.9453 42.5519 83.6663 41.1256 86.124 41.1256H86.1106ZM88.8629 43.456C88.1732 42.9671 87.3428 42.7193 86.3785 42.7193C85.0793 42.7193 84.0213 43.3554 84.0213 44.5408C84.0213 45.6189 84.7579 46.2819 86.0102 46.2819C87.1151 46.2819 88.046 45.8133 88.8629 44.8556V43.456Z" fill="black"/>
<path d="M104.687 38.4204C103.656 38.4204 102.772 38.7887 102.036 39.5253C101.299 40.262 100.904 41.2197 100.904 42.3515C100.904 43.4832 101.299 44.4875 102.056 45.2041C102.819 45.9139 103.75 46.2823 104.882 46.2823C105.792 46.2823 106.576 46.0346 107.239 45.519C107.507 45.298 107.754 45.1975 108.002 45.1975C108.223 45.1975 108.397 45.2711 108.565 45.4452C108.732 45.6193 108.833 45.8135 108.833 46.0613C108.833 46.3291 108.732 46.5502 108.565 46.6976C107.507 47.6552 106.228 48.1239 104.734 48.1239C102.966 48.1239 101.54 47.5815 100.462 46.5302C99.3569 45.4721 98.8145 44.0993 98.8145 42.3515C98.8145 40.7309 99.3569 39.3513 100.408 38.2463C101.466 37.1414 102.819 36.5789 104.413 36.5789C105.786 36.5789 106.991 36.8735 108.002 37.436C108.344 37.6102 108.518 37.9048 108.518 38.2731C108.518 38.4472 108.471 38.5945 108.397 38.7151C108.223 39.0097 107.955 39.1571 107.587 39.1571C107.413 39.1571 107.246 39.1303 107.118 39.0566C106.308 38.6414 105.498 38.4204 104.687 38.4204Z" fill="black"/>
<path d="M110.534 42.3515C110.534 40.684 111.077 39.3043 112.182 38.1994C113.26 37.1212 114.686 36.5789 116.434 36.5789C118.182 36.5789 119.601 37.1212 120.706 38.1994C121.785 39.3043 122.327 40.684 122.327 42.3515C122.327 44.0189 121.785 45.3984 120.706 46.4765C119.601 47.5815 118.175 48.1239 116.434 48.1239C114.693 48.1239 113.266 47.5815 112.182 46.4765C111.077 45.3984 110.534 44.0189 110.534 42.3515ZM116.434 46.2823C118.671 46.2823 120.244 44.6819 120.244 42.3515C120.244 40.021 118.671 38.4204 116.434 38.4204C114.197 38.4204 112.624 40.0143 112.624 42.3515C112.624 44.6886 114.197 46.2823 116.434 46.2823Z" fill="black"/>
<path d="M135.204 42.184C135.177 42.5791 134.762 42.9675 134.367 42.9675H126.606C126.78 45.0301 128.273 46.2823 130.463 46.2823C131.494 46.2823 132.405 46.0613 133.168 45.6193C133.342 45.5189 133.537 45.472 133.711 45.472C133.958 45.472 134.179 45.5725 134.374 45.7935C134.474 45.914 134.521 46.0613 134.521 46.2354C134.521 46.5568 134.421 46.7778 134.226 46.8983C133.075 47.7086 131.769 48.1239 130.322 48.1239C128.527 48.1239 127.101 47.6082 126.023 46.5501C124.945 45.492 124.402 44.0926 124.402 42.3515C124.402 40.6103 124.918 39.3043 125.922 38.1994C126.927 37.1212 128.333 36.5789 130.101 36.5789C131.548 36.5789 132.78 37.0477 133.764 37.9785C134.749 38.9361 135.238 40.1415 135.238 41.6416C135.238 41.8893 135.238 42.0568 135.211 42.184H135.204ZM133.188 41.3736C133.088 39.532 131.889 38.4271 129.994 38.4271C128.099 38.4271 126.699 39.6325 126.478 41.3736H133.188Z" fill="black"/>
<path d="M138.351 47.8825V49.6505C138.351 50.1661 137.936 50.5813 137.441 50.5813C136.925 50.5813 136.51 50.1661 136.51 49.6505V46.9718C136.51 46.4562 136.925 46.0409 137.441 46.0409H137.883C138.666 45.0565 139.383 42.6257 139.577 39.7528L139.697 37.7639C139.724 37.2483 140.166 36.833 140.682 36.833H146.354C146.869 36.833 147.285 37.2483 147.285 37.7639V46.0409H148.195C148.711 46.0409 149.126 46.4562 149.126 46.9718V49.6505C149.126 50.1661 148.711 50.5813 148.216 50.5813C147.72 50.5813 147.285 50.1661 147.285 49.6505V47.8825H138.345H138.351ZM145.323 46.0409V38.668H141.586L141.465 40.5096C141.244 43.0878 140.555 45.2509 139.965 46.0344H145.323V46.0409Z" fill="black"/>
<path d="M161.468 47.1194C161.569 48.3248 159.406 48.3248 159.506 47.1194V39.8201L153.533 47.1663C153.044 47.7556 152.575 48.0501 152.133 48.0501C151.571 48.0501 151.149 47.5814 151.149 47.0657V37.6303C151.048 36.4249 153.211 36.4249 153.118 37.6303V44.9497L159.091 37.6034C159.607 36.9874 160.076 36.6926 160.491 36.6926C161.053 36.6926 161.475 37.1815 161.475 37.6971V47.106L161.468 47.1194Z" fill="black"/>
<path d="M175.083 47.1191C175.183 48.3245 173.02 48.3245 173.114 47.1191V43.2149H166.973V47.1191C167.074 48.3245 164.911 48.3245 165.004 47.1191V37.6367C164.904 36.4313 167.067 36.4313 166.973 37.6367V41.3733H173.114V37.6367C173.014 36.4313 175.177 36.4313 175.083 37.6367V47.1191Z" fill="black"/>
<path d="M188.689 42.184C188.663 42.5791 188.247 42.9675 187.852 42.9675H180.091C180.265 45.0301 181.758 46.2823 183.948 46.2823C184.979 46.2823 185.89 46.0613 186.654 45.6193C186.828 45.5189 187.022 45.472 187.196 45.472C187.444 45.472 187.665 45.5725 187.859 45.7935C187.959 45.914 188.006 46.0613 188.006 46.2354C188.006 46.5568 187.906 46.7778 187.712 46.8983C186.56 47.7086 185.254 48.1239 183.808 48.1239C182.013 48.1239 180.586 47.6082 179.508 46.5501C178.43 45.492 177.888 44.0926 177.888 42.3515C177.888 40.6103 178.403 39.3043 179.415 38.1994C180.419 37.1212 181.819 36.5789 183.593 36.5789C185.04 36.5789 186.272 37.0477 187.256 37.9785C188.241 38.9361 188.73 40.1415 188.73 41.6416C188.73 41.8893 188.73 42.0568 188.703 42.184H188.689ZM186.674 41.3736C186.573 39.532 185.368 38.4271 183.479 38.4271C181.591 38.4271 180.185 39.6325 179.964 41.3736H186.674Z" fill="black"/>
<path d="M201.589 47.1191C201.689 48.3245 199.526 48.3245 199.627 47.1191V43.2149H193.486V47.1191C193.586 48.3245 191.423 48.3245 191.524 47.1191V37.6367C191.423 36.4313 193.586 36.4313 193.486 37.6367V41.3733H199.627V37.6367C199.526 36.4313 201.689 36.4313 201.589 37.6367V47.1191Z" fill="black"/>
<path d="M215.451 47.1194C215.551 48.3248 213.388 48.3248 213.482 47.1194V39.8201L207.515 47.1663C207.026 47.7556 206.558 48.0501 206.116 48.0501C205.553 48.0501 205.131 47.5814 205.131 47.0657V37.6303C205.031 36.4249 207.194 36.4249 207.1 37.6303V44.9497L213.067 37.6034C213.582 36.9874 214.051 36.6926 214.466 36.6926C215.029 36.6926 215.451 37.1815 215.451 37.6971V47.106V47.1194Z" fill="black"/>
<path d="M229.306 47.1191C229.407 48.3245 227.244 48.3245 227.338 47.1191V39.8198L221.371 47.166C220.882 47.7553 220.413 48.0499 219.971 48.0499C219.409 48.0499 218.987 47.5811 218.987 47.0655V37.63C218.886 36.4246 221.049 36.4246 220.956 37.63V44.9494L226.922 37.6032C227.438 36.9871 227.907 36.6924 228.322 36.6924C228.884 36.6924 229.306 37.1812 229.306 37.6969V47.1057V47.1191ZM226.896 31.1743C227.411 31.1743 227.806 31.5159 227.806 32.0315C227.806 32.0784 227.78 32.1788 227.759 32.3529C227.465 33.6052 226.092 34.6165 224.297 34.6165C222.335 34.6165 220.982 33.6119 220.708 32.3529C220.681 32.2793 220.681 32.1789 220.681 32.0583C220.681 31.4958 221.023 31.1743 221.592 31.1743C222.061 31.1743 222.375 31.4423 222.549 31.9579C222.797 32.7214 223.387 33.1097 224.291 33.1097C225.148 33.1097 225.69 32.7147 225.938 31.9579C226.112 31.4423 226.427 31.1743 226.896 31.1743Z" fill="black"/>
<path d="M233.706 45.251C234.416 45.251 235.005 45.8871 235.005 46.5501C235.005 47.3135 234.463 47.9497 233.706 47.9497C232.896 47.9497 232.307 47.3135 232.307 46.5501C232.307 45.8603 232.896 45.251 233.706 45.251Z" fill="black"/>
<path d="M280.871 84.0515H25.6209C21.1828 84.0515 17.585 87.6493 17.585 92.0875V292.231C17.585 296.669 21.1828 300.266 25.6209 300.266H280.871C285.309 300.266 288.907 296.669 288.907 292.231V92.0875C288.907 87.6493 285.309 84.0515 280.871 84.0515Z" fill="white"/>
<path d="M283.99 300.882H22.4992C19.4522 300.882 16.9678 298.405 16.9678 295.351V88.9667C16.9678 85.9198 19.4455 83.4353 22.4992 83.4353H283.997C287.044 83.4353 289.528 85.9131 289.528 88.9667V295.351C289.528 298.398 287.051 300.882 283.997 300.882H283.99ZM22.4992 84.6675C20.1286 84.6675 18.2 86.5961 18.2 88.9667V295.351C18.2 297.722 20.1286 299.65 22.4992 299.65H283.997C286.368 299.65 288.296 297.722 288.296 295.351V88.9667C288.296 86.5961 286.368 84.6675 283.997 84.6675H22.4992Z" fill="#83BBFF"/>
<path d="M41.4381 99.3728C41.86 99.3728 42.2149 99.721 42.2149 100.15V111.628C42.2149 112.05 41.8667 112.404 41.4381 112.404C41.0095 112.404 40.6479 112.056 40.6479 111.628V100.846H33.6432V111.628C33.6432 112.05 33.295 112.404 32.8664 112.404C32.4378 112.404 32.0762 112.056 32.0762 111.628V100.15C32.0762 99.7277 32.4244 99.3728 32.853 99.3728H41.4381Z" fill="black"/>
<path d="M53.0307 107.998C53.0106 108.293 52.6959 108.588 52.4012 108.588H46.5818C46.709 110.135 47.8341 111.072 49.4748 111.072C50.2516 111.072 50.9279 110.905 51.5038 110.577C51.6311 110.503 51.7784 110.463 51.9123 110.463C52.0998 110.463 52.2606 110.536 52.4079 110.704C52.4816 110.798 52.5217 110.905 52.5217 111.039C52.5217 111.28 52.4481 111.44 52.3007 111.534C51.4369 112.144 50.4592 112.458 49.3676 112.458C48.0216 112.458 46.9568 112.07 46.1465 111.28C45.3362 110.49 44.9277 109.438 44.9277 108.126C44.9277 106.813 45.3161 105.842 46.0729 105.012C46.8296 104.201 47.881 103.793 49.2069 103.793C50.2918 103.793 51.2159 104.141 51.9525 104.844C52.6892 105.561 53.0575 106.465 53.0575 107.59C53.0575 107.777 53.0575 107.905 53.0374 107.998H53.0307ZM51.5172 107.389C51.4436 106.009 50.5395 105.179 49.1198 105.179C47.7001 105.179 46.6488 106.083 46.4881 107.389H51.5172Z" fill="black"/>
<path d="M56.6261 115.257C56.6998 116.161 55.0792 116.161 55.1528 115.257V104.59C55.0792 103.686 56.6998 103.686 56.6261 104.59V104.958C57.2154 104.275 58.3203 103.799 59.4454 103.799C60.5704 103.799 61.5481 104.188 62.2446 104.958C62.9276 105.748 63.2759 106.766 63.2759 107.998C63.2759 109.23 62.8741 110.335 62.0772 111.186C61.287 112.036 60.2356 112.458 58.9632 112.458C57.9855 112.458 57.1953 112.271 56.6261 111.889V115.264V115.257ZM56.6261 110.429C57.269 110.851 58.0056 111.072 58.836 111.072C60.5838 111.072 61.7089 109.82 61.7089 108.052C61.7089 106.284 60.6977 105.179 59.0168 105.179C58.0391 105.179 57.2288 105.567 56.6194 106.324V110.436L56.6261 110.429Z" fill="black"/>
<path d="M70.3136 107.965C71.6061 108.206 72.249 108.869 72.249 109.933C72.249 111.534 70.9766 112.344 68.4319 112.344C68.3047 112.344 67.5278 112.324 66.0947 112.291C65.7063 112.271 65.3916 111.942 65.3916 111.554V104.697C65.3916 104.308 65.7063 103.98 66.0947 103.96C67.4207 103.927 68.1975 103.906 68.3984 103.906C70.7757 103.906 71.9744 104.623 71.9744 106.043C71.9744 107.02 71.2914 107.791 70.3136 107.958V107.965ZM66.8716 107.63H68.7332C69.7444 107.63 70.4074 107.134 70.4074 106.337C70.4074 105.54 69.7779 105.105 68.5122 105.105C68.164 105.105 67.6082 105.125 66.8716 105.159V107.63ZM66.8716 108.554V111.099C67.7555 111.132 68.3247 111.152 68.5658 111.152C69.9855 111.152 70.682 110.71 70.682 109.826C70.682 108.942 69.9989 108.554 68.6395 108.554H66.8716Z" fill="black"/>
<path d="M73.9434 108.126C73.9434 106.873 74.3452 105.842 75.1755 105.012C76.0059 104.181 77.0573 103.793 78.3632 103.793C79.669 103.793 80.7405 104.201 81.5709 105.012C82.3812 105.842 82.7897 106.873 82.7897 108.126C82.7897 109.378 82.3812 110.409 81.5709 111.219C80.7405 112.05 79.6757 112.452 78.3632 112.452C77.0506 112.452 75.9858 112.043 75.1755 111.219C74.3452 110.409 73.9434 109.378 73.9434 108.126ZM78.3699 111.079C80.044 111.079 81.2226 109.88 81.2226 108.132C81.2226 106.385 80.044 105.186 78.3699 105.186C76.6957 105.186 75.5171 106.385 75.5171 108.132C75.5171 109.88 76.6957 111.079 78.3699 111.079Z" fill="black"/>
<path d="M92.4467 107.998C92.4266 108.293 92.1119 108.588 91.8172 108.588H85.9978C86.1251 110.135 87.2501 111.072 88.8908 111.072C89.6676 111.072 90.344 110.905 90.9199 110.577C91.0471 110.503 91.1944 110.463 91.3284 110.463C91.5159 110.463 91.6766 110.536 91.8239 110.704C91.8976 110.798 91.9378 110.905 91.9378 111.039C91.9378 111.28 91.8641 111.44 91.7168 111.534C90.8529 112.144 89.8752 112.458 88.7836 112.458C87.4376 112.458 86.3728 112.07 85.5625 111.28C84.7523 110.49 84.3438 109.438 84.3438 108.126C84.3438 106.813 84.7322 105.842 85.4889 105.012C86.2456 104.201 87.297 103.793 88.6229 103.793C89.7078 103.793 90.6319 104.141 91.3686 104.844C92.1052 105.561 92.4735 106.465 92.4735 107.59C92.4735 107.777 92.4735 107.905 92.4534 107.998H92.4467ZM90.9333 107.389C90.8596 106.009 89.9556 105.179 88.5359 105.179C87.1162 105.179 86.0648 106.083 85.9041 107.389H90.9333Z" fill="black"/>
<path d="M102.564 105.179C101.788 105.179 101.125 105.453 100.576 106.009C100.006 106.578 99.7251 107.282 99.7251 108.125C99.7251 108.969 100.02 109.726 100.589 110.262C101.158 110.797 101.861 111.072 102.705 111.072C103.388 111.072 103.977 110.884 104.473 110.503C104.674 110.335 104.861 110.262 105.042 110.262C105.21 110.262 105.337 110.315 105.464 110.449C105.591 110.583 105.665 110.724 105.665 110.911C105.665 111.112 105.591 111.28 105.464 111.393C104.674 112.11 103.716 112.465 102.591 112.465C101.265 112.465 100.194 112.056 99.3835 111.266C98.5532 110.476 98.1514 109.445 98.1514 108.132C98.1514 106.913 98.5598 105.882 99.3501 105.052C100.14 104.221 101.158 103.799 102.357 103.799C103.388 103.799 104.292 104.02 105.049 104.442C105.31 104.57 105.437 104.791 105.437 105.072C105.437 105.199 105.404 105.313 105.344 105.407C105.216 105.628 105.009 105.741 104.734 105.741C104.607 105.741 104.473 105.721 104.386 105.668C103.777 105.353 103.167 105.186 102.564 105.186V105.179Z" fill="black"/>
<path d="M113.118 115.257C113.192 116.161 111.571 116.161 111.645 115.257V104.59C111.571 103.686 113.192 103.686 113.118 104.59V104.958C113.708 104.275 114.813 103.799 115.938 103.799C117.063 103.799 118.04 104.188 118.737 104.958C119.42 105.748 119.768 106.766 119.768 107.998C119.768 109.23 119.36 110.335 118.569 111.186C117.779 112.036 116.728 112.458 115.455 112.458C114.478 112.458 113.687 112.271 113.118 111.889V115.264V115.257ZM113.118 110.429C113.761 110.851 114.498 111.072 115.328 111.072C117.076 111.072 118.201 109.82 118.201 108.052C118.201 106.284 117.19 105.179 115.509 105.179C114.531 105.179 113.721 105.567 113.112 106.324V110.436L113.118 110.429Z" fill="black"/>
<path d="M121.342 108.126C121.342 106.873 121.744 105.842 122.574 105.012C123.404 104.181 124.456 103.793 125.762 103.793C127.067 103.793 128.139 104.201 128.969 105.012C129.78 105.842 130.188 106.873 130.188 108.126C130.188 109.378 129.78 110.409 128.969 111.219C128.139 112.05 127.074 112.452 125.762 112.452C124.449 112.452 123.384 112.043 122.574 111.219C121.744 110.409 121.342 109.378 121.342 108.126ZM125.762 111.079C127.436 111.079 128.614 109.88 128.614 108.132C128.614 106.385 127.436 105.186 125.762 105.186C124.087 105.186 122.909 106.385 122.909 108.132C122.909 109.88 124.087 111.079 125.762 111.079Z" fill="black"/>
<path d="M137.206 107.965C138.499 108.206 139.142 108.869 139.142 109.933C139.142 111.534 137.869 112.344 135.324 112.344C135.197 112.344 134.42 112.324 132.987 112.291C132.599 112.271 132.284 111.942 132.284 111.554V104.697C132.284 104.308 132.599 103.98 132.987 103.96C134.313 103.927 135.09 103.906 135.291 103.906C137.668 103.906 138.867 104.623 138.867 106.043C138.867 107.02 138.184 107.791 137.206 107.958V107.965ZM133.757 107.63H135.619C136.63 107.63 137.293 107.134 137.293 106.337C137.293 105.54 136.664 105.105 135.398 105.105C135.05 105.105 134.494 105.125 133.757 105.159V107.63ZM133.757 108.554V111.099C134.641 111.132 135.211 111.152 135.452 111.152C136.871 111.152 137.568 110.71 137.568 109.826C137.568 108.942 136.885 108.554 135.525 108.554H133.757Z" fill="black"/>
<path d="M148.947 111.701C149.021 112.605 147.4 112.605 147.474 111.701V108.768H142.866V111.701C142.94 112.605 141.319 112.605 141.393 111.701V104.589C141.319 103.685 142.94 103.685 142.866 104.589V107.389H147.474V104.589C147.4 103.685 149.021 103.685 148.947 104.589V111.701Z" fill="black"/>
<path d="M153.071 106.471H154.438C156.795 106.471 157.719 107.65 157.719 109.324C157.719 110.998 156.688 112.271 154.27 112.271H152.301C151.913 112.271 151.598 111.956 151.598 111.567V104.583C151.524 103.679 153.145 103.679 153.071 104.583V106.465V106.471ZM153.071 110.891H154.143C155.563 110.891 156.152 110.395 156.152 109.378C156.152 108.36 155.489 107.851 154.163 107.851H153.078V110.891H153.071ZM160.773 111.701C160.846 112.605 159.226 112.605 159.299 111.701V104.59C159.226 103.685 160.846 103.685 160.773 104.59V111.701Z" fill="black"/>
<path d="M164.904 106.358V111.702C164.978 112.606 163.357 112.606 163.431 111.702V104.59C163.431 104.201 163.766 103.887 164.148 103.887C164.529 103.887 164.737 104.074 165.159 104.603L167.958 108.085L170.63 104.563C170.965 104.101 171.273 103.88 171.568 103.88C171.956 103.88 172.284 104.195 172.284 104.583V111.695C172.358 112.599 170.737 112.599 170.811 111.695V106.351L168.474 109.318C168.179 109.706 167.623 109.706 167.329 109.338L164.898 106.351L164.904 106.358Z" fill="black"/>
<path d="M178.538 108.126C178.538 106.873 178.947 105.842 179.77 105.012C180.581 104.201 181.652 103.793 182.958 103.793C184.264 103.793 185.335 104.201 186.166 105.012C186.976 105.842 187.384 106.873 187.384 108.126C187.384 109.378 186.976 110.409 186.166 111.219C185.335 112.05 184.27 112.452 182.958 112.452C181.645 112.452 180.581 112.043 179.77 111.219C178.94 110.409 178.538 109.378 178.538 108.126ZM182.958 111.079C184.632 111.079 185.811 109.88 185.811 108.132C185.811 106.385 184.632 105.186 182.958 105.186C181.284 105.186 180.105 106.385 180.105 108.132C180.105 109.88 181.284 111.079 182.958 111.079Z" fill="black"/>
<path d="M190.961 111.702C191.035 112.606 189.414 112.606 189.488 111.702V104.59C189.414 103.686 191.035 103.686 190.961 104.59V111.702ZM191.771 108.574C191.53 108.26 191.53 107.784 191.771 107.503L194.557 104.275C194.999 103.759 195.535 103.813 195.789 104.088C196.044 104.362 196.03 104.791 195.789 105.025L193.117 107.938L196.064 111.146C196.211 111.313 196.285 111.494 196.285 111.702C196.285 112.07 196.01 112.405 195.548 112.405C195.274 112.405 195.033 112.277 194.832 112.036L191.771 108.574Z" fill="black"/>
<path d="M197.812 108.126C197.812 106.873 198.22 105.842 199.044 105.012C199.854 104.201 200.925 103.793 202.231 103.793C203.537 103.793 204.609 104.201 205.439 105.012C206.249 105.842 206.658 106.873 206.658 108.126C206.658 109.378 206.249 110.409 205.439 111.219C204.609 112.05 203.544 112.452 202.231 112.452C200.919 112.452 199.854 112.043 199.044 111.219C198.213 110.409 197.812 109.378 197.812 108.126ZM202.238 111.079C203.912 111.079 205.091 109.88 205.091 108.132C205.091 106.385 203.912 105.186 202.238 105.186C200.564 105.186 199.385 106.385 199.385 108.132C199.385 109.88 200.564 111.079 202.238 111.079Z" fill="black"/>
<path d="M216.314 111.701C216.388 112.605 214.767 112.605 214.841 111.701V108.768H210.234V111.701C210.307 112.605 208.687 112.605 208.76 111.701V104.589C208.687 103.685 210.307 103.685 210.234 104.589V107.389H214.841V104.589C214.767 103.685 216.388 103.685 216.314 104.589V111.701Z" fill="black"/>
<path d="M223.721 104.59C223.647 103.686 225.268 103.686 225.194 104.59V111.702C225.268 112.606 223.647 112.606 223.721 111.702V109.05C223.078 109.458 222.321 109.659 221.417 109.659C219.448 109.659 218.471 108.608 218.471 106.492V104.596C218.471 104.208 218.806 103.893 219.261 103.893C219.716 103.893 220.038 104.208 220.038 104.596V106.331C220.038 107.637 220.627 108.286 221.826 108.286C222.603 108.286 223.225 108.119 223.721 107.771V104.603V104.59Z" fill="black"/>
<path d="M230.391 107.208C231.275 107.208 231.958 107.389 232.453 107.744C232.453 105.976 232.105 105.125 230.572 105.125C230.036 105.125 229.487 105.233 228.911 105.46C228.817 105.494 228.723 105.514 228.636 105.514C228.362 105.514 228.174 105.386 228.067 105.145C228.027 105.052 228.013 104.978 228.013 104.884C228.013 104.59 228.141 104.389 228.382 104.295C229.172 103.96 229.949 103.799 230.665 103.799C232.949 103.799 233.853 104.924 233.853 107.188V111.755C233.853 112.103 233.538 112.398 233.15 112.398C232.761 112.398 232.447 112.103 232.447 111.755V111.199C231.804 111.989 230.92 112.398 229.795 112.398C228.268 112.398 227.25 111.4 227.25 109.84C227.25 108.279 228.542 107.208 230.384 107.208H230.391ZM232.453 108.956C231.938 108.588 231.308 108.4 230.592 108.4C229.614 108.4 228.824 108.882 228.824 109.766C228.824 110.576 229.38 111.072 230.317 111.072C231.147 111.072 231.844 110.724 232.453 110V108.949V108.956Z" fill="black"/>
<path d="M243.877 111.701C243.95 112.605 242.33 112.605 242.403 111.701V108.768H237.796V111.701C237.87 112.605 236.249 112.605 236.323 111.701V104.589C236.249 103.685 237.87 103.685 237.796 104.589V107.389H242.403V104.589C242.33 103.685 243.95 103.685 243.877 104.589V111.701Z" fill="black"/>
<path d="M254.271 111.702C254.345 112.606 252.724 112.606 252.798 111.702V106.231L248.318 111.742C247.949 112.184 247.601 112.405 247.266 112.405C246.845 112.405 246.53 112.057 246.53 111.668V104.59C246.456 103.686 248.077 103.686 248.003 104.59V110.081L252.483 104.57C252.871 104.108 253.22 103.887 253.534 103.887C253.956 103.887 254.271 104.255 254.271 104.643V111.702Z" fill="black"/>
<path d="M264.483 107.998C264.463 108.293 264.149 108.588 263.854 108.588H258.028C258.155 110.135 259.28 111.072 260.921 111.072C261.698 111.072 262.374 110.905 262.95 110.577C263.077 110.503 263.224 110.463 263.358 110.463C263.546 110.463 263.707 110.536 263.854 110.704C263.928 110.798 263.961 110.905 263.961 111.039C263.961 111.28 263.887 111.44 263.74 111.534C262.876 112.144 261.898 112.458 260.807 112.458C259.461 112.458 258.396 112.07 257.579 111.28C256.769 110.49 256.36 109.438 256.36 108.126C256.36 106.813 256.749 105.842 257.505 105.012C258.262 104.201 259.314 103.793 260.64 103.793C261.724 103.793 262.649 104.141 263.385 104.844C264.122 105.561 264.49 106.465 264.49 107.59C264.49 107.777 264.49 107.905 264.47 107.998H264.483ZM262.97 107.389C262.896 106.009 261.992 105.179 260.573 105.179C259.153 105.179 258.101 106.083 257.941 107.389H262.97Z" fill="black"/>
<path d="M268.072 106.358V111.702C268.146 112.606 266.525 112.606 266.599 111.702V104.59C266.599 104.201 266.934 103.887 267.316 103.887C267.697 103.887 267.905 104.074 268.327 104.603L271.126 108.085L273.798 104.563C274.133 104.101 274.441 103.88 274.736 103.88C275.124 103.88 275.452 104.195 275.452 104.583V111.695C275.526 112.599 273.905 112.599 273.979 111.695V106.351L271.642 109.318C271.347 109.706 270.791 109.706 270.497 109.338L268.066 106.351L268.072 106.358Z" fill="black"/>
<path d="M288.297 224.306H18.2012V225.123H288.297V224.306Z" fill="#B4D2FC"/>
<path d="M288.297 270.58H18.2012V271.397H288.297V270.58Z" fill="#B4D2FC"/>
<path d="M184.111 150.849C184.017 150.943 175.706 159.528 162.614 172.513C161.811 173.31 160.525 173.33 159.701 172.56C158.831 171.743 158.817 170.37 159.661 169.533C172.726 156.595 181.01 148.03 181.104 147.943C181.907 147.106 183.233 147.079 184.064 147.883C184.901 148.7 184.914 150.012 184.111 150.849Z" fill="#1D1D1B"/>
<path d="M158.234 175.058C159.025 175.875 159.011 177.174 158.214 177.984C155.757 180.462 153.105 183.134 150.259 185.927C137.569 198.409 128.187 200.137 123.961 200.137C122.474 200.137 121.637 199.936 121.517 199.896C120.405 199.588 119.742 198.436 120.043 197.324C120.345 196.213 121.483 195.55 122.595 195.851C122.796 195.885 132.218 197.813 147.326 182.947C150.158 180.168 152.797 177.509 155.241 175.031C156.071 174.194 157.424 174.201 158.241 175.051L158.234 175.058Z" fill="#1D1D1B"/>
<path d="M182.637 145.097C182.637 145.097 182.604 145.097 182.584 145.097C181.921 145.07 181.412 144.508 181.439 143.851L181.68 138.28L176.108 138.039C175.445 138.012 174.936 137.449 174.963 136.793C174.99 136.137 175.566 135.628 176.209 135.648L182.972 135.943C183.635 135.969 184.144 136.532 184.117 137.188L183.823 143.952C183.796 144.595 183.267 145.097 182.631 145.097H182.637Z" fill="#ED1C24"/>
<path d="M170.497 149.905C170.169 149.905 169.84 149.771 169.606 149.51C169.164 149.021 169.204 148.264 169.693 147.822L181.667 137.047C182.156 136.605 182.912 136.646 183.354 137.134C183.796 137.623 183.756 138.38 183.267 138.822L171.294 149.597C171.066 149.805 170.778 149.905 170.49 149.905H170.497Z" fill="#ED1C24"/>
<path d="M65.3865 270.62C65.3195 270.62 65.2526 270.62 65.1856 270.613C63.4913 270.452 62.1118 269.555 61.3015 268.088C56.9353 260.18 70.7036 232.054 73.5095 226.496C74.0319 225.464 75.2909 225.056 76.3221 225.571C77.3534 226.094 77.7686 227.353 77.2463 228.384C70.6903 241.389 62.5404 261.673 64.9646 266.066C65.0784 266.274 65.1789 266.381 65.4468 266.428C71.6345 265.932 84.6126 249.8 91.4767 239.567L97.7514 226.415C98.247 225.37 99.4993 224.929 100.544 225.424C101.589 225.92 102.031 227.172 101.535 228.217L95.1933 241.509C95.1531 241.597 95.0996 241.69 95.046 241.771C93.104 244.684 75.7395 270.225 65.4602 270.62C65.4334 270.62 65.4066 270.62 65.3798 270.62H65.3865Z" fill="#000089"/>
<path d="M87.5855 270.62C86.0453 270.62 84.7596 269.95 83.9627 268.725C80.4268 263.287 88.7775 245.119 91.4227 239.681C91.9317 238.643 93.1839 238.215 94.2219 238.71C95.2599 239.219 95.6952 240.472 95.1929 241.51C89.7486 252.706 86.1056 264.439 87.4382 266.381C93.4853 263.997 106.189 251.287 110.676 246.478C111.466 245.635 112.792 245.588 113.636 246.378C114.479 247.168 114.526 248.494 113.736 249.338C111.975 251.226 96.2979 267.854 88.3623 270.499C88.1681 270.56 87.974 270.6 87.7731 270.607C87.7128 270.607 87.6458 270.607 87.5855 270.607V270.62Z" fill="#000089"/>
<path d="M76.757 228.833C76.6633 228.927 68.3527 237.518 55.2607 250.51C54.4571 251.307 53.1714 251.327 52.3477 250.557C51.4771 249.74 51.4637 248.367 52.3075 247.53C65.3727 234.585 73.6565 226.014 73.7502 225.92C74.5538 225.083 75.8797 225.056 76.7101 225.859C77.5472 226.676 77.5606 227.989 76.757 228.833Z" fill="#000089"/>
<path d="M74.7476 223.074C74.7476 223.074 74.7141 223.074 74.6941 223.074C74.0311 223.047 73.5221 222.484 73.5489 221.828L73.79 216.257L68.2184 216.016C67.5554 215.989 67.0465 215.426 67.0733 214.77C67.1001 214.114 67.676 213.598 68.3188 213.625L75.0825 213.92C75.7454 213.946 76.2544 214.509 76.2276 215.165L75.9329 221.935C75.9062 222.578 75.3771 223.081 74.7409 223.081L74.7476 223.074Z" fill="#ED1C24"/>
<path d="M62.6002 227.889C62.272 227.889 61.9439 227.755 61.7095 227.494C61.2675 227.005 61.3077 226.248 61.7966 225.806L73.7702 215.024C74.259 214.582 75.0158 214.623 75.4577 215.112C75.8997 215.6 75.8595 216.357 75.3707 216.799L63.3971 227.581C63.1694 227.788 62.8814 227.889 62.5935 227.889H62.6002Z" fill="#ED1C24"/>
<path d="M205.894 270.64C205.827 270.64 205.76 270.64 205.693 270.633C203.999 270.473 202.62 269.575 201.809 268.109C197.443 260.2 211.211 232.074 214.017 226.516C214.54 225.484 215.799 225.076 216.83 225.592C217.861 226.114 218.276 227.373 217.754 228.404C211.198 241.409 203.048 261.693 205.472 266.086C205.586 266.294 205.687 266.401 205.955 266.448C212.142 265.952 225.12 249.82 231.984 239.588L238.259 226.435C238.755 225.391 240.007 224.949 241.052 225.444C242.096 225.94 242.538 227.192 242.043 228.237L235.701 241.53C235.661 241.617 235.607 241.71 235.554 241.791C233.612 244.704 216.247 270.245 205.968 270.64C205.941 270.64 205.914 270.64 205.888 270.64H205.894Z" fill="#FF767D"/>
<path d="M228.094 270.64C226.554 270.64 225.268 269.97 224.471 268.745C220.936 263.307 229.286 245.139 231.932 239.701C232.44 238.663 233.693 238.235 234.731 238.73C235.769 239.239 236.204 240.492 235.702 241.53C230.257 252.726 226.614 264.459 227.947 266.401C233.994 264.017 246.698 251.307 251.184 246.499C251.975 245.655 253.301 245.608 254.144 246.398C254.988 247.188 255.035 248.514 254.245 249.358C252.484 251.246 236.807 267.874 228.871 270.519C228.677 270.58 228.483 270.62 228.282 270.627C228.222 270.627 228.155 270.627 228.094 270.627V270.64Z" fill="#FF767D"/>
<path d="M217.259 228.853C217.165 228.946 208.855 237.538 195.763 250.53C194.959 251.327 193.673 251.347 192.85 250.577C191.979 249.76 191.966 248.387 192.809 247.55C205.875 234.605 214.158 226.033 214.252 225.94C215.056 225.102 216.382 225.076 217.212 225.879C218.049 226.696 218.063 228.009 217.259 228.853Z" fill="#FF767D"/>
<path d="M196.813 249.351C193.619 252.947 177.648 270.646 170.328 270.646C167.67 270.646 166.203 269.314 165.54 268.249C164.475 266.521 164.341 264.258 164.743 261.726C159.955 267.318 154.497 270.512 150.238 270.512C149.836 270.512 149.575 270.378 149.173 270.378C146.247 270.111 143.983 268.651 142.383 266.253C140.655 263.595 139.189 258.398 142.115 249.083C142.517 247.617 143.046 246.157 143.716 244.824C141.586 246.82 139.457 249.083 137.059 251.48C136.262 252.277 134.93 252.277 134.133 251.48C133.731 251.079 133.47 250.55 133.47 250.014C133.47 248.018 148.906 233.513 151.303 231.384C154.631 228.056 158.89 225.397 163.812 225.397C170.201 225.397 173.924 231.123 174.326 236.842L179.382 225.531C179.784 224.6 181.11 224.064 182.041 224.6C183.105 225.002 183.634 226.201 183.105 227.259L172.592 251.079C170.328 255.74 167.67 263.722 169.129 265.986C169.263 266.119 169.397 266.515 170.328 266.515C174.319 266.515 186.3 254.802 193.619 246.552C194.416 245.755 195.749 245.621 196.546 246.418C197.476 247.215 197.476 248.547 196.813 249.344V249.351ZM150.231 266.253C154.758 266.253 164.207 259.597 169.129 245.092C169.129 244.824 171.661 237.505 168.995 232.978C167.529 230.446 165.667 229.649 163.672 229.649C160.477 229.649 157.283 232.181 156.881 232.308C152.354 236.031 148.497 242.956 146.1 250.409C144.238 256.396 144.104 261.191 145.832 263.983C146.763 265.316 148.49 266.247 150.225 266.247L150.231 266.253Z" fill="#1EB2F4"/>
<path d="M588.099 83.8433H332.849C328.411 83.8433 324.813 87.4411 324.813 91.8792V292.022C324.813 296.46 328.411 300.058 332.849 300.058H588.099C592.537 300.058 596.135 296.46 596.135 292.022V91.8792C596.135 87.4411 592.537 83.8433 588.099 83.8433Z" fill="white"/>
<path d="M591.221 300.674H329.723C326.676 300.674 324.191 298.197 324.191 295.143V88.7585C324.191 85.7115 326.669 83.2271 329.723 83.2271H591.221C594.268 83.2271 596.752 85.7048 596.752 88.7585V295.143C596.752 298.19 594.274 300.674 591.221 300.674ZM329.73 84.4593C327.359 84.4593 325.43 86.3879 325.43 88.7585V295.143C325.43 297.513 327.359 299.442 329.73 299.442H591.227C593.598 299.442 595.526 297.513 595.526 295.143V88.7585C595.526 86.3879 593.598 84.4593 591.227 84.4593H329.73Z" fill="#83BBFF"/>
<path d="M463.014 178.554C463.884 179.358 463.918 180.724 463.081 181.561C461.239 183.41 459.304 185.351 457.255 187.367C444.565 199.85 435.169 201.577 430.957 201.577C429.47 201.577 428.62 201.363 428.506 201.336C427.394 201.028 426.731 199.877 427.033 198.765C427.341 197.653 428.466 196.99 429.584 197.278C429.798 197.325 439.207 199.254 454.315 184.387C456.344 182.392 458.279 180.463 460.114 178.615C460.911 177.811 462.19 177.791 463.021 178.554H463.014Z" fill="#1D1D1B"/>
<path d="M492.372 154.105C492.372 154.105 489.572 154.882 485.199 158.927C482.528 161.405 479.092 164.887 475.121 168.932C472.978 171.101 470.661 173.465 468.163 175.976C467.366 176.78 466.067 176.807 465.237 176.03C464.373 175.22 464.353 173.854 465.19 173.01C467.681 170.512 469.998 168.155 472.134 165.985C476.146 161.913 479.614 158.384 482.367 155.846C487.563 151.025 491.046 150.114 491.414 150.013C492.539 149.752 493.664 150.442 493.939 151.567C494.2 152.706 493.497 153.831 492.372 154.092V154.105Z" fill="#1D1D1B"/>
<path d="M475.146 150.676C474.972 150.676 474.791 150.636 474.624 150.555C474.028 150.267 473.78 149.558 474.068 148.962C474.249 148.587 478.455 140.075 488.131 140.075C488.426 140.075 488.727 140.082 489.029 140.095C489.685 140.129 490.194 140.698 490.16 141.354C490.127 142.017 489.538 142.533 488.901 142.486C480.249 142.004 476.385 149.672 476.225 149.993C476.017 150.422 475.588 150.669 475.146 150.669V150.676Z" fill="#ED1C24"/>
<path d="M485.728 147.528C485.447 147.528 485.172 147.435 484.945 147.234C484.442 146.799 484.389 146.042 484.824 145.546L488.474 141.334L484.262 137.684C483.759 137.249 483.706 136.492 484.141 135.997C484.576 135.495 485.333 135.441 485.829 135.876L490.945 140.309C491.447 140.745 491.501 141.502 491.065 141.997L486.632 147.113C486.398 147.388 486.063 147.528 485.728 147.528Z" fill="#ED1C24"/>
<path d="M348.38 105.173C348.38 106.72 347.496 107.717 346.17 108.173C347.811 108.467 348.842 109.539 348.842 111.253C348.842 113.758 346.981 114.997 344.161 114.997C343.425 114.997 342.521 114.977 341.469 114.963C341.047 114.943 340.692 114.595 340.692 114.173V102.842C340.692 102.42 341.041 102.052 341.469 102.052C343.056 102.019 343.974 101.999 344.235 101.999C347.128 101.999 348.38 103.251 348.38 105.186V105.173ZM342.266 107.677H344.329C345.748 107.677 346.813 106.867 346.813 105.521C346.813 104.175 345.949 103.459 344.195 103.459C343.826 103.459 343.184 103.479 342.259 103.512V107.677H342.266ZM342.266 109.057V113.443C342.835 113.497 343.498 113.517 344.255 113.517C346.19 113.517 347.275 112.707 347.275 111.16C347.275 109.814 346.204 109.057 344.349 109.057H342.266Z" fill="black"/>
<path d="M354.922 114.367C354.996 115.272 353.375 115.272 353.449 114.367V108.12H351.112C350.208 108.193 350.208 106.573 351.112 106.646H357.266C358.17 106.573 358.17 108.193 357.266 108.12H354.929V114.367H354.922Z" fill="black"/>
<path d="M359.014 110.791C359.014 109.539 359.422 108.508 360.246 107.677C361.056 106.867 362.128 106.459 363.433 106.459C364.739 106.459 365.811 106.867 366.641 107.677C367.451 108.508 367.86 109.539 367.86 110.791C367.86 112.044 367.451 113.075 366.641 113.885C365.811 114.716 364.746 115.117 363.433 115.117C362.121 115.117 361.056 114.709 360.246 113.885C359.415 113.075 359.014 112.044 359.014 110.791ZM363.433 113.738C365.108 113.738 366.286 112.539 366.286 110.791C366.286 109.044 365.108 107.845 363.433 107.845C361.759 107.845 360.581 109.044 360.581 110.791C360.581 112.539 361.759 113.738 363.433 113.738Z" fill="black"/>
<path d="M371.437 117.923C371.51 118.827 369.89 118.827 369.963 117.923V107.255C369.89 106.351 371.51 106.351 371.437 107.255V107.624C372.026 106.941 373.131 106.465 374.256 106.465C375.381 106.465 376.359 106.853 377.055 107.624C377.738 108.414 378.086 109.432 378.086 110.664C378.086 111.896 377.678 113.001 376.888 113.851C376.097 114.702 375.046 115.124 373.774 115.124C372.796 115.124 372.006 114.936 371.437 114.555V117.93V117.923ZM371.437 113.095C372.079 113.517 372.816 113.738 373.647 113.738C375.394 113.738 376.519 112.485 376.519 110.717C376.519 108.949 375.508 107.844 373.827 107.844C372.85 107.844 372.039 108.233 371.43 108.99V113.101L371.437 113.095Z" fill="black"/>
<path d="M379.653 110.791C379.653 109.539 380.055 108.508 380.886 107.677C381.716 106.847 382.767 106.459 384.073 106.459C385.379 106.459 386.45 106.867 387.281 107.677C388.091 108.508 388.5 109.539 388.5 110.791C388.5 112.044 388.091 113.075 387.281 113.885C386.45 114.716 385.386 115.117 384.073 115.117C382.761 115.117 381.696 114.709 380.886 113.885C380.055 113.075 379.653 112.044 379.653 110.791ZM384.073 113.738C385.747 113.738 386.926 112.539 386.926 110.791C386.926 109.044 385.747 107.845 384.073 107.845C382.399 107.845 381.22 109.044 381.22 110.791C381.22 112.539 382.399 113.738 384.073 113.738Z" fill="black"/>
<path d="M398.156 110.664C398.136 110.959 397.821 111.253 397.526 111.253H391.707C391.834 112.8 392.959 113.738 394.6 113.738C395.377 113.738 396.053 113.571 396.629 113.242C396.756 113.169 396.903 113.129 397.037 113.129C397.225 113.129 397.386 113.202 397.533 113.37C397.607 113.463 397.647 113.57 397.647 113.704C397.647 113.945 397.573 114.106 397.426 114.2C396.562 114.809 395.584 115.124 394.493 115.124C393.147 115.124 392.082 114.736 391.271 113.946C390.461 113.155 390.053 112.104 390.053 110.791C390.053 109.479 390.441 108.508 391.198 107.677C391.955 106.867 393.006 106.459 394.332 106.459C395.417 106.459 396.341 106.807 397.078 107.51C397.814 108.227 398.182 109.131 398.182 110.256C398.182 110.443 398.182 110.57 398.162 110.664H398.156ZM396.642 110.055C396.569 108.675 395.664 107.845 394.245 107.845C392.825 107.845 391.774 108.749 391.613 110.055H396.642Z" fill="black"/>
<path d="M408.268 107.844C407.491 107.844 406.828 108.119 406.279 108.675C405.709 109.244 405.428 109.947 405.428 110.791C405.428 111.635 405.723 112.392 406.292 112.927C406.861 113.463 407.564 113.738 408.408 113.738C409.091 113.738 409.681 113.55 410.176 113.168C410.377 113.001 410.565 112.927 410.745 112.927C410.913 112.927 411.04 112.981 411.167 113.115C411.294 113.242 411.368 113.389 411.368 113.577C411.368 113.778 411.294 113.945 411.167 114.059C410.377 114.776 409.419 115.131 408.294 115.131C406.968 115.131 405.897 114.722 405.087 113.932C404.256 113.142 403.854 112.11 403.854 110.798C403.854 109.579 404.256 108.548 405.053 107.717C405.843 106.887 406.861 106.465 408.053 106.465C409.085 106.465 409.989 106.686 410.745 107.108C411.007 107.235 411.134 107.456 411.134 107.737C411.134 107.865 411.1 107.978 411.04 108.072C410.913 108.293 410.705 108.407 410.431 108.407C410.303 108.407 410.169 108.387 410.082 108.333C409.473 108.019 408.864 107.851 408.261 107.851L408.268 107.844Z" fill="black"/>
<path d="M423.087 108.689C423.087 109.646 422.605 110.309 421.634 110.658C422.739 110.805 423.369 111.615 423.369 112.626C423.369 114.153 421.929 115.111 419.846 115.111C418.688 115.111 417.744 114.849 416.993 114.354C416.793 114.207 416.679 114.019 416.679 113.785C416.679 113.678 416.719 113.544 416.806 113.396C416.933 113.195 417.121 113.102 417.362 113.102C417.489 113.102 417.623 113.135 417.75 113.216C418.413 113.604 419.043 113.785 419.632 113.785C420.904 113.785 421.808 113.229 421.808 112.419C421.808 111.736 421.199 111.347 420.188 111.347H419.411C419.063 111.347 418.781 111.086 418.781 110.738C418.781 110.423 419.056 110.149 419.411 110.149H420.094C420.924 110.149 421.534 109.633 421.534 108.97C421.534 108.233 420.851 107.771 419.766 107.771C419.123 107.771 418.494 107.919 417.871 108.213C417.777 108.267 417.65 108.287 417.522 108.287C417.281 108.287 417.101 108.173 416.967 107.972C416.913 107.878 416.893 107.785 416.893 107.677C416.893 107.436 417.02 107.256 417.281 107.088C418.018 106.666 418.922 106.445 419.987 106.445C421.976 106.445 423.101 107.296 423.101 108.675L423.087 108.689Z" fill="black"/>
<path d="M428.15 109.867C429.033 109.867 429.717 110.048 430.212 110.403C430.212 108.635 429.864 107.785 428.33 107.785C427.795 107.785 427.245 107.892 426.67 108.119C426.576 108.153 426.489 108.173 426.395 108.173C426.12 108.173 425.933 108.046 425.826 107.805C425.792 107.711 425.772 107.637 425.772 107.544C425.772 107.249 425.899 107.048 426.141 106.954C426.931 106.619 427.708 106.459 428.424 106.459C430.708 106.459 431.612 107.584 431.612 109.847V114.414C431.612 114.763 431.297 115.057 430.909 115.057C430.52 115.057 430.205 114.763 430.205 114.414V113.858C429.563 114.649 428.679 115.057 427.554 115.057C426.027 115.057 425.009 114.059 425.009 112.499C425.009 110.939 426.301 109.867 428.143 109.867H428.15ZM430.219 111.622C429.703 111.254 429.074 111.066 428.357 111.066C427.379 111.066 426.589 111.548 426.589 112.432C426.589 113.242 427.145 113.738 428.083 113.738C428.913 113.738 429.609 113.39 430.219 112.667V111.615V111.622Z" fill="black"/>
<path d="M435.564 114.367C435.637 115.271 434.017 115.271 434.09 114.367V107.255C434.017 106.351 435.637 106.351 435.564 107.255V114.367ZM436.374 111.233C436.133 110.918 436.133 110.443 436.374 110.161L439.16 106.934C439.602 106.418 440.137 106.472 440.392 106.746C440.646 107.021 440.633 107.449 440.392 107.684L437.72 110.597L440.666 113.805C440.814 113.972 440.887 114.153 440.887 114.36C440.887 114.729 440.613 115.063 440.151 115.063C439.876 115.063 439.635 114.936 439.434 114.695L436.374 111.233Z" fill="black"/>
<path d="M444.443 117.923C444.516 118.827 442.896 118.827 442.969 117.923V107.255C442.896 106.351 444.516 106.351 444.443 107.255V107.624C445.032 106.941 446.137 106.465 447.262 106.465C448.387 106.465 449.365 106.853 450.061 107.624C450.744 108.414 451.092 109.432 451.092 110.664C451.092 111.896 450.69 113.001 449.894 113.851C449.103 114.702 448.052 115.124 446.78 115.124C445.802 115.124 445.012 114.936 444.443 114.555V117.93V117.923ZM444.443 113.095C445.085 113.517 445.822 113.738 446.652 113.738C448.4 113.738 449.525 112.485 449.525 110.717C449.525 108.949 448.514 107.844 446.833 107.844C445.856 107.844 445.045 108.233 444.436 108.99V113.101L444.443 113.095Z" fill="black"/>
<path d="M456.108 111.916C456.128 111.97 456.295 112.399 456.603 113.169C456.717 112.76 456.845 112.338 456.992 111.896L458.74 107.122C458.867 106.733 459.108 106.552 459.456 106.552C459.972 106.552 460.267 106.847 460.267 107.269C460.267 107.363 460.246 107.47 460.193 107.617L457.266 114.93C456.697 116.37 456.182 117.341 455.72 117.856C455.257 118.352 454.708 118.613 454.099 118.613C453.121 118.613 452.626 118.318 452.626 117.749C452.626 117.361 452.827 117.16 453.215 117.16C453.342 117.16 453.711 117.254 453.932 117.254C454.615 117.254 455.13 116.698 455.699 115.372L455.887 114.93L452.405 107.671C452.351 107.577 452.331 107.45 452.331 107.322C452.331 106.901 452.646 106.546 453.141 106.546C453.456 106.546 453.697 106.693 453.844 107.008L456.108 111.91V111.916Z" fill="black"/>
<path d="M463.515 108.025V114.367C463.588 115.271 461.968 115.271 462.042 114.367V107.349C462.042 106.961 462.356 106.646 462.745 106.646H466.595C466.984 106.646 467.298 106.961 467.298 107.329C467.298 107.697 466.984 108.032 466.595 108.032H463.515V108.025Z" fill="black"/>
<path d="M475.73 114.367C475.804 115.271 474.183 115.271 474.257 114.367V108.119H471.344L471.25 109.519C471.009 113.369 469.85 115.064 468.464 115.064C468.022 115.064 467.728 114.802 467.728 114.38C467.728 114.032 467.928 113.791 468.317 113.624C468.739 113.456 469.074 113.055 469.315 112.405C469.556 111.762 469.723 110.711 469.81 109.217L469.917 107.336C469.937 106.947 470.266 106.633 470.654 106.633H475.02C475.409 106.633 475.723 106.947 475.723 107.336V114.354L475.73 114.367Z" fill="black"/>
<path d="M485.943 110.664C485.922 110.958 485.608 111.253 485.313 111.253H479.487C479.614 112.8 480.739 113.738 482.38 113.738C483.157 113.738 483.833 113.57 484.409 113.242C484.536 113.168 484.684 113.128 484.817 113.128C484.998 113.128 485.166 113.202 485.313 113.369C485.387 113.463 485.42 113.57 485.42 113.704C485.42 113.945 485.347 114.106 485.199 114.2C484.335 114.809 483.358 115.124 482.273 115.124C480.927 115.124 479.862 114.735 479.045 113.945C478.235 113.155 477.826 112.104 477.826 110.791C477.826 109.479 478.215 108.508 478.971 107.677C479.728 106.867 480.779 106.458 482.105 106.458C483.19 106.458 484.114 106.807 484.851 107.51C485.588 108.226 485.956 109.13 485.956 110.255C485.956 110.443 485.956 110.57 485.936 110.664H485.943ZM479.286 103.699C479.286 103.184 479.654 102.849 480.15 102.849C480.572 102.849 480.96 103.197 480.96 103.699C480.96 104.269 480.592 104.624 480.15 104.624C479.654 104.624 479.286 104.275 479.286 103.699ZM484.429 110.054C484.355 108.675 483.451 107.845 482.032 107.845C480.612 107.845 479.561 108.749 479.4 110.054H484.429ZM483.029 103.699C483.029 103.204 483.418 102.849 483.913 102.849C484.335 102.849 484.724 103.197 484.724 103.699C484.724 104.269 484.355 104.624 483.913 104.624C483.418 104.624 483.029 104.275 483.029 103.699Z" fill="black"/>
<path d="M495.612 114.367C495.686 115.271 494.065 115.271 494.139 114.367V111.434H489.531V114.367C489.605 115.271 487.984 115.271 488.058 114.367V107.256C487.984 106.352 489.605 106.352 489.531 107.256V110.055H494.139V107.256C494.065 106.352 495.686 106.352 495.612 107.256V114.367Z" fill="black"/>
<path d="M505.825 114.367C505.898 115.271 504.278 115.271 504.352 114.367V111.434H499.744V114.367C499.818 115.271 498.197 115.271 498.271 114.367V107.256C498.197 106.352 499.818 106.352 499.744 107.256V110.055H504.352V107.256C504.278 106.352 505.898 106.352 505.825 107.256V114.367Z" fill="black"/>
<path d="M509.95 109.13H511.316C513.674 109.13 514.598 110.309 514.598 111.983C514.598 113.657 513.566 114.93 511.149 114.93H509.18C508.792 114.93 508.477 114.615 508.477 114.226V107.242C508.403 106.338 510.024 106.338 509.95 107.242V109.124V109.13ZM509.95 113.557H511.022C512.441 113.557 513.031 113.061 513.031 112.043C513.031 111.025 512.368 110.516 511.042 110.516H509.957V113.557H509.95ZM517.651 114.367C517.725 115.271 516.105 115.271 516.178 114.367V107.255C516.105 106.351 517.725 106.351 517.651 107.255V114.367Z" fill="black"/>
<path d="M521.783 109.023V114.367C521.857 115.271 520.236 115.271 520.31 114.367V107.256C520.31 106.867 520.645 106.552 521.027 106.552C521.408 106.552 521.616 106.74 522.038 107.269L524.837 110.751L527.509 107.229C527.844 106.767 528.152 106.546 528.447 106.546C528.835 106.546 529.163 106.86 529.163 107.249V114.361C529.237 115.265 527.616 115.265 527.69 114.361V109.017L525.353 111.983C525.058 112.372 524.502 112.372 524.208 112.003L521.777 109.017L521.783 109.023Z" fill="black"/>
<path d="M339.54 132.087C339.54 130.835 339.942 129.803 340.772 128.973C341.603 128.142 342.654 127.754 343.96 127.754C345.266 127.754 346.337 128.162 347.168 128.973C347.978 129.803 348.386 130.835 348.386 132.087C348.386 133.339 347.978 134.37 347.168 135.181C346.337 136.011 345.272 136.413 343.96 136.413C342.647 136.413 341.583 136.004 340.772 135.181C339.942 134.37 339.54 133.339 339.54 132.087ZM343.96 135.033C345.634 135.033 346.813 133.835 346.813 132.087C346.813 130.339 345.634 129.14 343.96 129.14C342.286 129.14 341.107 130.339 341.107 132.087C341.107 133.835 342.286 135.033 343.96 135.033Z" fill="black"/>
<path d="M351.955 135.663C352.029 136.567 350.408 136.567 350.482 135.663V128.551C350.408 127.647 352.029 127.647 351.955 128.551V135.663ZM352.765 132.529C352.524 132.214 352.524 131.738 352.765 131.457L355.545 128.229C355.987 127.714 356.522 127.767 356.777 128.042C357.038 128.316 357.018 128.745 356.777 128.979L354.105 131.892L357.051 135.1C357.199 135.268 357.272 135.448 357.272 135.656C357.272 136.024 356.998 136.359 356.536 136.359C356.261 136.359 356.02 136.232 355.819 135.991L352.759 132.529H352.765Z" fill="black"/>
<path d="M358.812 132.087C358.812 130.835 359.214 129.803 360.045 128.973C360.855 128.162 361.926 127.754 363.232 127.754C364.538 127.754 365.61 128.162 366.44 128.973C367.25 129.803 367.659 130.835 367.659 132.087C367.659 133.339 367.25 134.37 366.44 135.181C365.61 136.011 364.545 136.413 363.232 136.413C361.92 136.413 360.855 136.004 360.045 135.181C359.214 134.37 358.812 133.339 358.812 132.087ZM363.232 135.033C364.906 135.033 366.085 133.835 366.085 132.087C366.085 130.339 364.906 129.14 363.232 129.14C361.558 129.14 360.379 130.339 360.379 132.087C360.379 133.835 361.558 135.033 363.232 135.033Z" fill="black"/>
<path d="M377.315 135.663C377.389 136.567 375.768 136.567 375.842 135.663V132.73H371.234V135.663C371.308 136.567 369.688 136.567 369.761 135.663V128.551C369.688 127.647 371.308 127.647 371.234 128.551V131.35H375.842V128.551C375.768 127.647 377.389 127.647 377.315 128.551V135.663Z" fill="black"/>
<path d="M384.722 128.544C384.648 127.64 386.269 127.64 386.195 128.544V135.656C386.269 136.56 384.648 136.56 384.722 135.656V133.004C384.079 133.413 383.322 133.613 382.418 133.613C380.449 133.613 379.472 132.562 379.472 130.446V128.551C379.472 128.162 379.807 127.848 380.262 127.848C380.717 127.848 381.039 128.162 381.039 128.551V130.285C381.039 131.591 381.628 132.241 382.827 132.241C383.604 132.241 384.226 132.073 384.722 131.725V128.558V128.544Z" fill="black"/>
<path d="M391.393 131.163C392.277 131.163 392.96 131.343 393.455 131.698C393.455 129.93 393.107 129.08 391.573 129.08C391.038 129.08 390.489 129.187 389.913 129.415C389.819 129.448 389.732 129.468 389.638 129.468C389.364 129.468 389.176 129.341 389.069 129.1C389.035 129.006 389.015 128.933 389.015 128.839C389.015 128.544 389.143 128.343 389.384 128.249C390.174 127.915 390.951 127.754 391.667 127.754C393.951 127.754 394.855 128.879 394.855 131.142V135.71C394.855 136.058 394.54 136.352 394.152 136.352C393.763 136.352 393.449 136.058 393.449 135.71V135.154C392.806 135.944 391.922 136.352 390.797 136.352C389.27 136.352 388.252 135.355 388.252 133.794C388.252 132.234 389.544 131.163 391.386 131.163H391.393ZM393.455 132.917C392.94 132.549 392.31 132.361 391.594 132.361C390.616 132.361 389.826 132.843 389.826 133.727C389.826 134.538 390.381 135.033 391.319 135.033C392.149 135.033 392.846 134.685 393.455 133.962V132.91V132.917Z" fill="black"/>
<path d="M404.879 135.663C404.953 136.567 403.333 136.567 403.406 135.663V132.73H398.799V135.663C398.873 136.567 397.252 136.567 397.326 135.663V128.551C397.252 127.647 398.873 127.647 398.799 128.551V131.35H403.406V128.551C403.333 127.647 404.953 127.647 404.879 128.551V135.663Z" fill="black"/>
<path d="M415.272 135.663C415.346 136.567 413.725 136.567 413.799 135.663V130.191L409.319 135.703C408.95 136.145 408.602 136.366 408.267 136.366C407.845 136.366 407.531 136.017 407.531 135.629V128.551C407.457 127.647 409.078 127.647 409.004 128.551V134.042L413.484 128.531C413.873 128.069 414.221 127.848 414.535 127.848C414.957 127.848 415.272 128.216 415.272 128.604V135.663Z" fill="black"/>
<path d="M425.478 131.959C425.458 132.254 425.143 132.549 424.848 132.549H419.029C419.156 134.096 420.281 135.033 421.922 135.033C422.699 135.033 423.375 134.866 423.951 134.538C424.078 134.464 424.226 134.424 424.36 134.424C424.547 134.424 424.708 134.497 424.855 134.665C424.929 134.759 424.969 134.866 424.969 135C424.969 135.241 424.895 135.402 424.748 135.495C423.884 136.105 422.906 136.42 421.815 136.42C420.469 136.42 419.404 136.031 418.594 135.241C417.784 134.451 417.375 133.399 417.375 132.087C417.375 130.774 417.763 129.803 418.52 128.973C419.277 128.162 420.328 127.754 421.654 127.754C422.739 127.754 423.663 128.102 424.4 128.805C425.136 129.522 425.505 130.426 425.505 131.551C425.505 131.739 425.505 131.866 425.485 131.959H425.478ZM423.971 131.35C423.898 129.971 422.993 129.14 421.574 129.14C420.154 129.14 419.103 130.044 418.942 131.35H423.971Z" fill="black"/>
<path d="M429.074 130.319V135.662C429.148 136.567 427.527 136.567 427.601 135.662V128.551C427.601 128.162 427.936 127.848 428.318 127.848C428.699 127.848 428.907 128.035 429.329 128.564L432.128 132.046L434.8 128.524C435.135 128.062 435.443 127.841 435.738 127.841C436.126 127.841 436.454 128.156 436.454 128.544V135.656C436.528 136.56 434.907 136.56 434.981 135.656V130.312L432.644 133.278C432.349 133.667 431.793 133.667 431.499 133.299L429.068 130.312L429.074 130.319Z" fill="black"/>
<path d="M595.406 224.099H325.544V224.916H595.406V224.099Z" fill="#B4D2FC"/>
<path d="M595.406 270.372H325.544V271.189H595.406V270.372Z" fill="#B4D2FC"/>
<path d="M529.625 299.857H383.437V300.675H529.625V299.857Z" fill="#B4D2FC"/>
<path d="M372.461 226.007C372.287 226.007 372.106 225.967 371.938 225.887C371.342 225.599 371.095 224.889 371.383 224.293C371.57 223.911 375.99 214.918 386.343 215.433C386.999 215.467 387.508 216.036 387.475 216.692C387.441 217.355 386.879 217.864 386.216 217.824C377.584 217.362 373.7 225.009 373.539 225.331C373.331 225.759 372.903 226.007 372.461 226.007Z" fill="#ED1C24"/>
<path d="M383.042 222.86C382.76 222.86 382.486 222.766 382.258 222.565C381.756 222.13 381.702 221.373 382.138 220.878L385.787 216.666L381.575 213.016C381.073 212.581 381.019 211.824 381.454 211.328C381.89 210.826 382.647 210.779 383.142 211.208L388.258 215.641C388.761 216.076 388.814 216.833 388.379 217.329L383.946 222.445C383.711 222.719 383.376 222.86 383.042 222.86Z" fill="#ED1C24"/>
<path d="M455.686 270.433C455.619 270.433 455.552 270.433 455.485 270.426C453.791 270.265 452.412 269.368 451.601 267.901C447.235 259.993 461.003 231.867 463.809 226.309C464.332 225.277 465.591 224.869 466.622 225.384C467.653 225.907 468.068 227.166 467.546 228.197C460.99 241.202 452.84 261.486 455.264 265.879C455.378 266.087 455.479 266.194 455.747 266.241C461.934 265.745 474.912 249.613 481.776 239.38L488.051 226.228C488.547 225.183 489.799 224.742 490.844 225.237C491.888 225.733 492.33 226.985 491.835 228.03L485.493 241.322C485.453 241.409 485.399 241.503 485.346 241.584C483.404 244.497 466.039 270.038 455.76 270.433C455.733 270.433 455.706 270.433 455.68 270.433H455.686Z" fill="#1EB2F4"/>
<path d="M477.886 270.439C476.346 270.439 475.06 269.77 474.263 268.544C470.728 263.106 479.078 244.938 481.723 239.501C482.232 238.463 483.485 238.034 484.523 238.53C485.561 239.039 485.996 240.291 485.494 241.329C480.049 252.526 476.406 264.258 477.739 266.2C483.786 263.816 496.49 251.106 500.976 246.298C501.767 245.454 503.093 245.407 503.936 246.197C504.78 246.988 504.827 248.314 504.037 249.157C502.276 251.046 486.599 267.674 478.663 270.319C478.469 270.379 478.275 270.419 478.074 270.426C478.014 270.426 477.947 270.426 477.886 270.426V270.439Z" fill="#1EB2F4"/>
<path d="M467.051 228.646C466.957 228.74 458.647 237.331 445.555 250.323C444.751 251.12 443.465 251.14 442.642 250.37C441.771 249.553 441.758 248.18 442.601 247.343C455.667 234.398 463.95 225.826 464.044 225.733C464.848 224.896 466.174 224.869 467.004 225.673C467.841 226.49 467.855 227.802 467.051 228.646Z" fill="#1EB2F4"/>
<path d="M561.535 249.144C558.34 252.74 542.369 270.44 535.049 270.44C532.391 270.44 530.924 269.107 530.261 268.042C529.196 266.314 529.062 264.051 529.464 261.52C524.676 267.111 519.218 270.306 514.959 270.306C514.558 270.306 514.296 270.172 513.895 270.172C510.968 269.904 508.705 268.444 507.104 266.047C505.376 263.388 503.91 258.191 506.836 248.876C507.238 247.41 507.767 245.95 508.437 244.617C506.307 246.613 504.091 249.359 501.693 251.756C500.896 252.553 499.644 252.164 498.854 251.274C498.003 250.531 498.07 249.298 498.419 248.89C502.738 243.874 513.627 233.307 516.024 231.177C519.352 227.849 523.611 225.19 528.533 225.19C534.922 225.19 538.645 230.916 539.047 236.635L544.103 225.324C544.505 224.393 545.831 223.858 546.762 224.393C547.826 224.795 548.356 225.994 547.827 227.052L537.313 250.872C535.049 255.533 532.391 263.515 533.851 265.779C533.985 265.913 534.118 266.308 535.049 266.308C539.04 266.308 551.021 254.595 558.34 246.345C559.137 245.548 560.47 245.414 561.267 246.211C562.198 247.008 562.198 248.341 561.535 249.137V249.144ZM514.959 266.047C519.486 266.047 528.935 259.39 533.857 244.885C533.857 244.617 536.389 237.298 533.723 232.771C532.257 230.24 530.395 229.443 528.4 229.443C525.205 229.443 522.011 231.974 521.609 232.101C517.082 235.825 513.225 242.749 510.827 250.202C508.966 256.189 508.832 260.984 510.56 263.776C511.49 265.109 513.218 266.04 514.953 266.04L514.959 266.047Z" fill="#FF767D"/>
<path d="M422.311 249.144C419.117 252.74 403.145 270.44 395.826 270.44C393.167 270.44 391.701 269.107 391.038 268.042C389.973 266.314 389.839 264.051 390.241 261.52C385.453 267.111 379.995 270.306 375.736 270.306C375.334 270.306 375.073 270.172 374.671 270.172C371.744 269.904 369.481 268.444 367.88 266.047C366.153 263.388 364.686 258.191 367.613 248.876C368.014 247.41 368.543 245.95 369.213 244.617C367.084 246.613 364.867 249.359 362.47 251.756C361.673 252.553 360.42 252.164 359.63 251.274C358.78 250.531 358.847 249.298 359.195 248.89C363.514 243.874 374.403 233.307 376.8 231.177C380.129 227.849 384.388 225.19 389.31 225.19C395.698 225.19 399.422 230.916 399.824 236.635L404.88 225.324C405.281 224.393 406.607 223.858 407.538 224.393C408.603 224.795 409.132 225.994 408.603 227.052L398.089 250.872C395.826 255.533 393.167 263.515 394.627 265.779C394.761 265.913 394.895 266.308 395.826 266.308C399.817 266.308 411.797 254.595 419.117 246.345C419.914 245.548 421.246 245.414 422.043 246.211C422.974 247.008 422.974 248.341 422.311 249.137V249.144ZM375.729 266.047C380.256 266.047 389.705 259.39 394.627 244.885C394.627 244.617 397.158 237.298 394.493 232.771C393.026 230.24 391.165 229.443 389.169 229.443C385.975 229.443 382.781 231.974 382.379 232.101C377.852 235.825 373.995 242.749 371.597 250.202C369.735 256.189 369.602 260.984 371.329 263.776C372.26 265.109 373.988 266.04 375.722 266.04L375.729 266.047Z" fill="#000089"/>
</svg>
