<svg width="505" height="258" viewBox="0 0 505 258" fill="none" xmlns="http://www.w3.org/2000/svg">
<g clip-path="url(#clip0_565_1525)">
<path d="M504.172 0H0V257.68H504.172V0Z" fill="#FFF6ED"/>
<path d="M317.648 163.329C310.809 163.329 304.075 162.743 297.465 161.565C274.235 157.43 252.561 145.969 233.039 127.506C213.745 109.256 192.672 95.782 170.407 87.4722C152.599 80.8223 133.991 77.4328 115.095 77.4029H114.842C82.7805 77.4029 60.7385 87.2088 60.5198 87.3082L59.7942 85.7028C60.0178 85.6034 82.3829 75.6436 114.842 75.6436H115.016C134.131 75.6634 152.962 79.0828 170.973 85.8022C193.477 94.1966 214.769 107.799 234.251 126.228C253.51 144.448 274.871 155.75 297.743 159.83C316.043 163.096 335.361 161.769 355.162 155.884C388.943 145.85 412.709 125.761 412.948 125.562L414.096 126.904C413.857 127.108 389.847 147.41 355.723 157.564C342.791 161.411 330.048 163.339 317.653 163.339L317.648 163.329Z" fill="#1CAAF9"/>
<path d="M92.7055 96.0256C92.8844 97.3178 92.7601 98.5006 92.3228 99.5692C91.8854 100.638 91.1548 101.512 90.131 102.188C91.7562 102.521 93.0633 103.212 94.0523 104.261C95.0414 105.31 95.6427 106.637 95.8664 108.237C96.2342 110.861 95.5533 112.993 93.8187 114.633C92.0892 116.273 89.306 117.362 85.4741 117.899L75.9168 119.236L75.4347 115.791L78.8391 115.314L75.9466 94.6091L72.5421 95.0863L72.0601 91.642L81.7615 90.2852C85.1163 89.818 87.6957 90.0516 89.4948 90.9959C91.294 91.9402 92.3625 93.6151 92.6955 96.0156L92.7055 96.0256ZM88.6201 96.8208C88.4412 95.5286 87.8448 94.6191 86.8409 94.0923C85.8319 93.5654 84.495 93.4213 82.8251 93.6549L80.0966 94.0376L81.2198 102.094L83.9831 101.706C87.4621 101.219 89.0078 99.594 88.6201 96.8208ZM91.6319 108.759C91.4182 107.233 90.7175 106.169 89.5346 105.573C88.3517 104.972 86.6222 104.832 84.3509 105.151L81.6969 105.523L82.9841 114.748L84.6342 114.519C86.2792 114.29 87.6211 113.997 88.6549 113.649C89.6887 113.301 90.4888 112.74 91.0604 111.969C91.6319 111.199 91.8208 110.13 91.6319 108.764V108.759Z" fill="black"/>
<path d="M119.375 107.457L103.088 107.437C103.321 109.296 104.037 110.767 105.245 111.85C106.452 112.929 107.929 113.47 109.678 113.475C110.96 113.475 112.148 113.212 113.246 112.685C114.345 112.158 115.264 111.343 116.005 110.25L119.37 111.771C118.306 113.421 116.914 114.668 115.195 115.508C113.475 116.348 111.606 116.77 109.584 116.765C107.486 116.765 105.627 116.323 104.002 115.448C102.377 114.574 101.11 113.351 100.21 111.786C99.3056 110.22 98.8533 108.456 98.8583 106.497C98.8583 104.549 99.3106 102.795 100.205 101.229C101.1 99.6637 102.327 98.446 103.878 97.5663C105.434 96.6866 107.143 96.2493 109.017 96.2493C111.065 96.2493 112.844 96.7065 114.365 97.616C115.886 98.5255 117.083 99.8177 117.953 101.503C118.828 103.187 119.3 105.175 119.37 107.467L119.375 107.457ZM109.087 99.4251C107.645 99.4251 106.383 99.9072 105.294 100.871C104.211 101.836 103.51 103.113 103.202 104.703L115.364 104.718C115.006 103.128 114.25 101.85 113.097 100.881C111.939 99.9122 110.602 99.4251 109.087 99.4251Z" fill="black"/>
<path d="M130.214 101.443L129.424 106.95L140.452 99.4599L145.318 100.161L144.831 103.545L140.9 102.979L133.887 107.854L139.672 115.538L143.037 116.02L142.555 119.385L137.649 118.679L129.32 107.621L128.415 113.913L131.377 114.34L130.895 117.705L120.925 116.273L121.407 112.909L124.628 113.371L126.422 100.891L123.201 100.429L123.688 97.0444L133.514 98.4559L133.027 101.84L130.209 101.438L130.214 101.443Z" fill="black"/>
<path d="M162.281 113.023L163.498 108.779L158.951 107.477L155.477 119.593L158.603 120.488L157.663 123.758L147.768 120.92L148.708 117.65L151.834 118.545L155.308 106.428L150.795 105.136L149.577 109.38L146.307 108.441L148.464 100.906L167.708 106.418L165.551 113.953L162.281 113.013V113.023Z" fill="black"/>
<path d="M186.296 124.872C185.54 126.601 184.437 128.003 182.991 129.076C181.539 130.15 179.919 130.796 178.135 131.01C176.346 131.223 174.591 130.955 172.862 130.199C171.078 129.419 169.651 128.301 168.583 126.84C167.514 125.379 166.893 123.758 166.724 121.974C166.555 120.195 166.843 118.435 167.599 116.711C168.389 114.902 169.492 113.46 170.909 112.387C172.325 111.313 173.92 110.682 175.7 110.493C177.474 110.305 179.268 110.608 181.072 111.398C182.822 112.163 184.223 113.282 185.277 114.753C186.325 116.229 186.947 117.859 187.136 119.648C187.324 121.437 187.046 123.177 186.306 124.872H186.296ZM174.348 126.795C175.386 127.247 176.46 127.391 177.563 127.232C178.672 127.068 179.666 126.636 180.55 125.935C181.435 125.234 182.116 124.34 182.588 123.256C183.05 122.193 183.239 121.099 183.155 119.971C183.07 118.843 182.712 117.814 182.086 116.875C181.46 115.936 180.615 115.235 179.556 114.773C178.518 114.32 177.444 114.176 176.336 114.345C175.227 114.514 174.224 114.951 173.319 115.662C172.419 116.373 171.734 117.258 171.271 118.321C170.809 119.385 170.62 120.483 170.715 121.626C170.809 122.769 171.177 123.803 171.818 124.732C172.464 125.657 173.304 126.348 174.343 126.8L174.348 126.795Z" fill="black"/>
<path d="M208.621 138.211C207.682 139.757 206.439 140.989 204.903 141.899C203.368 142.813 201.742 143.28 200.033 143.305C198.323 143.33 196.713 142.888 195.207 141.968C192.985 140.616 191.564 138.584 190.938 135.865L186.922 142.465L190.157 144.433L188.388 147.341L178.88 141.556L180.65 138.648L183.652 140.472L194.73 122.267L191.951 120.577L193.731 117.655L199.779 121.333L198.164 123.987C199.575 123.52 200.917 123.346 202.195 123.475C203.472 123.604 204.675 124.012 205.803 124.698C207.373 125.652 208.531 126.889 209.282 128.405C210.032 129.921 210.345 131.546 210.226 133.276C210.107 135.005 209.57 136.65 208.621 138.206V138.211ZM196.976 138.961C197.881 139.513 198.855 139.747 199.903 139.662C200.952 139.578 201.956 139.21 202.915 138.554C203.875 137.898 204.665 137.063 205.281 136.054C205.902 135.035 206.245 133.957 206.315 132.823C206.384 131.69 206.181 130.627 205.699 129.638C205.221 128.649 204.486 127.849 203.497 127.247C202.463 126.621 201.375 126.328 200.222 126.367C199.069 126.412 197.995 126.74 197.001 127.361C196.002 127.983 195.177 128.828 194.526 129.901C193.477 131.626 193.199 133.311 193.691 134.956C194.183 136.596 195.281 137.933 196.976 138.966V138.961Z" fill="black"/>
<path d="M220.539 139.334L217.786 142.788L224.59 148.221L227.343 144.767L225.017 142.913L227.149 140.239L235.007 146.511L232.875 149.185L230.33 147.157L222.467 157.013L225.012 159.04L222.89 161.699L215.032 155.427L217.154 152.768L219.48 154.622L222.741 150.532L215.937 145.1L212.676 149.19L215.017 151.059L212.895 153.718L205.023 147.435L207.145 144.776L209.704 146.819L217.567 136.964L215.007 134.921L217.139 132.247L225.012 138.529L222.88 141.203L220.539 139.334Z" fill="black"/>
<path d="M239.664 156.103L236.99 159.333L238.913 160.924C239.892 161.734 240.826 162.663 241.721 163.717C242.616 164.771 243.177 165.919 243.396 167.171C243.62 168.419 243.222 169.656 242.208 170.879C240.871 172.494 239.291 173.215 237.472 173.051C235.648 172.887 233.411 171.709 230.767 169.512L224.033 163.936L226.2 161.316L228.675 163.369L236.711 153.658L234.236 151.605L236.418 148.971L244.519 155.675L242.337 158.31L239.659 156.093L239.664 156.103ZM239.042 168.354C239.668 167.594 239.823 166.818 239.495 166.028C239.167 165.238 238.322 164.279 236.965 163.155L235.101 161.61L231.552 165.894L233.332 167.365C234.708 168.503 235.852 169.139 236.761 169.268C237.671 169.398 238.431 169.09 239.042 168.349V168.354ZM254.743 168.583L246.706 178.294L249.211 180.366L247.044 182.986L239.311 176.584L241.478 173.965L243.784 175.874L251.82 166.162L249.514 164.254L251.696 161.62L259.429 168.021L257.247 170.655L254.743 168.583Z" fill="black"/>
<path d="M274.826 187.205L260.195 180.058C259.588 181.833 259.588 183.468 260.205 184.969C260.816 186.47 261.909 187.603 263.48 188.368C264.633 188.93 265.816 189.213 267.033 189.218C268.251 189.223 269.434 188.895 270.577 188.234L272.933 191.072C271.258 192.091 269.459 192.603 267.545 192.608C265.632 192.608 263.763 192.17 261.949 191.281C260.065 190.361 258.584 189.153 257.511 187.653C256.432 186.152 255.831 184.502 255.707 182.697C255.578 180.893 255.945 179.109 256.805 177.35C257.66 175.6 258.833 174.219 260.319 173.205C261.81 172.191 263.445 171.629 265.224 171.52C267.004 171.411 268.738 171.763 270.423 172.588C272.262 173.488 273.663 174.676 274.633 176.157C275.602 177.638 276.109 179.328 276.158 181.221C276.208 183.115 275.761 185.113 274.821 187.2L274.826 187.205ZM269.096 175.476C267.799 174.845 266.452 174.726 265.055 175.118C263.654 175.511 262.471 176.356 261.497 177.648L272.426 182.986C272.804 181.4 272.684 179.919 272.068 178.542C271.452 177.166 270.463 176.142 269.101 175.481L269.096 175.476Z" fill="black"/>
<path d="M175.059 55.5249L172.424 62.9053L182.802 59.7196L183.254 58.4472L180.451 57.4483L181.599 54.2277L191.072 57.6073L189.924 60.8279L186.862 59.7345L182.628 71.6078L185.694 72.7012L184.551 75.9069L175.078 72.5273L176.222 69.3216L179.025 70.3206L181.693 62.8357L171.306 66.0414L170.824 67.3982L173.642 68.4022L172.499 71.6028L163.011 68.2183L164.154 65.0126L167.216 66.106L171.45 54.2327L168.384 53.1393L169.532 49.9187L179.02 53.3033L177.872 56.5238L175.054 55.5199L175.059 55.5249Z" fill="black"/>
<path d="M206.012 69.0383L204.049 82.2386L206.703 83.6252L205.127 86.6371L196.678 82.2187L198.254 79.2069L200.644 80.4593L202.896 67.1397L192.931 76.4237L195.47 77.7507L193.895 80.7625L185.247 76.2398L186.823 73.228L189.74 74.7538L199.874 65.8276L197.155 64.4062L198.741 61.3745L210.221 67.3783L208.636 70.41L206.017 69.0383H206.012Z" fill="black"/>
<path d="M226.985 82.333L223.392 95.1855L225.852 96.8951L223.914 99.6883L216.081 94.2461L218.019 91.453L220.236 92.9937L224.137 80.0617L213.089 88.0286L215.44 89.6638L213.501 92.4569L205.485 86.8905L207.423 84.0974L210.127 85.976L221.294 78.3868L218.775 76.6374L220.728 73.8293L231.369 81.2247L229.415 84.0328L226.985 82.343V82.333Z" fill="black"/>
<path d="M254.598 114.256C253.326 115.647 251.83 116.616 250.111 117.163C248.396 117.715 246.656 117.799 244.897 117.421C243.138 117.044 241.562 116.219 240.171 114.941C238.863 113.744 237.924 112.367 237.348 110.811C236.776 109.256 236.612 107.645 236.856 105.971C237.099 104.301 237.775 102.73 238.883 101.274L235.588 98.2521L232.055 102.109L234.261 104.132L231.96 106.636L224.565 99.8524L226.866 97.3475L229.236 99.5194L237.755 90.2305L235.384 88.0586L237.695 85.5388L245.091 92.3229L242.78 94.8427L240.573 92.8199L237.586 96.0752L240.936 99.1467C242.258 98.103 243.699 97.437 245.25 97.1488C246.801 96.8605 248.341 96.945 249.867 97.4072C251.393 97.8694 252.779 98.6745 254.032 99.8226C255.423 101.095 256.378 102.596 256.9 104.325C257.421 106.05 257.486 107.795 257.088 109.549C256.691 111.308 255.856 112.874 254.589 114.256H254.598ZM242.71 112.228C243.58 113.028 244.569 113.515 245.672 113.689C246.776 113.863 247.859 113.754 248.923 113.361C249.986 112.968 250.896 112.362 251.646 111.542C252.432 110.687 252.963 109.708 253.247 108.595C253.53 107.481 253.525 106.388 253.237 105.309C252.943 104.231 252.372 103.302 251.522 102.516C250.677 101.741 249.708 101.254 248.605 101.06C247.506 100.861 246.413 100.956 245.334 101.333C244.251 101.711 243.317 102.327 242.536 103.182C241.771 104.017 241.249 104.986 240.976 106.09C240.702 107.193 240.702 108.287 240.976 109.38C241.254 110.473 241.835 111.423 242.715 112.228H242.71Z" fill="black"/>
<path d="M272.287 123.862L274.672 120.145L270.691 117.59L263.887 128.201L266.626 129.956L264.792 132.818L256.124 127.262L257.958 124.399L260.697 126.154L267.501 115.543L263.549 113.008L261.164 116.726L258.301 114.892L262.531 108.296L279.384 119.101L275.154 125.696L272.292 123.862H272.287Z" fill="black"/>
<path d="M298.926 136.939C298.32 138.643 297.356 140.1 296.034 141.302C294.716 142.505 293.22 143.295 291.551 143.668C289.881 144.041 288.216 143.931 286.556 143.34C284.105 142.465 282.301 140.766 281.138 138.231L278.544 145.507L282.113 146.779L280.969 149.98L270.488 146.242L271.631 143.037L274.941 144.215L282.098 124.141L279.031 123.047L280.179 119.827L286.849 122.203L285.805 125.125C287.092 124.379 288.375 123.942 289.652 123.808C290.929 123.674 292.187 123.828 293.429 124.27C295.159 124.886 296.545 125.86 297.589 127.192C298.633 128.524 299.269 130.05 299.498 131.77C299.731 133.489 299.537 135.204 298.926 136.924V136.939ZM287.679 140.035C288.678 140.393 289.682 140.423 290.686 140.124C291.695 139.831 292.599 139.265 293.409 138.43C294.219 137.595 294.821 136.616 295.218 135.502C295.621 134.379 295.74 133.251 295.576 132.128C295.412 131.004 295 130.005 294.329 129.131C293.658 128.256 292.778 127.625 291.69 127.237C290.552 126.83 289.423 126.765 288.305 127.043C287.187 127.317 286.203 127.858 285.353 128.669C284.503 129.479 283.867 130.473 283.444 131.656C282.764 133.559 282.833 135.264 283.653 136.775C284.468 138.281 285.81 139.369 287.679 140.035Z" fill="black"/>
<path d="M320.352 136.337L319.497 145.467L322.737 145.77L322.419 149.155L315.829 148.538L316.053 146.163C314.045 147.793 311.913 148.504 309.651 148.295C308.463 148.186 307.4 147.808 306.46 147.162C305.526 146.516 304.8 145.706 304.294 144.721C303.787 143.737 303.583 142.684 303.687 141.556C303.801 140.343 304.229 139.289 304.974 138.4C305.72 137.51 306.674 136.859 307.837 136.446C309 136.034 310.148 135.885 311.276 135.989C313.165 136.168 314.875 136.884 316.405 138.141L316.599 136.064C316.738 134.553 316.52 133.445 315.943 132.734C315.367 132.023 314.348 131.601 312.887 131.466C311.858 131.372 310.978 131.476 310.248 131.785C309.517 132.093 308.891 132.61 308.369 133.325L304.81 132.083C305.775 130.627 306.992 129.588 308.463 128.962C309.935 128.335 311.629 128.117 313.558 128.296C316.147 128.539 317.986 129.305 319.069 130.592C320.153 131.879 320.58 133.797 320.342 136.337H320.352ZM310.441 145.417C312.305 145.591 314.129 144.975 315.903 143.568L316.117 141.307C314.581 139.866 312.986 139.066 311.331 138.912C310.327 138.817 309.428 139.051 308.637 139.617C307.847 140.179 307.41 140.939 307.32 141.899C307.236 142.818 307.484 143.613 308.061 144.279C308.642 144.945 309.437 145.328 310.441 145.422V145.417Z" fill="black"/>
<path d="M332.975 132.306L334.66 144.801L343.07 143.668L341.385 131.173L338.452 131.566L337.995 128.176L347.94 126.834L348.397 130.224L345.172 130.656L346.857 143.151L350.758 142.624L352.06 152.296L348.725 152.743L347.876 146.441L328.13 149.1L327.677 145.73L330.883 145.298L329.198 132.803L325.993 133.236L325.535 129.846L335.48 128.504L335.938 131.894L332.971 132.292L332.975 132.306Z" fill="black"/>
<path d="M357.736 127.232L360.286 134.642L366.409 125.676L365.971 124.399L363.158 125.368L362.045 122.133L371.553 118.863L372.666 122.098L369.59 123.157L373.69 135.075L376.766 134.016L377.875 137.232L368.367 140.502L367.259 137.286L370.072 136.317L367.487 128.803L361.374 137.788L361.841 139.15L364.674 138.176L365.783 141.392L356.255 144.667L355.147 141.451L358.223 140.393L354.123 128.475L351.047 129.533L349.933 126.298L359.461 123.022L360.574 126.258L357.741 127.232H357.736Z" fill="black"/>
<path d="M380.901 117.834L384.594 124.747L389.216 114.921L388.58 113.734L385.956 115.135L384.345 112.118L393.212 107.382L394.822 110.399L391.955 111.929L397.894 123.047L400.761 121.517L402.367 124.518L393.5 129.255L391.895 126.253L394.519 124.851L390.772 117.844L386.16 127.684L386.84 128.957L389.479 127.545L391.085 130.547L382.198 135.293L380.593 132.296L383.461 130.761L377.522 119.643L374.654 121.174L373.044 118.157L381.93 113.41L383.54 116.427L380.901 117.839V117.834Z" fill="black"/>
<path d="M170.187 58.5547L168.916 59.7783L308.809 205.098L310.08 203.875L170.187 58.5547Z" fill="#1CAAF9"/>
<path d="M242.178 130.438H237.989V134.628H242.178V130.438Z" fill="#FFF6ED"/>
<path d="M243.058 135.507H237.104V129.553H243.058V135.507ZM238.873 133.743H241.299V131.318H238.873V133.743Z" fill="#1CAAF9"/>
<path d="M169.557 61.5535C170.871 61.5535 171.937 60.4877 171.937 59.1729C171.937 57.8581 170.871 56.7922 169.557 56.7922C168.242 56.7922 167.176 57.8581 167.176 59.1729C167.176 60.4877 168.242 61.5535 169.557 61.5535Z" fill="#FFF6ED"/>
<path d="M169.557 62.4332C167.758 62.4332 166.296 60.9721 166.296 59.1729C166.296 57.3738 167.758 55.9126 169.557 55.9126C171.356 55.9126 172.817 57.3738 172.817 59.1729C172.817 60.9721 171.356 62.4332 169.557 62.4332ZM169.557 57.677C168.732 57.677 168.061 58.3479 168.061 59.1729C168.061 59.9979 168.732 60.6689 169.557 60.6689C170.382 60.6689 171.053 59.9979 171.053 59.1729C171.053 58.3479 170.382 57.677 169.557 57.677Z" fill="#1CAAF9"/>
<path d="M309.448 206.876C310.762 206.876 311.828 205.811 311.828 204.496C311.828 203.181 310.762 202.115 309.448 202.115C308.133 202.115 307.067 203.181 307.067 204.496C307.067 205.811 308.133 206.876 309.448 206.876Z" fill="#FFF6ED"/>
<path d="M309.447 207.756C307.648 207.756 306.187 206.295 306.187 204.496C306.187 202.697 307.648 201.236 309.447 201.236C311.247 201.236 312.708 202.697 312.708 204.496C312.708 206.295 311.247 207.756 309.447 207.756ZM309.447 203C308.622 203 307.951 203.671 307.951 204.496C307.951 205.321 308.622 205.992 309.447 205.992C310.272 205.992 310.943 205.321 310.943 204.496C310.943 203.671 310.272 203 309.447 203Z" fill="#1CAAF9"/>
<path d="M62.3189 84.5747H58.1292V88.7644H62.3189V84.5747Z" fill="#FFF6ED"/>
<path d="M63.2036 89.644H57.2495V83.6899H63.2036V89.644ZM59.0139 87.8797H61.4392V85.4543H59.0139V87.8797Z" fill="#1CAAF9"/>
<path d="M416.163 123.246H411.974V127.436H416.163V123.246Z" fill="#FFF6ED"/>
<path d="M417.043 128.316H411.089V122.362H417.043V128.316ZM412.858 126.551H415.284V124.126H412.858V126.551Z" fill="#1CAAF9"/>
<path d="M439.992 141.985L430.387 151.59L436.53 157.733L446.135 148.128L439.992 141.985Z" fill="black"/>
<path d="M446.689 148.683L437.082 158.29C436.774 158.598 436.277 158.598 435.974 158.29L429.831 152.147C429.523 151.839 429.523 151.342 429.831 151.039L439.438 141.432C439.746 141.123 440.243 141.123 440.546 141.432L446.689 147.574C446.997 147.883 446.997 148.38 446.689 148.683ZM436.531 156.625L445.029 148.126L439.995 143.092L431.496 151.59L436.531 156.625Z" fill="white"/>
<path d="M436.327 132.6L440.064 141.918L430.318 151.66L420.999 147.927L414.071 125.667L436.327 132.6Z" fill="black"/>
<path d="M440.616 142.47L430.87 152.216C430.646 152.44 430.313 152.505 430.025 152.39L420.706 148.653C420.487 148.563 420.318 148.385 420.249 148.156L413.321 125.9C413.236 125.622 413.311 125.319 413.514 125.11C413.718 124.901 414.026 124.827 414.305 124.916L436.56 131.844C436.784 131.914 436.968 132.083 437.057 132.302L440.795 141.62C440.914 141.914 440.845 142.247 440.621 142.465L440.616 142.47ZM430.129 150.74L439.14 141.73L435.735 133.236L415.264 126.864L421.635 147.336L430.129 150.74Z" fill="white"/>
<path d="M414.625 125.114L413.515 126.225L428.19 140.9L429.301 139.79L414.625 125.114Z" fill="white"/>
<path d="M428.713 142.097C429.701 142.097 430.502 141.296 430.502 140.308C430.502 139.32 429.701 138.519 428.713 138.519C427.725 138.519 426.924 139.32 426.924 140.308C426.924 141.296 427.725 142.097 428.713 142.097Z" fill="white"/>
</g>
<defs>
<clipPath id="clip0_565_1525">
<rect width="504.172" height="257.68" rx="24" fill="white"/>
</clipPath>
</defs>
</svg>
