<svg width="505" height="258" viewBox="0 0 505 258" fill="none" xmlns="http://www.w3.org/2000/svg">
<g clip-path="url(#clip0_565_2038)">
<path d="M504.167 0H0V257.68H504.167V0Z" fill="#CDC0F9"/>
<path d="M91.6469 147.172V158.165L76.7817 165.317L91.6469 172.469V183.05H84.4703V176.266L70.1169 169.358V183.045H62.9402V147.167H70.1169V161.272L84.4703 154.363V147.167H91.6469V147.172Z" fill="black"/>
<path d="M126.81 147.172V183.055H98.103V147.172H126.81ZM119.633 154.348H105.28V175.878H119.633V154.348Z" fill="black"/>
<path d="M162.743 147.172V183.05H155.566V168.697H141.213V183.05H134.036V147.172H141.213V161.525H155.566V147.172H162.743Z" fill="black"/>
<path d="M95.2353 225.012V232.189H62.9402V196.31H70.1169V225.017H84.4703V196.31H91.6469V225.017H95.2353V225.012Z" fill="black"/>
<path d="M107.998 203.482V210.658H125.94V217.835H107.998V225.012H129.528V232.189H100.822V196.31H129.528V203.487H107.998V203.482Z" fill="black"/>
<path d="M164.333 196.305V232.184H157.157V203.477H142.803V232.184H135.627V196.305H164.333Z" fill="black"/>
<path d="M197.752 203.482H186.987V232.189H179.81V203.482H169.045V196.305H197.752V203.482Z" fill="black"/>
<path d="M231.175 210.659V232.189H202.468V196.305H209.645V210.659H231.175ZM223.998 217.835H209.645V225.012H223.998V217.835ZM234.763 232.189V196.305H241.94V232.189H234.763Z" fill="black"/>
<path d="M329.213 175.158V211.036H322.037V193.268L307.683 200.177V211.036H300.506V175.158H307.683V192.926L322.037 186.017V175.153H329.213V175.158Z" fill="black"/>
<path d="M373.044 150.586V161.351H365.867V157.763H351.514V179.293H365.867V175.705H373.044V186.47H344.337V150.586H373.044Z" fill="black"/>
<path d="M408.157 150.591V161.585L393.291 168.737L408.157 175.888V186.47H400.98V179.686L386.627 172.777V186.465H379.45V150.586H386.627V164.691L400.98 157.783V150.586H408.157V150.591Z" fill="black"/>
<path d="M421.794 157.763V164.939H439.736V172.116H421.794V179.293H443.325V186.47H414.618V150.591H443.325V157.768H421.794V157.763Z" fill="black"/>
<path d="M372.248 206.896H361.483V235.603H354.307V206.896H343.542V199.72H372.248V206.896Z" fill="black"/>
<path d="M404.544 199.725V235.603H397.367V221.25H375.837V199.72H383.014V214.073H397.367V199.72H404.544V199.725Z" fill="black"/>
<path d="M440.477 199.725V235.603H433.3V217.835L418.947 224.744V235.603H411.77V199.725H418.947V217.492L433.3 210.584V199.72H440.477V199.725Z" fill="black"/>
<g opacity="0.73">
<path d="M171.256 138.335L185.59 184.561L256.865 176.241L289.92 257.68H303.31L269.802 172.141L345.192 141.794L363.079 122.625L338.8 117.198L320.913 131.889L305.899 130.612L335.61 106.015H321.872L330.177 82.0598L171.256 138.335Z" fill="#BDECFE"/>
</g>
<path d="M351.156 107.824L369.893 117.62L389.698 102.715L351.156 107.824Z" fill="#BDECFE"/>
<path d="M337.096 82.9095L332.2 98.4557L351.156 92.278L352.642 77.5867L337.096 82.9095Z" fill="#BDECFE"/>
<path d="M370.424 91.6419L395.021 88.0188H416.104L394.599 78.864L370.424 91.6419Z" fill="#BDECFE"/>
<path d="M171.256 138.335L89.639 112.725L79.8431 66.2999L121.581 35.635L139.046 46.3205H121.159L96.8803 68.8545L139.046 105.056L214.843 122.898L171.256 138.335Z" fill="white"/>
<path d="M126.606 54.9584L140.298 65.8775L140.606 53.6165L126.606 54.9584Z" fill="white"/>
<path d="M173.925 90.976L240.225 77.6762L250.091 92.0793L245.051 75.3552L272.302 67.0454L242.919 70.8971L222.308 27.4146L237.999 72.7559L173.925 90.976Z" fill="#FDFDFD"/>
<g opacity="0.48">
<path d="M214.843 122.898L332.2 147.023L269.802 172.141L256.865 176.241L185.59 184.561L171.256 138.335L214.843 122.898Z" fill="#E9F6FE"/>
</g>
</g>
<defs>
<clipPath id="clip0_565_2038">
<rect width="504.167" height="257.68" rx="24" fill="white"/>
</clipPath>
</defs>
</svg>
