<svg width="505" height="259" viewBox="0 0 505 259" fill="none" xmlns="http://www.w3.org/2000/svg">
<g clip-path="url(#clip0_565_1952)">
<path d="M504.167 0.332275H0V258.012H504.167V0.332275Z" fill="#FFCFEA"/>
<path d="M340.416 24.74H163.752V232.76H340.416V24.74Z" fill="white"/>
<path d="M331.723 33.0647H172.444V164.139H331.723V33.0647Z" fill="#FFCFEA"/>
<path d="M180.371 40.1868V61.4832H172.986V33.1741H198.084V61.4832H190.699V40.1868H180.371Z" fill="black"/>
<path d="M220.822 32.9604C229.704 32.9604 235.002 39.2227 235.002 47.2989C235.002 55.3752 229.704 61.692 220.822 61.692C211.941 61.692 206.698 55.3801 206.698 47.2989C206.698 39.2177 211.996 32.9604 220.822 32.9604ZM220.822 39.8091C216.275 39.8091 214.133 43.3428 214.133 47.2989C214.133 51.255 216.275 54.7887 220.822 54.7887C225.37 54.7887 227.567 51.3097 227.567 47.2989C227.567 43.2881 225.424 39.8091 220.822 39.8091Z" fill="black"/>
<path d="M251.964 40.1868C251.641 44.948 251.159 49.928 249.986 54.5799C248.436 60.6284 245.17 61.5379 239.231 61.4832L238.804 54.5799C241.373 54.6346 242.601 53.9388 243.247 50.9418C244.529 44.8933 244.584 39.3319 244.962 33.1741H266.154V61.4832H258.768V40.1868H251.974H251.964Z" fill="black"/>
<path d="M295.467 33.1741H301.565V61.4832H294.18V45.2711L281.978 61.4832H275.825V33.1741H283.26V49.3316L295.462 33.1741H295.467Z" fill="black"/>
<path d="M180.426 112.769H172.991V84.4597H191.45V91.4674H180.426V112.764V112.769Z" fill="black"/>
<path d="M206.106 121.919H198.721V84.41H204.715L205.569 86.2837C207.761 84.7877 210.44 84.1963 212.955 84.1963C220.181 84.1963 225.852 89.385 225.852 98.3757C225.852 107.366 220.34 112.878 212.955 112.933C210.763 112.933 208.407 112.719 206.106 111.541V121.924V121.919ZM206.106 104.315C207.711 105.652 209.903 106.03 211.777 105.975C215.36 105.87 218.412 103.515 218.412 98.3757C218.412 93.2367 215.524 91.2587 212.095 91.0996C209.903 91.045 207.388 91.7954 206.101 93.187V104.315H206.106Z" fill="black"/>
<path d="M257.262 103.833C257.262 105.866 258.495 106.079 259.887 106.079V112.769C257.103 112.769 254.698 112.446 252.501 110.04C250.573 111.914 246.348 112.928 243.779 112.928C238.108 112.928 233.292 109.717 233.183 103.619C233.073 96.6114 238.212 94.4146 244.42 94.4146H249.877V90.9356H234.679V84.4597H257.257V103.828L257.262 103.833ZM249.877 100.572H244.42C242.492 100.572 240.623 101.055 240.623 103.246C240.568 105.388 242.337 106.134 244.37 106.189C246.348 106.189 248.918 105.547 249.882 104.797V100.567L249.877 100.572Z" fill="black"/>
<path d="M185.242 135.75V126.546H192.627V135.75C200.495 135.964 205.952 142.494 205.952 149.984C205.952 157.474 200.495 163.95 192.627 164.164V173.209H185.242V164.164C177.375 163.95 171.917 157.419 171.917 149.984C171.917 142.549 177.375 135.964 185.242 135.75ZM185.242 143.031C181.708 143.031 179.358 146.615 179.358 149.989C179.358 153.364 181.713 156.893 185.242 156.893V143.036V143.031ZM192.627 143.031V156.888C196.161 156.888 198.512 153.304 198.512 149.984C198.512 146.664 196.156 143.026 192.627 143.026V143.031Z" fill="black"/>
<path d="M234.202 135.75H240.3V164.059H232.914V147.847L220.713 164.059H214.56V135.75H221.995V151.907L234.197 135.75H234.202Z" fill="black"/>
<path d="M255.066 164.059H247.839V157.101H251.05L254.101 152.499C250.518 150.735 248.749 147.683 248.858 144.418C249.017 139.174 252.441 135.75 258.435 135.75H271.651V164.059H264.265V153.891H261.696L255.061 164.059H255.066ZM264.27 142.708H257.953C256.775 142.708 256.189 143.727 256.134 144.795C256.079 145.973 256.721 147.201 258.008 147.201H264.27V142.708Z" fill="black"/>
<path d="M179.427 186.364V190.276C179.427 191.956 178.145 193.322 176.182 193.322C174.219 193.322 172.951 191.956 172.951 190.276V186.364C172.951 184.685 174.278 183.318 176.182 183.318C178.085 183.318 179.427 184.685 179.427 186.364ZM174.035 186.364V190.276C174.035 191.389 174.855 192.294 176.182 192.294C177.509 192.294 178.339 191.389 178.339 190.276V186.364C178.339 185.251 177.419 184.347 176.182 184.347C174.944 184.347 174.035 185.251 174.035 186.364Z" fill="black"/>
<path d="M188.612 190.599C188.612 192.125 187.215 193.293 185.65 193.293C184.084 193.293 182.702 192.373 182.474 190.753L183.547 190.614C183.701 191.658 184.477 192.239 185.565 192.264C186.554 192.279 187.528 191.658 187.528 190.669V188.989H182.702V183.373H188.617V190.599H188.612ZM183.786 184.401V187.96H187.523V184.401H183.786Z" fill="black"/>
<path d="M192.25 189.724V189.863H195.893V187.448H196.981V189.863H198.378V190.892H196.981V193.263H195.893V190.892H191.166V189.441L195.977 183.035L196.936 183.487L192.25 189.724Z" fill="black"/>
<path d="M204.009 188.551V189.65H200.157V188.551H204.009Z" fill="black"/>
<path d="M206.21 190.346C206.21 189.441 206.693 188.541 207.438 187.96C206.901 187.423 206.533 186.732 206.533 186.012C206.533 184.431 207.662 183.273 209.441 183.273C211.22 183.273 212.363 184.431 212.363 186.012C212.363 186.732 211.996 187.423 211.459 187.96C212.204 188.536 212.671 189.441 212.671 190.346C212.671 192.095 211.484 193.367 209.441 193.367C207.398 193.367 206.21 192.095 206.21 190.346ZM207.294 190.346C207.294 191.543 208.039 192.408 209.441 192.408C210.842 192.408 211.588 191.548 211.588 190.346C211.588 189.685 211.195 188.805 210.514 188.512H208.367C207.692 188.81 207.294 189.685 207.294 190.346ZM207.617 186.012C207.617 186.618 207.885 187.269 208.477 187.577H210.41C210.987 187.269 211.255 186.618 211.255 186.012C211.255 184.998 210.604 184.262 209.436 184.262C208.268 184.262 207.617 184.998 207.617 186.012Z" fill="black"/>
<path d="M216.101 189.724V189.863H219.744V187.448H220.832V189.863H222.229V190.892H220.832V193.263H219.744V190.892H215.017V189.441L219.828 183.035L220.788 183.487L216.101 189.724Z" fill="black"/>
<path d="M227.432 183.303C229.043 183.303 230.608 184.193 230.877 186.578L225.738 192.239H230.012L230.166 190.813H231.095V193.268H224.59V192.055L229.729 186.34C229.545 184.928 228.501 184.352 227.457 184.337C226.568 184.322 225.564 184.804 225.002 185.679L224.212 185.112C224.888 183.924 226.16 183.308 227.427 183.308L227.432 183.303Z" fill="black"/>
<path d="M172.494 202.02H173.115L173.18 202.597C173.637 202.204 174.353 201.966 175.004 201.966C176.733 201.966 177.544 203.288 177.544 204.828C177.544 206.369 176.604 207.701 174.875 207.701C174.253 207.701 173.692 207.507 173.23 207.144V209.495H172.494V202.02ZM173.235 206.24C173.607 206.762 174.219 207.01 174.88 207.01C176.192 207.01 176.803 205.986 176.803 204.833C176.803 203.68 176.321 202.676 175.009 202.676C174.338 202.676 173.558 203.049 173.235 203.457V206.245V206.24Z" fill="black"/>
<path d="M179.268 200.698C179.268 200.41 179.482 200.166 179.78 200.166C180.078 200.166 180.302 200.41 180.302 200.698C180.302 200.986 180.088 201.23 179.78 201.23C179.472 201.23 179.268 200.996 179.268 200.698ZM179.417 202.02H180.153V207.656H179.417V202.02Z" fill="black"/>
<path d="M182.235 202.02H182.906L182.981 202.607C183.537 202.234 184.303 201.975 184.934 202C186.385 202.02 187.026 202.93 187.026 204.242V207.661H186.281V204.242C186.281 203.332 185.918 202.726 184.884 202.681C184.223 202.671 183.433 203.014 182.986 203.461V207.656H182.24V202.02H182.235Z" fill="black"/>
<path d="M188.96 200.161H189.695V204.272H190.391L191.852 201.995H193.06V202.691H192.225L191.007 204.58L193.463 207.656H192.543L190.376 204.967H189.69V207.656H188.955V200.161H188.96Z" fill="black"/>
<path d="M126.929 0.332275H32.1112V258.012H126.929V0.332275Z" fill="white"/>
<path d="M119.459 7.31006H39.5812V73.0434H119.459V7.31006Z" fill="#FFC5FE"/>
<path d="M63.626 83.1375C63.626 84.221 62.632 85.0559 61.5187 85.0559C60.4054 85.0559 59.4213 84.4049 59.2573 83.2469L60.0227 83.1475C60.132 83.893 60.6837 84.3005 61.459 84.3204C62.1598 84.3303 62.8556 83.888 62.8556 83.1872V81.9944H59.4213V77.9985H63.626V83.1375ZM60.1917 78.7291V81.2589H62.8506V78.7291H60.1917Z" fill="black"/>
<path d="M70.2112 83.1375C70.2112 84.221 69.2172 85.0559 68.1039 85.0559C66.9906 85.0559 66.0065 84.4049 65.8425 83.2469L66.6079 83.1475C66.7173 83.893 67.2689 84.3005 68.0442 84.3204C68.745 84.3303 69.4408 83.888 69.4408 83.1872V81.9944H66.0065V77.9985H70.2112V83.1375ZM66.7769 78.7291V81.2589H69.4358V78.7291H66.7769Z" fill="black"/>
<path d="M72.8006 82.5113V82.6107H75.39V80.896H76.1653V82.6107H77.1593V83.3413H76.1653V85.0261H75.39V83.3413H72.0253V82.3075L75.4496 77.75L76.1305 78.073L72.7956 82.5113H72.8006Z" fill="black"/>
<path d="M81.1601 81.6812V82.4664H78.4216V81.6812H81.1601Z" fill="black"/>
<path d="M82.7257 77.9934H87.1241V78.7489L83.8588 85.1452L83.0935 84.8818L86.2941 78.729H83.4911L83.4016 79.6037H82.7207V77.9984L82.7257 77.9934Z" fill="black"/>
<path d="M89.3606 82.5113V82.6107H91.95V80.896H92.7253V82.6107H93.7193V83.3413H92.7253V85.0261H91.95V83.3413H88.5853V82.3075L92.0097 77.75L92.6905 78.073L89.3557 82.5113H89.3606Z" fill="black"/>
<path d="M95.3346 82.9535C95.3346 82.3123 95.6775 81.6662 96.2093 81.2587C95.8266 80.876 95.5682 80.384 95.5682 79.8721C95.5682 78.7488 96.3733 77.9238 97.6357 77.9238C98.8981 77.9238 99.7132 78.7488 99.7132 79.8721C99.7132 80.384 99.4498 80.876 99.072 81.2587C99.6038 81.6712 99.9368 82.3123 99.9368 82.9535C99.9368 84.196 99.0919 85.1005 97.6357 85.1005C96.1795 85.1005 95.3346 84.196 95.3346 82.9535ZM96.1099 82.9535C96.1099 83.8083 96.6417 84.4196 97.6357 84.4196C98.6297 84.4196 99.1615 83.8083 99.1615 82.9535C99.1615 82.4813 98.8782 81.8601 98.3961 81.6464H96.8703C96.3882 81.8551 96.1049 82.4813 96.1049 82.9535H96.1099ZM96.3385 79.8721C96.3385 80.3045 96.5274 80.7667 96.9498 80.9854H98.3265C98.739 80.7667 98.9279 80.3045 98.9279 79.8721C98.9279 79.1464 98.4657 78.6246 97.6307 78.6246C96.7958 78.6246 96.3336 79.1464 96.3336 79.8721H96.3385Z" fill="black"/>
<path d="M119.459 90.6819H39.5812V156.415H119.459V90.6819Z" fill="#EDD2FF"/>
<path d="M58.9343 161.365H63.1091V162.091L61.7722 163.786C62.9451 164.109 63.6608 165.043 63.6509 166.127C63.6509 167.454 62.5376 168.438 61.1609 168.448C59.9681 168.448 59.0337 167.787 58.6908 166.678L59.4214 166.435C59.6599 167.23 60.2961 167.712 61.136 167.712C62.1002 167.712 62.8656 167.061 62.8755 166.137C62.8855 165.332 62.2742 164.571 61.3299 164.357L60.818 165.008L60.2862 164.646L62.2145 162.096H59.7146L59.645 162.911H58.9343V161.365Z" fill="black"/>
<path d="M65.952 165.883V165.982H68.5413V164.268H69.3167V165.982H70.3107V166.713H69.3167V168.398H68.5413V166.713H65.1766V165.679L68.601 161.122L69.2819 161.445L65.947 165.883H65.952Z" fill="black"/>
<path d="M73.1684 162.096L72.9796 164.144C73.3722 163.955 73.7947 163.875 74.237 163.86C75.6634 163.85 76.558 164.934 76.4884 166.221C76.4288 167.483 75.4944 168.418 74.1276 168.438C73.074 168.448 72.1893 167.946 71.8265 166.991L72.5174 166.678C72.7808 167.329 73.3424 167.702 74.1127 167.702C75.0471 167.692 75.6584 167.051 75.7181 166.206C75.7678 165.331 75.226 164.571 74.242 164.591C73.581 164.601 73.248 164.72 72.746 165.093L72.1546 164.74L72.4577 161.355H75.9914V162.086H73.1684V162.096Z" fill="black"/>
<path d="M80.7476 165.048V165.833H78.0092V165.048H80.7476Z" fill="black"/>
<path d="M87.0199 163.493V166.276C87.0199 167.469 86.1054 168.443 84.7088 168.443C83.3123 168.443 82.4077 167.469 82.4077 166.276V163.493C82.4077 162.3 83.352 161.326 84.7088 161.326C86.0656 161.326 87.0199 162.3 87.0199 163.493ZM83.183 163.493V166.276C83.183 167.071 83.7645 167.712 84.7088 167.712C85.6531 167.712 86.2446 167.071 86.2446 166.276V163.493C86.2446 162.697 85.5935 162.056 84.7088 162.056C83.8242 162.056 83.183 162.697 83.183 163.493Z" fill="black"/>
<path d="M89.0774 161.365H93.2522V162.091L91.9153 163.786C93.0882 164.109 93.8039 165.043 93.7939 166.127C93.7939 167.454 92.6806 168.438 91.304 168.448C90.1112 168.448 89.1768 167.787 88.8339 166.678L89.5645 166.435C89.808 167.23 90.4392 167.712 91.2841 167.712C92.2483 167.712 93.0087 167.061 93.0236 166.137C93.0335 165.332 92.4222 164.571 91.4779 164.357L90.966 165.008L90.4342 164.646L92.3626 162.096H89.8626L89.7931 162.911H89.0824V161.365H89.0774Z" fill="black"/>
<path d="M96.095 165.883V165.982H98.6844V164.268H99.4597V165.982H100.454V166.713H99.4597V168.398H98.6844V166.713H95.3197V165.679L98.744 161.122L99.4249 161.445L96.0901 165.883H96.095Z" fill="black"/>
<path d="M119.459 174.049H39.5812V239.782H119.459V174.049Z" fill="#D2D2FF"/>
<path d="M59.1332 244.732H63.5316V245.488L60.2663 251.884L59.501 251.621L62.7066 245.468H59.9035L59.8141 246.343H59.1332V244.737V244.732Z" fill="black"/>
<path d="M65.286 244.732H69.4608V245.458L68.1239 247.153C69.2968 247.476 70.0125 248.41 70.0026 249.494C70.0026 250.821 68.8893 251.805 67.5126 251.815C66.3198 251.815 65.3854 251.154 65.0425 250.045L65.7731 249.802C66.0166 250.597 66.6478 251.079 67.4927 251.079C68.4569 251.079 69.2173 250.428 69.2322 249.504C69.2421 248.698 68.6308 247.938 67.6865 247.724L67.1746 248.375L66.6428 248.013L68.5712 245.463H66.0713L66.0017 246.278H65.291V244.732H65.286Z" fill="black"/>
<path d="M76.389 249.563C76.389 250.806 75.4745 251.834 74.1078 251.834C72.741 251.834 71.8265 250.811 71.8265 249.563C71.8265 249.101 71.9458 248.669 72.1695 248.321V244.737H75.8224V245.468H72.9398V247.575C73.2728 247.396 73.6654 247.282 74.1028 247.282C75.4795 247.282 76.384 248.296 76.384 249.563H76.389ZM72.6068 249.563C72.6068 250.408 73.1784 251.099 74.1127 251.099C75.0471 251.099 75.6186 250.408 75.6186 249.563C75.6186 248.718 75.057 248.017 74.1127 248.017C73.1684 248.017 72.6068 248.698 72.6068 249.563Z" fill="black"/>
<path d="M80.6434 248.42V249.205H77.9049V248.42H80.6434Z" fill="black"/>
<path d="M86.7316 249.876C86.7316 250.96 85.7376 251.795 84.6243 251.795C83.511 251.795 82.527 251.144 82.3679 249.986L83.1333 249.886C83.2426 250.632 83.7943 251.039 84.5696 251.059C85.2704 251.069 85.9662 250.627 85.9662 249.926V248.733H82.5319V244.737H86.7366V249.876H86.7316ZM83.2973 245.468V247.998H85.9563V245.468H83.2973Z" fill="black"/>
<path d="M88.834 244.732H93.0088V245.458L91.6719 247.153C92.8448 247.476 93.5605 248.41 93.5505 249.494C93.5505 250.821 92.4372 251.805 91.0605 251.815C89.8677 251.815 88.9334 251.154 88.5905 250.045L89.321 249.802C89.5646 250.597 90.1958 251.079 91.0407 251.079C92.0048 251.079 92.7653 250.428 92.7802 249.504C92.7901 248.698 92.1788 247.938 91.2345 247.724L90.7226 248.375L90.1908 248.013L92.1192 245.463H89.6192L89.5497 246.278H88.839V244.732H88.834Z" fill="black"/>
<path d="M95.8516 249.25V249.349H98.441V247.635H99.2163V249.349H100.21V250.08H99.2163V251.765H98.441V250.08H95.0763V249.046L98.5006 244.489L99.1815 244.812L95.8466 249.25H95.8516Z" fill="black"/>
<path d="M472.056 0.332275H377.238V258.012H472.056V0.332275Z" fill="white"/>
<path d="M464.586 7.31006H384.708V73.0434H464.586V7.31006Z" fill="#C7F3FF"/>
<path d="M407.009 79.0669L405.602 80.543L405.12 80.1007L407.039 77.9934H407.749V85.0309H407.004V79.0669H407.009Z" fill="black"/>
<path d="M411.954 77.9438C413.097 77.9438 414.215 78.575 414.404 80.2748L410.751 84.3005H413.793L413.902 83.2866H414.563V85.036H409.936V84.1713L413.589 80.1058C413.46 79.1019 412.714 78.6893 411.974 78.6794C411.343 78.6695 410.627 79.0124 410.224 79.6336L409.663 79.2311C410.145 78.3862 411.049 77.9438 411.954 77.9438Z" fill="black"/>
<path d="M416.472 77.9934H420.646V78.719L419.309 80.4138C420.482 80.7369 421.198 81.6712 421.188 82.7547C421.188 84.0817 420.075 85.0657 418.698 85.0757C417.505 85.0757 416.571 84.4147 416.228 83.3063L416.959 83.0628C417.197 83.858 417.833 84.3401 418.673 84.3401C419.637 84.3401 420.403 83.689 420.413 82.7646C420.423 81.9595 419.811 81.1991 418.867 80.9854L418.355 81.6364L417.823 81.2736L419.752 78.724H417.252L417.182 79.5391H416.472V77.9934Z" fill="black"/>
<path d="M425.353 81.6812V82.4664H422.61V81.6812H425.353Z" fill="black"/>
<path d="M426.919 77.9934H431.317V78.7489L428.052 85.1452L427.286 84.8818L430.487 78.729H427.684L427.594 79.6037H426.914V77.9984L426.919 77.9934Z" fill="black"/>
<path d="M433.554 82.5113V82.6107H436.143V80.896H436.918V82.6107H437.912V83.3413H436.918V85.0261H436.143V83.3413H432.778V82.3075L436.203 77.75L436.883 78.073L433.549 82.5113H433.554Z" fill="black"/>
<path d="M439.527 77.9934H443.926V78.7489L440.661 85.1452L439.895 84.8818L443.096 78.729H440.293L440.203 79.6037H439.522V77.9984L439.527 77.9934Z" fill="black"/>
<path d="M464.586 90.6819H384.708V156.415H464.586V90.6819Z" fill="#D4FCFF"/>
<path d="M406.601 161.316C407.744 161.316 408.863 161.947 409.051 163.647L405.398 167.672H408.44L408.549 166.658H409.21V168.408H404.583V167.543L408.236 163.478C408.107 162.474 407.362 162.061 406.621 162.051C405.99 162.041 405.274 162.384 404.872 163.005L404.31 162.603C404.792 161.758 405.697 161.316 406.601 161.316Z" fill="black"/>
<path d="M411.114 161.365H415.289V162.091L413.952 163.786C415.125 164.109 415.84 165.043 415.831 166.127C415.831 167.454 414.717 168.438 413.341 168.448C412.148 168.448 411.213 167.787 410.87 166.678L411.601 166.435C411.84 167.23 412.476 167.712 413.316 167.712C414.28 167.712 415.045 167.061 415.055 166.137C415.065 165.332 414.454 164.571 413.51 164.357L412.998 165.008L412.466 164.646L414.394 162.096H411.894L411.825 162.911H411.114V161.365Z" fill="black"/>
<path d="M418.857 162.096L418.668 164.144C419.061 163.955 419.483 163.875 419.926 163.86C421.352 163.85 422.247 164.934 422.177 166.221C422.118 167.483 421.183 168.418 419.816 168.438C418.763 168.448 417.878 167.946 417.515 166.991L418.206 166.678C418.47 167.329 419.031 167.702 419.802 167.702C420.736 167.692 421.347 167.051 421.407 166.206C421.457 165.331 420.915 164.571 419.931 164.591C419.27 164.601 418.937 164.72 418.435 165.093L417.843 164.74L418.147 161.355H421.68V162.086H418.857V162.096Z" fill="black"/>
<path d="M426.437 165.048V165.833H423.693V165.048H426.437Z" fill="black"/>
<path d="M428.002 161.365H432.401V162.121L429.135 168.517L428.37 168.254L431.571 162.101H428.767L428.678 162.976H427.997V161.37L428.002 161.365Z" fill="black"/>
<path d="M434.115 161.365H438.514V162.121L435.248 168.517L434.483 168.254L437.684 162.101H434.881L434.791 162.976H434.11V161.37L434.115 161.365Z" fill="black"/>
<path d="M444.835 166.191C444.835 167.434 443.921 168.463 442.554 168.463C441.187 168.463 440.273 167.439 440.273 166.191C440.273 165.729 440.392 165.297 440.616 164.949V161.365H444.269V162.096H441.386V164.203C441.719 164.024 442.107 163.91 442.549 163.91C443.926 163.91 444.83 164.924 444.83 166.191H444.835ZM441.048 166.191C441.048 167.036 441.62 167.727 442.554 167.727C443.489 167.727 444.06 167.036 444.06 166.191C444.06 165.346 443.498 164.646 442.554 164.646C441.61 164.646 441.048 165.327 441.048 166.191Z" fill="black"/>
<path d="M464.586 174.049H384.708V239.782H464.586V174.049Z" fill="#C5FFC5"/>
<path d="M404.683 249.25V249.349H407.272V247.635H408.047V249.349H409.041V250.08H408.047V251.765H407.272V250.08H403.907V249.046L407.332 244.489L408.013 244.812L404.678 249.25H404.683Z" fill="black"/>
<path d="M411.899 245.468L411.71 247.515C412.103 247.327 412.525 247.247 412.968 247.232C414.394 247.222 415.289 248.306 415.219 249.593C415.16 250.855 414.225 251.79 412.858 251.81C411.805 251.819 410.92 251.318 410.557 250.363L411.248 250.05C411.512 250.701 412.073 251.074 412.844 251.074C413.778 251.064 414.389 250.423 414.449 249.578C414.499 248.703 413.957 247.943 412.973 247.963C412.312 247.973 411.979 248.092 411.477 248.465L410.885 248.112L411.189 244.727H414.722V245.458H411.899V245.468Z" fill="black"/>
<path d="M419.175 244.683C420.318 244.683 421.437 245.314 421.626 247.014L417.973 251.039H421.014L421.124 250.025H421.785V251.775H417.157V250.91L420.81 246.845C420.681 245.841 419.936 245.428 419.195 245.418C418.564 245.408 417.848 245.751 417.446 246.372L416.884 245.97C417.366 245.125 418.271 244.683 419.175 244.683Z" fill="black"/>
<path d="M426.044 248.42V249.205H423.3V248.42H426.044Z" fill="black"/>
<path d="M427.609 249.692C427.609 249.051 427.952 248.405 428.484 247.997C428.101 247.615 427.843 247.123 427.843 246.611C427.843 245.488 428.648 244.663 429.91 244.663C431.173 244.663 431.988 245.488 431.988 246.611C431.988 247.123 431.725 247.615 431.347 247.997C431.879 248.41 432.212 249.051 432.212 249.692C432.212 250.935 431.367 251.839 429.91 251.839C428.454 251.839 427.609 250.935 427.609 249.692ZM428.38 249.692C428.38 250.547 428.912 251.158 429.906 251.158C430.9 251.158 431.431 250.547 431.431 249.692C431.431 249.22 431.148 248.599 430.666 248.385H429.14C428.658 248.594 428.375 249.22 428.375 249.692H428.38ZM428.613 246.611C428.613 247.043 428.802 247.505 429.225 247.724H430.601C431.014 247.505 431.203 247.043 431.203 246.611C431.203 245.885 430.74 245.363 429.906 245.363C429.071 245.363 428.608 245.885 428.608 246.611H428.613Z" fill="black"/>
<path d="M435.368 245.468L435.179 247.515C435.571 247.327 435.994 247.247 436.436 247.232C437.862 247.222 438.757 248.306 438.688 249.593C438.628 250.855 437.694 251.79 436.327 251.81C435.273 251.819 434.388 251.318 434.026 250.363L434.716 250.05C434.98 250.701 435.542 251.074 436.312 251.074C437.246 251.064 437.858 250.423 437.917 249.578C437.967 248.703 437.425 247.943 436.441 247.963C435.78 247.973 435.447 248.092 434.945 248.465L434.354 248.112L434.657 244.727H438.191V245.458H435.368V245.468Z" fill="black"/>
<path d="M441.078 249.25V249.349H443.668V247.635H444.443V249.349H445.437V250.08H444.443V251.765H443.668V250.08H440.303V249.046L443.727 244.489L444.408 244.812L441.073 249.25H441.078Z" fill="black"/>
</g>
<defs>
<clipPath id="clip0_565_1952">
<rect y="0.332275" width="504.167" height="257.68" rx="24" fill="white"/>
</clipPath>
</defs>
</svg>
