<svg width="505" height="258" viewBox="0 0 505 258" fill="none" xmlns="http://www.w3.org/2000/svg">
<g clip-path="url(#clip0_565_1577)">
<path d="M479.287 0H24C10.7452 0 0 10.7452 0 24V233.68C0 246.935 10.7452 257.68 24 257.68H479.287C492.542 257.68 503.287 246.935 503.287 233.68V24C503.287 10.7452 492.542 0 479.287 0Z" fill="#E3F6FF"/>
<path d="M2.2326 150.561H0V151.058H2.2326V150.561Z" fill="#216F7C"/>
<path d="M496.425 151.058H491.93V150.561H496.425V151.058ZM487.44 151.058H482.945V150.561H487.44V151.058ZM478.456 151.058H473.961V150.561H478.456V151.058ZM469.471 151.058H464.976V150.561H469.471V151.058ZM460.486 151.058H455.991V150.561H460.486V151.058ZM451.501 151.058H447.006V150.561H451.501V151.058ZM442.516 151.058H438.021V150.561H442.516V151.058ZM433.526 151.058H429.031V150.561H433.526V151.058ZM424.541 151.058H420.046V150.561H424.541V151.058ZM415.556 151.058H411.061V150.561H415.556V151.058ZM406.571 151.058H402.076V150.561H406.571V151.058ZM397.586 151.058H393.091V150.561H397.586V151.058ZM388.601 151.058H384.106V150.561H388.601V151.058ZM379.616 151.058H375.121V150.561H379.616V151.058ZM370.631 151.058H366.136V150.561H370.631V151.058ZM361.646 151.058H357.151V150.561H361.646V151.058ZM352.661 151.058H348.166V150.561H352.661V151.058ZM343.676 151.058H339.181V150.561H343.676V151.058ZM334.691 151.058H330.196V150.561H334.691V151.058ZM325.706 151.058H321.211V150.561H325.706V151.058ZM316.721 151.058H312.226V150.561H316.721V151.058ZM307.731 151.058H303.236V150.561H307.731V151.058ZM298.746 151.058H294.251V150.561H298.746V151.058ZM289.761 151.058H285.266V150.561H289.761V151.058ZM280.776 151.058H276.281V150.561H280.776V151.058ZM271.791 151.058H267.296V150.561H271.791V151.058ZM262.806 151.058H258.312V150.561H262.806V151.058ZM253.822 151.058H249.327V150.561H253.822V151.058ZM244.837 151.058H240.342V150.561H244.837V151.058ZM235.852 151.058H231.357V150.561H235.852V151.058ZM226.867 151.058H222.372V150.561H226.867V151.058ZM217.882 151.058H213.387V150.561H217.882V151.058ZM208.897 151.058H204.402V150.561H208.897V151.058ZM199.912 151.058H195.417V150.561H199.912V151.058ZM190.927 151.058H186.432V150.561H190.927V151.058ZM181.937 151.058H177.442V150.561H181.937V151.058ZM172.952 151.058H168.457V150.561H172.952V151.058ZM163.967 151.058H159.472V150.561H163.967V151.058ZM154.982 151.058H150.487V150.561H154.982V151.058ZM145.997 151.058H141.502V150.561H145.997V151.058ZM137.012 151.058H132.517V150.561H137.012V151.058ZM128.027 151.058H123.532V150.561H128.027V151.058ZM119.042 151.058H114.547V150.561H119.042V151.058ZM110.057 151.058H105.562V150.561H110.057V151.058ZM101.072 151.058H96.5772V150.561H101.072V151.058ZM92.0872 151.058H87.5923V150.561H92.0872V151.058ZM83.1023 151.058H78.6073V150.561H83.1023V151.058ZM74.1173 151.058H69.6224V150.561H74.1173V151.058ZM65.1274 151.058H60.6324V150.561H65.1274V151.058ZM56.1424 151.058H51.6475V150.561H56.1424V151.058ZM47.1575 151.058H42.6625V150.561H47.1575V151.058ZM38.1725 151.058H33.6775V150.561H38.1725V151.058ZM29.1875 151.058H24.6926V150.561H29.1875V151.058ZM20.2026 151.058H15.7076V150.561H20.2026V151.058ZM11.2176 151.058H6.72266V150.561H11.2176V151.058Z" fill="#216F7C"/>
<path d="M503.153 150.561H500.92V151.058H503.153V150.561Z" fill="#216F7C"/>
<path d="M2.37176 90.9958H0.13916V91.4929H2.37176V90.9958Z" fill="#216F7C"/>
<path d="M496.564 91.4929H492.069V90.9958H496.564V91.4929ZM487.579 91.4929H483.084V90.9958H487.579V91.4929ZM478.594 91.4929H474.099V90.9958H478.594V91.4929ZM469.609 91.4929H465.114V90.9958H469.609V91.4929ZM460.624 91.4929H456.129V90.9958H460.624V91.4929ZM451.639 91.4929H447.145V90.9958H451.639V91.4929ZM442.655 91.4929H438.16V90.9958H442.655V91.4929ZM433.665 91.4929H429.17V90.9958H433.665V91.4929ZM424.68 91.4929H420.185V90.9958H424.68V91.4929ZM415.695 91.4929H411.2V90.9958H415.695V91.4929ZM406.71 91.4929H402.215V90.9958H406.71V91.4929ZM397.725 91.4929H393.23V90.9958H397.725V91.4929ZM388.74 91.4929H384.245V90.9958H388.74V91.4929ZM379.755 91.4929H375.26V90.9958H379.755V91.4929ZM370.77 91.4929H366.275V90.9958H370.77V91.4929ZM361.785 91.4929H357.29V90.9958H361.785V91.4929ZM352.8 91.4929H348.305V90.9958H352.8V91.4929ZM343.815 91.4929H339.32V90.9958H343.815V91.4929ZM334.83 91.4929H330.335V90.9958H334.83V91.4929ZM325.845 91.4929H321.35V90.9958H325.845V91.4929ZM316.86 91.4929H312.365V90.9958H316.86V91.4929ZM307.87 91.4929H303.375V90.9958H307.87V91.4929ZM298.885 91.4929H294.39V90.9958H298.885V91.4929ZM289.9 91.4929H285.405V90.9958H289.9V91.4929ZM280.915 91.4929H276.42V90.9958H280.915V91.4929ZM271.93 91.4929H267.435V90.9958H271.93V91.4929ZM262.945 91.4929H258.45V90.9958H262.945V91.4929ZM253.96 91.4929H249.465V90.9958H253.96V91.4929ZM244.975 91.4929H240.48V90.9958H244.975V91.4929ZM235.991 91.4929H231.496V90.9958H235.991V91.4929ZM227.006 91.4929H222.511V90.9958H227.006V91.4929ZM218.021 91.4929H213.526V90.9958H218.021V91.4929ZM209.036 91.4929H204.541V90.9958H209.036V91.4929ZM200.051 91.4929H195.556V90.9958H200.051V91.4929ZM191.066 91.4929H186.571V90.9958H191.066V91.4929ZM182.076 91.4929H177.581V90.9958H182.076V91.4929ZM173.091 91.4929H168.596V90.9958H173.091V91.4929ZM164.106 91.4929H159.611V90.9958H164.106V91.4929ZM155.121 91.4929H150.626V90.9958H155.121V91.4929ZM146.136 91.4929H141.641V90.9958H146.136V91.4929ZM137.151 91.4929H132.656V90.9958H137.151V91.4929ZM128.166 91.4929H123.671V90.9958H128.166V91.4929ZM119.181 91.4929H114.686V90.9958H119.181V91.4929ZM110.196 91.4929H105.701V90.9958H110.196V91.4929ZM101.211 91.4929H96.7161V90.9958H101.211V91.4929ZM92.2262 91.4929H87.7312V90.9958H92.2262V91.4929ZM83.2412 91.4929H78.7462V90.9958H83.2412V91.4929ZM74.2562 91.4929H69.7613V90.9958H74.2562V91.4929ZM65.2713 91.4929H60.7763V90.9958H65.2713V91.4929ZM56.2813 91.4929H51.7864V90.9958H56.2813V91.4929ZM47.2964 91.4929H42.8014V90.9958H47.2964V91.4929ZM38.3114 91.4929H33.8165V90.9958H38.3114V91.4929ZM29.3265 91.4929H24.8315V90.9958H29.3265V91.4929ZM20.3415 91.4929H15.8465V90.9958H20.3415V91.4929ZM11.3565 91.4929H6.86157V90.9958H11.3565V91.4929Z" fill="#216F7C"/>
<path d="M503.292 90.9958H501.059V91.4929H503.292V90.9958Z" fill="#216F7C"/>
<path d="M2.30218 72.3682H0.0695801V72.8652H2.30218V72.3682Z" fill="#216F7C"/>
<path d="M496.495 72.8652H492V72.3682H496.495V72.8652ZM487.51 72.8652H483.015V72.3682H487.51V72.8652ZM478.525 72.8652H474.03V72.3682H478.525V72.8652ZM469.54 72.8652H465.045V72.3682H469.54V72.8652ZM460.555 72.8652H456.06V72.3682H460.555V72.8652ZM451.57 72.8652H447.075V72.3682H451.57V72.8652ZM442.585 72.8652H438.09V72.3682H442.585V72.8652ZM433.595 72.8652H429.1V72.3682H433.595V72.8652ZM424.61 72.8652H420.115V72.3682H424.61V72.8652ZM415.625 72.8652H411.13V72.3682H415.625V72.8652ZM406.64 72.8652H402.145V72.3682H406.64V72.8652ZM397.655 72.8652H393.16V72.3682H397.655V72.8652ZM388.67 72.8652H384.175V72.3682H388.67V72.8652ZM379.685 72.8652H375.19V72.3682H379.685V72.8652ZM370.7 72.8652H366.205V72.3682H370.7V72.8652ZM361.715 72.8652H357.22V72.3682H361.715V72.8652ZM352.73 72.8652H348.236V72.3682H352.73V72.8652ZM343.746 72.8652H339.251V72.3682H343.746V72.8652ZM334.761 72.8652H330.266V72.3682H334.761V72.8652ZM325.776 72.8652H321.281V72.3682H325.776V72.8652ZM316.791 72.8652H312.296V72.3682H316.791V72.8652ZM307.801 72.8652H303.306V72.3682H307.801V72.8652ZM298.816 72.8652H294.321V72.3682H298.816V72.8652ZM289.831 72.8652H285.336V72.3682H289.831V72.8652ZM280.846 72.8652H276.351V72.3682H280.846V72.8652ZM271.861 72.8652H267.366V72.3682H271.861V72.8652ZM262.876 72.8652H258.381V72.3682H262.876V72.8652ZM253.891 72.8652H249.396V72.3682H253.891V72.8652ZM244.906 72.8652H240.411V72.3682H244.906V72.8652ZM235.921 72.8652H231.426V72.3682H235.921V72.8652ZM226.936 72.8652H222.441V72.3682H226.936V72.8652ZM217.951 72.8652H213.456V72.3682H217.951V72.8652ZM208.966 72.8652H204.471V72.3682H208.966V72.8652ZM199.981 72.8652H195.486V72.3682H199.981V72.8652ZM190.996 72.8652H186.501V72.3682H190.996V72.8652ZM182.006 72.8652H177.511V72.3682H182.006V72.8652ZM173.021 72.8652H168.526V72.3682H173.021V72.8652ZM164.036 72.8652H159.541V72.3682H164.036V72.8652ZM155.051 72.8652H150.556V72.3682H155.051V72.8652ZM146.066 72.8652H141.572V72.3682H146.066V72.8652ZM137.081 72.8652H132.587V72.3682H137.081V72.8652ZM128.097 72.8652H123.602V72.3682H128.097V72.8652ZM119.112 72.8652H114.617V72.3682H119.112V72.8652ZM110.127 72.8652H105.632V72.3682H110.127V72.8652ZM101.142 72.8652H96.6467V72.3682H101.142V72.8652ZM92.1567 72.8652H87.6617V72.3682H92.1567V72.8652ZM83.1717 72.8652H78.6768V72.3682H83.1717V72.8652ZM74.1868 72.8652H69.6918V72.3682H74.1868V72.8652ZM65.2018 72.8652H60.7068V72.3682H65.2018V72.8652ZM56.2119 72.8652H51.7169V72.3682H56.2119V72.8652ZM47.2269 72.8652H42.732V72.3682H47.2269V72.8652ZM38.242 72.8652H33.747V72.3682H38.242V72.8652ZM29.257 72.8652H24.762V72.3682H29.257V72.8652ZM20.272 72.8652H15.7771V72.3682H20.272V72.8652ZM11.2871 72.8652H6.79211V72.3682H11.2871V72.8652Z" fill="#216F7C"/>
<path d="M503.222 72.3682H500.99V72.8652H503.222V72.3682Z" fill="#216F7C"/>
<path d="M3.24969 169.229H1.01709V169.726H3.24969V169.229Z" fill="#216F7C"/>
<path d="M497.443 169.726H492.948V169.229H497.443V169.726ZM488.458 169.726H483.963V169.229H488.458V169.726ZM479.473 169.726H474.978V169.229H479.473V169.726ZM470.488 169.726H465.993V169.229H470.488V169.726ZM461.503 169.726H457.008V169.229H461.503V169.726ZM452.518 169.726H448.023V169.229H452.518V169.726ZM443.533 169.726H439.038V169.229H443.533V169.726ZM434.543 169.726H430.048V169.229H434.543V169.726ZM425.558 169.726H421.063V169.229H425.558V169.726ZM416.573 169.726H412.078V169.229H416.573V169.726ZM407.588 169.726H403.093V169.229H407.588V169.726ZM398.603 169.726H394.108V169.229H398.603V169.726ZM389.618 169.726H385.123V169.229H389.618V169.726ZM380.633 169.726H376.138V169.229H380.633V169.726ZM371.648 169.726H367.153V169.229H371.648V169.726ZM362.663 169.726H358.168V169.229H362.663V169.726ZM353.678 169.726H349.183V169.229H353.678V169.726ZM344.693 169.726H340.198V169.229H344.693V169.726ZM335.708 169.726H331.213V169.229H335.708V169.726ZM326.723 169.726H322.228V169.229H326.723V169.726ZM317.738 169.726H313.243V169.229H317.738V169.726ZM308.748 169.726H304.253V169.229H308.748V169.726ZM299.763 169.726H295.268V169.229H299.763V169.726ZM290.778 169.726H286.284V169.229H290.778V169.726ZM281.793 169.726H277.299V169.229H281.793V169.726ZM272.809 169.726H268.314V169.229H272.809V169.726ZM263.824 169.726H259.329V169.229H263.824V169.726ZM254.839 169.726H250.344V169.229H254.839V169.726ZM245.854 169.726H241.359V169.229H245.854V169.726ZM236.869 169.726H232.374V169.229H236.869V169.726ZM227.884 169.726H223.389V169.229H227.884V169.726ZM218.899 169.726H214.404V169.229H218.899V169.726ZM209.914 169.726H205.419V169.229H209.914V169.726ZM200.929 169.726H196.434V169.229H200.929V169.726ZM191.944 169.726H187.449V169.229H191.944V169.726ZM182.954 169.726H178.459V169.229H182.954V169.726ZM173.969 169.726H169.474V169.229H173.969V169.726ZM164.984 169.726H160.489V169.229H164.984V169.726ZM155.999 169.726H151.504V169.229H155.999V169.726ZM147.014 169.726H142.519V169.229H147.014V169.726ZM138.029 169.726H133.534V169.229H138.029V169.726ZM129.044 169.726H124.549V169.229H129.044V169.726ZM120.059 169.726H115.564V169.229H120.059V169.726ZM111.074 169.726H106.579V169.229H111.074V169.726ZM102.089 169.726H97.5943V169.229H102.089V169.726ZM93.1043 169.726H88.6094V169.229H93.1043V169.726ZM84.1194 169.726H79.6244V169.229H84.1194V169.726ZM75.1344 169.726H70.6394V169.229H75.1344V169.726ZM66.1494 169.726H61.6545V169.229H66.1494V169.726ZM57.1595 169.726H52.6646V169.229H57.1595V169.726ZM48.1746 169.726H43.6796V169.229H48.1746V169.726ZM39.1896 169.726H34.6946V169.229H39.1896V169.726ZM30.2046 169.726H25.7097V169.229H30.2046V169.726ZM21.2197 169.726H16.7247V169.229H21.2197V169.726ZM12.2347 169.726H7.73975V169.229H12.2347V169.726Z" fill="#216F7C"/>
<path d="M504.17 169.229H501.937V169.726H504.17V169.229Z" fill="#216F7C"/>
<path d="M207.483 0H207.111V257.68H207.483V0Z" fill="#348193"/>
<path d="M286.503 0H286.006V257.68H286.503V0Z" fill="#216F7C"/>
<path d="M129.104 121.02C129.104 140.015 131.336 150.81 131.336 150.81H43.2429C43.2429 150.81 45.4755 138.027 45.4755 119.658C45.4755 98.6795 43.2429 91.2344 43.2429 91.2344H70.6294C70.6294 91.2344 68.3968 98.933 68.3968 119.404C68.3968 136.039 71.1206 140.01 82.3977 140.01H82.8492C79.7831 129.966 78.3046 121.626 78.3046 107.486V105.255C78.3046 95.0763 85.4886 88.2524 99.6185 88.2524C97.6389 89.9919 96.1505 95.0812 96.1505 105.255V107.486C96.1505 121.626 95.0144 129.961 91.8738 140.01H92.4345C103.588 140.01 106.182 136.163 106.182 119.404C106.182 102.646 102.719 91.2344 102.719 91.2344H131.336C131.336 91.2344 129.104 102.029 129.104 121.02Z" fill="#85C4D3"/>
<path d="M131.336 151.058H42.9452L42.9948 150.765C43.0147 150.636 45.2225 137.788 45.2225 119.658C45.2225 98.9777 43.0246 91.3785 42.9998 91.304L42.9055 90.9859H70.9569L70.8626 91.304C70.8427 91.3785 68.6399 99.2162 68.6399 119.404C68.6399 135.959 71.2099 139.762 82.3927 139.762H82.5118C79.6838 130.438 78.0516 122.098 78.0516 107.486V105.255C78.0516 94.45 86.1137 88.0039 99.6135 88.0039H100.273L99.7772 88.4413C98.2342 89.7981 96.3936 93.8138 96.3936 105.26V107.491C96.3936 121.288 95.2971 129.782 92.2062 139.767H92.4295C103.409 139.767 105.934 135.959 105.934 119.409C105.934 102.859 102.516 91.4233 102.481 91.309L102.382 90.9859H131.644L131.584 91.2841C131.564 91.3934 129.357 102.278 129.357 121.02C129.357 139.762 131.559 150.651 131.584 150.76L131.644 151.058H131.341H131.336ZM43.5356 150.561H131.039C130.686 148.688 128.861 138.102 128.861 121.02C128.861 103.938 130.686 93.3566 131.039 91.4829H103.052C103.607 93.451 106.435 104.241 106.435 119.404C106.435 136.362 103.821 140.259 92.4344 140.259H91.5364L91.6357 139.935C94.7861 129.866 95.9024 121.373 95.9024 107.486V105.255C95.9024 96.6368 96.979 90.8766 99.0231 88.5009C86.0046 88.6798 78.5527 94.7631 78.5527 105.255V107.486C78.5527 122.203 80.2147 130.527 83.0873 139.935L83.1865 140.259H82.3977C70.9469 140.259 68.1487 136.163 68.1487 119.404C68.1487 101.368 69.9051 93.133 70.3069 91.4829H43.5654C43.9722 93.123 45.7236 101.219 45.7236 119.658C45.7236 136.327 43.8631 148.549 43.5356 150.561Z" fill="#396B7A"/>
<path d="M165.902 97.1934C169.494 93.3466 174.946 88.2573 184.487 88.2573C194.896 88.2573 202.08 94.4649 202.08 109.106C202.08 128.967 189.319 148.822 166.398 150.81C167.018 167.688 168.134 169.427 168.134 169.427H140.753C140.753 169.427 142.985 164.462 142.985 128.594C142.985 99.9219 140.753 91.2344 140.753 91.2344H165.902V97.1934ZM171.726 105.135C168.879 105.135 165.902 107.123 165.902 113.45V120.155C165.902 129.339 166.026 136.784 166.15 142.868C176.063 141.998 178.29 130.333 178.29 120.279C178.29 109.355 175.934 105.135 171.721 105.135H171.726Z" fill="#85C4D3"/>
<path d="M168.129 169.676H140.366L140.525 169.323C140.544 169.273 142.732 163.826 142.732 128.589C142.732 100.305 140.535 91.3785 140.51 91.294L140.43 90.9858H166.15V96.5671C170.263 92.2581 175.681 88.0088 184.487 88.0088C195.992 88.0088 202.328 95.5036 202.328 109.106C202.328 128.34 190.073 148.876 166.656 151.033C167.256 167.166 168.303 169.219 168.348 169.298L168.551 169.666H168.134L168.129 169.676ZM141.095 169.179H167.772C167.44 168.095 166.636 164.164 166.145 150.82L166.135 150.581L166.368 150.561C189.647 148.543 201.822 128.181 201.822 109.106C201.822 95.8216 195.66 88.5058 184.477 88.5058C175.547 88.5058 170.164 92.9838 166.075 97.3623L165.644 97.8196V91.4828H141.05C141.428 93.272 143.219 103.093 143.219 128.594C143.219 159.736 141.557 167.584 141.085 169.179H141.095ZM165.907 143.136V142.868C165.778 136.844 165.654 129.439 165.654 120.15V113.445C165.654 111.437 166.09 104.882 171.726 104.882C176.375 104.882 178.543 109.772 178.543 120.274C178.543 130.199 176.395 142.212 166.175 143.111L165.912 143.136H165.907ZM171.726 105.384C170.049 105.384 166.15 106.169 166.15 113.45V120.155C166.15 129.3 166.274 136.625 166.393 142.594C176.013 141.546 178.042 129.906 178.042 120.279C178.042 110.12 176.033 105.384 171.721 105.384H171.726Z" fill="#396B7A"/>
<path d="M246.022 91.2346C246.022 91.2346 243.79 98.3069 243.79 118.788C248.994 107.989 254.323 97.4422 257.542 91.2346C261.755 90.2406 265.595 89.4951 270.799 89.4951C274.887 89.4951 277.492 89.9921 277.244 91.2346C276.996 92.3529 275.88 98.8039 275.88 122.759C275.88 146.715 277.244 150.81 277.244 150.81H250.731C250.731 150.81 252.963 144.727 252.963 121.517C249.991 128.097 244.415 140.135 239.086 150.81C233.882 151.928 229.174 152.425 225.954 152.425C221.369 152.425 219.881 151.431 219.881 148.206C219.881 143.986 220.749 141.382 220.749 122.516C220.749 98.4362 219.385 91.2396 219.385 91.2396H246.022V91.2346Z" fill="#C8E3ED"/>
<path d="M225.949 152.669C221.226 152.669 219.628 151.541 219.628 148.201C219.628 146.834 219.717 145.656 219.841 144.026C220.104 140.557 220.496 135.309 220.496 122.511C220.496 98.7541 219.152 91.3538 219.137 91.2792L219.082 90.986H246.36L246.26 91.309C246.241 91.3786 244.122 98.3416 244.043 117.7C249.153 107.129 254.223 97.0941 257.324 91.1202L257.379 91.0208L257.488 90.9959C261.388 90.0765 265.337 89.2515 270.804 89.2515C274.5 89.2515 276.619 89.6441 277.279 90.4492C277.477 90.6928 277.552 90.981 277.492 91.2842C277.264 92.313 276.133 98.6299 276.133 122.759C276.133 146.889 277.472 150.691 277.482 150.73L277.586 151.053H277.244H250.373L250.492 150.72C250.512 150.661 252.636 144.583 252.705 122.67C249.242 130.299 244.048 141.407 239.3 150.919L239.245 151.024L239.131 151.049C234.338 152.077 229.531 152.669 225.944 152.669H225.949ZM219.678 91.483C219.921 93.0635 220.997 101.269 220.997 122.511C220.997 135.328 220.6 140.587 220.342 144.066C220.218 145.686 220.134 146.859 220.134 148.206C220.134 151.247 221.493 152.177 225.959 152.177C229.481 152.177 234.199 151.6 238.923 150.591C243.879 140.661 249.307 129.016 252.74 121.417L253.216 120.369V121.522C253.216 141.879 251.529 149.021 251.078 150.566H276.931C276.629 149.229 275.641 143.29 275.641 122.764C275.641 98.5802 276.783 92.2186 277.011 91.1848C277.041 91.0307 277.011 90.8965 276.902 90.7673C276.589 90.3896 275.388 89.7534 270.809 89.7534C265.451 89.7534 261.551 90.5586 257.721 91.4581C254.521 97.6259 249.262 108.038 244.023 118.903L243.552 119.882V118.793C243.552 100.861 245.288 93.0933 245.705 91.488H219.683L219.678 91.483Z" fill="#396B7A"/>
<path d="M392.277 110.096C392.277 93.7145 377.656 88.2524 360.436 88.2524H354.77C355.425 75.226 356.347 72.6118 356.347 72.6118H328.966C328.966 72.6118 329.928 75.2906 330.588 89.0576C311.289 93.3218 293.036 113.709 293.036 131.939C293.036 148.32 307.652 153.782 324.873 153.782H330.539C329.884 166.769 328.966 169.423 328.966 169.423H356.347C356.347 169.423 355.385 166.699 354.725 152.977C374.025 148.713 392.277 128.326 392.277 110.096ZM317.818 124.121C317.818 111.86 323.002 97.3773 330.901 97.3177C331.079 103.545 331.193 111.283 331.193 120.9C331.193 130.517 331.069 138.758 330.876 145.099C325.22 144.935 317.813 140.328 317.813 124.126L317.818 124.121ZM354.417 144.732C354.239 138.479 354.12 130.696 354.12 121.02C354.12 111.343 354.239 103.262 354.432 96.945C360.103 97.104 367.5 101.711 367.5 117.918C367.5 130.179 362.321 144.662 354.422 144.727L354.417 144.732Z" fill="#85C4D3"/>
<path d="M356.347 169.676H328.618L328.728 169.348C328.738 169.323 329.631 166.56 330.271 154.04H324.868C315.372 154.04 307.801 152.42 302.363 149.229C296.003 145.492 292.778 139.677 292.778 131.949C292.778 113.808 310.644 93.3316 330.32 88.8686C329.67 75.544 328.733 72.731 328.723 72.7012L328.609 72.3682H328.961H356.69L356.576 72.7012C356.566 72.726 355.668 75.4545 355.028 88.0088H360.43C369.931 88.0088 377.502 89.629 382.935 92.8197C389.295 96.5572 392.52 102.372 392.52 110.1C392.52 128.241 374.655 148.717 354.978 153.18C355.623 166.47 356.566 169.323 356.576 169.348L356.69 169.676H356.342H356.347ZM329.293 169.179H356.02C355.762 168.13 355.023 164.278 354.477 152.992L354.467 152.783L354.67 152.738C363.874 150.705 373.305 144.826 380.549 136.61C387.842 128.34 392.024 118.679 392.024 110.095C392.024 102.556 388.884 96.8902 382.682 93.2472C377.324 90.1011 369.837 88.5058 360.43 88.5058H354.507L354.522 88.2424C355.057 77.5767 355.767 73.889 356.02 72.8652H329.293C329.551 73.9089 330.29 77.7457 330.836 89.0525L330.846 89.2612L330.643 89.3059C321.439 91.3387 312.008 97.2182 304.764 105.434C297.471 113.704 293.289 123.365 293.289 131.949C293.289 139.488 296.429 145.159 302.626 148.797C307.984 151.943 315.471 153.538 324.878 153.538H330.801L330.787 153.802C330.251 164.452 329.541 168.155 329.293 169.179ZM331.119 145.353H330.871C327.75 145.253 317.57 143.459 317.57 124.126C317.57 111.378 323.047 97.1337 330.901 97.0741H331.144L331.149 97.3176C331.342 104.082 331.441 112.019 331.441 120.905C331.441 129.792 331.337 138.136 331.124 145.109L331.114 145.358L331.119 145.353ZM330.658 97.5711C323.221 97.9239 318.061 111.741 318.061 124.121C318.061 142.515 327.373 144.657 330.633 144.836C330.836 137.923 330.94 129.871 330.94 120.895C330.94 111.919 330.846 104.276 330.653 97.5711H330.658ZM354.174 144.98V144.736C353.966 137.813 353.867 129.836 353.867 121.02C353.867 112.203 353.971 103.769 354.179 96.9399L354.189 96.6914H354.437C357.558 96.7858 367.748 98.575 367.748 117.918C367.748 130.666 362.276 144.91 354.422 144.975H354.179L354.174 144.98ZM354.67 97.2033C354.467 103.972 354.368 111.984 354.368 121.02C354.368 130.055 354.467 137.614 354.66 144.473C362.093 144.115 367.252 130.299 367.252 117.918C367.252 99.5094 357.935 97.3772 354.67 97.2033Z" fill="#396B7A"/>
<path d="M449.268 128.221C445.8 128.221 445.552 125.12 445.552 100.916C442.704 102.656 440.348 108.237 440.348 121.025C440.348 143.241 442.575 150.81 442.575 150.81H415.194C415.194 150.81 417.426 143.241 417.426 121.025C417.426 108.242 415.07 102.656 412.222 100.916C412.222 125.12 411.974 128.221 408.382 128.221C402.061 128.221 396.365 110.225 396.365 91.2346H461.413C461.413 110.225 455.589 128.221 449.273 128.221H449.268Z" fill="#85C4D3"/>
<path d="M442.58 151.058H414.866L414.96 150.74C414.98 150.666 417.178 142.928 417.178 121.025C417.178 107.889 414.702 103.068 412.47 101.388C412.47 125.403 412.217 128.475 408.382 128.475C401.962 128.475 396.117 110.727 396.117 91.2395V90.991H461.661V91.2395C461.661 110.727 455.757 128.475 449.273 128.475C445.552 128.475 445.309 125.403 445.309 101.388C443.076 103.068 440.601 107.889 440.601 121.025C440.601 142.928 442.798 150.666 442.818 150.74L442.913 151.058H442.58ZM415.516 150.561H442.258C441.851 148.901 440.099 140.582 440.099 121.025C440.099 109.857 441.94 102.83 445.423 100.707L445.8 100.479V100.921C445.8 124.578 446.013 127.978 449.268 127.978C455.356 127.978 461.111 110.28 461.16 91.488H396.609C396.658 110.28 402.354 127.978 408.377 127.978C411.745 127.978 411.969 124.578 411.969 100.921V100.479L412.346 100.707C415.829 102.83 417.669 109.857 417.669 121.025C417.669 140.582 415.918 148.906 415.511 150.561H415.516Z" fill="#396B7A"/>
<path d="M247.535 89.8179H243.809V93.5503H247.535V89.8179Z" fill="#EFBEC2"/>
<path d="M247.783 93.7939H243.561V89.5645H247.783V93.7939ZM244.058 93.2969H247.287V90.0615H244.058V93.2969Z" fill="#9C4A4D"/>
<path d="M221.25 89.8179H217.524V93.5503H221.25V89.8179Z" fill="#EFBEC2"/>
<path d="M221.493 93.7939H217.271V89.5645H221.493V93.7939ZM217.772 93.2969H221.002V90.0615H217.772V93.2969Z" fill="#9C4A4D"/>
<path d="M278.881 148.941H275.155V152.674H278.881V148.941Z" fill="#EFBEC2"/>
<path d="M279.129 152.922H274.907V148.693H279.129V152.922ZM275.403 152.425H278.633V149.19H275.403V152.425Z" fill="#9C4A4D"/>
<path d="M252.596 148.941H248.87V152.674H252.596V148.941Z" fill="#EFBEC2"/>
<path d="M252.839 152.922H248.617V148.693H252.839V152.922ZM249.118 152.425H252.348V149.19H249.118V152.425Z" fill="#9C4A4D"/>
<path d="M259.363 89.4949H255.131V93.7343H259.363V89.4949Z" fill="#3670A0"/>
<path d="M240.743 148.941H237.102V152.589H240.743V148.941Z" fill="#A6BFE3"/>
<path d="M240.992 152.842H236.854V148.698H240.992V152.842ZM237.35 152.345H240.495V149.195H237.35V152.345Z" fill="#3670A0"/>
<path d="M215.49 118.49L215.173 118.291L218.497 112.963C220.764 109.33 220.888 104.743 218.819 100.995L215.168 94.3803L215.495 94.2014L219.147 100.817C221.28 104.683 221.156 109.415 218.814 113.162L215.49 118.49Z" fill="#50B8FF"/>
<path d="M215.025 93.6108L214.668 94.7175L215.773 95.075L216.13 93.9683L215.025 93.6108Z" fill="#EFEFA7"/>
<path d="M215.863 95.2352L214.523 94.8028L214.955 93.4609L216.294 93.8933L215.863 95.2352ZM214.836 94.6438L215.704 94.9271L215.982 94.0573L215.113 93.774L214.836 94.6438Z" fill="#919143"/>
<path d="M215.735 117.738L214.6 117.985L214.846 119.121L215.981 118.875L215.735 117.738Z" fill="#EFEFA7"/>
<path d="M214.746 119.285L214.448 117.908L215.823 117.61L216.12 118.987L214.746 119.285ZM214.741 118.097L214.935 118.987L215.823 118.793L215.629 117.903L214.741 118.097Z" fill="#919143"/>
<path d="M247.416 150.189L247.099 149.99L250.423 144.662C252.69 141.029 252.814 136.442 250.745 132.694L247.094 126.079L247.421 125.9L251.073 132.515C253.206 136.382 253.082 141.113 250.74 144.861L247.416 150.189Z" fill="#50B8FF"/>
<path d="M246.951 125.31L246.594 126.417L247.699 126.774L248.056 125.668L246.951 125.31Z" fill="#EFEFA7"/>
<path d="M247.784 126.939L246.444 126.506L246.876 125.165L248.215 125.597L247.784 126.939ZM246.757 126.347L247.625 126.631L247.903 125.761L247.034 125.478L246.757 126.347Z" fill="#919143"/>
<path d="M247.657 149.438L246.523 149.685L246.769 150.821L247.903 150.575L247.657 149.438Z" fill="#EFEFA7"/>
<path d="M246.667 150.984L246.37 149.607L247.744 149.309L248.041 150.686L246.667 150.984ZM246.662 149.801L246.856 150.69L247.744 150.497L247.55 149.607L246.662 149.801Z" fill="#919143"/>
<path d="M249.108 118.49L245.784 113.162C243.447 109.415 243.318 104.683 245.452 100.817L249.103 94.2014L249.431 94.3803L245.779 100.995C243.71 104.743 243.834 109.33 246.102 112.963L249.426 118.291L249.108 118.49Z" fill="#50B8FF"/>
<path d="M248.479 93.978L248.836 95.0847L249.941 94.7273L249.584 93.6206L248.479 93.978Z" fill="#EFEFA7"/>
<path d="M248.741 95.2352L248.309 93.8933L249.649 93.4609L250.081 94.8028L248.741 95.2352ZM248.622 94.0573L248.9 94.9271L249.768 94.6438L249.49 93.774L248.622 94.0573Z" fill="#919143"/>
<path d="M248.636 118.879L249.771 119.125L250.016 117.988L248.882 117.742L248.636 118.879Z" fill="#EFEFA7"/>
<path d="M249.857 119.285L248.483 118.987L248.781 117.61L250.155 117.908L249.857 119.285ZM248.776 118.798L249.664 118.992L249.857 118.102L248.969 117.908L248.776 118.798Z" fill="#919143"/>
<path d="M281.029 149.856L277.705 144.528C275.368 140.78 275.239 136.049 277.373 132.177L281.024 125.562L281.352 125.741L277.7 132.356C275.631 136.104 275.755 140.691 278.023 144.324L281.347 149.652L281.029 149.851V149.856Z" fill="#50B8FF"/>
<path d="M280.403 125.338L280.76 126.444L281.865 126.087L281.508 124.98L280.403 125.338Z" fill="#EFEFA7"/>
<path d="M280.662 126.601L280.231 125.259L281.57 124.827L282.002 126.169L280.662 126.601ZM280.543 125.423L280.821 126.293L281.689 126.014L281.411 125.145L280.543 125.423Z" fill="#919143"/>
<path d="M280.562 150.246L281.696 150.492L281.942 149.355L280.808 149.109L280.562 150.246Z" fill="#EFEFA7"/>
<path d="M281.778 150.651L280.404 150.353L280.702 148.976L282.076 149.274L281.778 150.651ZM280.697 150.164L281.585 150.357L281.778 149.468L280.89 149.274L280.697 150.169V150.164Z" fill="#919143"/>
<path d="M281.029 118.112L277.705 112.784C275.368 109.037 275.239 104.305 277.373 100.439L281.024 93.8237L281.352 94.0027L277.7 100.618C275.631 104.365 275.755 108.952 278.023 112.586L281.347 117.913L281.029 118.112Z" fill="#50B8FF"/>
<path d="M280.399 93.5994L280.756 94.7061L281.861 94.3486L281.504 93.2419L280.399 93.5994Z" fill="#EFEFA7"/>
<path d="M280.662 94.8624L280.231 93.5205L281.57 93.0881L282.002 94.43L280.662 94.8624ZM280.543 93.6796L280.821 94.5493L281.689 94.266L281.411 93.3963L280.543 93.6796Z" fill="#919143"/>
<path d="M280.563 118.502L281.697 118.749L281.943 117.612L280.809 117.366L280.563 118.502Z" fill="#EFEFA7"/>
<path d="M281.778 118.907L280.404 118.609L280.702 117.232L282.076 117.531L281.778 118.907ZM280.697 118.42L281.585 118.614L281.778 117.724L280.89 117.531L280.697 118.42Z" fill="#919143"/>
<path d="M244.122 108.455C245.289 108.455 246.236 107.507 246.236 106.338C246.236 105.169 245.289 104.221 244.122 104.221C242.955 104.221 242.009 105.169 242.009 106.338C242.009 107.507 242.955 108.455 244.122 108.455Z" fill="#12A33E"/>
<path d="M220.476 108.455C221.644 108.455 222.59 107.507 222.59 106.338C222.59 105.169 221.644 104.221 220.476 104.221C219.309 104.221 218.363 105.169 218.363 106.338C218.363 107.507 219.309 108.455 220.476 108.455Z" fill="#12A33E"/>
<path d="M276.043 140.199C277.21 140.199 278.157 139.251 278.157 138.082C278.157 136.912 277.21 135.964 276.043 135.964C274.876 135.964 273.93 136.912 273.93 138.082C273.93 139.251 274.876 140.199 276.043 140.199Z" fill="#12A33E"/>
<path d="M252.403 140.199C253.57 140.199 254.516 139.251 254.516 138.082C254.516 136.912 253.57 135.964 252.403 135.964C251.235 135.964 250.289 136.912 250.289 138.082C250.289 139.251 251.235 140.199 252.403 140.199Z" fill="#12A33E"/>
<path d="M276.043 108.117C277.21 108.117 278.157 107.17 278.157 106C278.157 104.831 277.21 103.883 276.043 103.883C274.876 103.883 273.93 104.831 273.93 106C273.93 107.17 274.876 108.117 276.043 108.117Z" fill="#12A33E"/>
<path d="M276.505 100.051C277.672 100.051 278.618 99.1034 278.618 97.9341C278.618 96.7648 277.672 95.8169 276.505 95.8169C275.337 95.8169 274.391 96.7648 274.391 97.9341C274.391 99.1034 275.337 100.051 276.505 100.051Z" fill="#A7F9B3"/>
<path d="M276.505 100.3C275.2 100.3 274.143 99.2362 274.143 97.9341C274.143 96.6319 275.205 95.5684 276.505 95.5684C277.805 95.5684 278.866 96.6319 278.866 97.9341C278.866 99.2362 277.805 100.3 276.505 100.3ZM276.505 96.0604C275.473 96.0604 274.639 96.9003 274.639 97.9291C274.639 98.9579 275.478 99.7978 276.505 99.7978C277.532 99.7978 278.37 98.9579 278.37 97.9291C278.37 96.9003 277.532 96.0604 276.505 96.0604Z" fill="#009E38"/>
<path d="M235.291 152.197H219.43V152.569H235.291V152.197Z" fill="#50B8FF"/>
<path d="M236.11 152.382L235.289 151.56L234.468 152.382L235.289 153.205L236.11 152.382Z" fill="#EFEFA7"/>
<path d="M235.291 153.379L234.294 152.38L235.291 151.381L236.288 152.38L235.291 153.379ZM234.646 152.38L235.291 153.026L235.936 152.38L235.291 151.734L234.646 152.38Z" fill="#919143"/>
<path d="M220.251 152.379L219.43 151.557L218.609 152.379L219.43 153.202L220.251 152.379Z" fill="#EFEFA7"/>
<path d="M219.43 153.379L218.432 152.38L219.43 151.381L220.427 152.38L219.43 153.379ZM218.785 152.38L219.43 153.026L220.075 152.38L219.43 151.734L218.785 152.38Z" fill="#919143"/>
<path d="M278.931 89.311H263.069V89.6838H278.931V89.311Z" fill="#50B8FF"/>
<path d="M279.753 89.4955L278.932 88.6731L278.112 89.4955L278.933 90.3178L279.753 89.4955Z" fill="#EFEFA7"/>
<path d="M278.931 90.4938L277.933 89.4948L278.931 88.4958L279.928 89.4948L278.931 90.4938ZM278.286 89.4948L278.931 90.1409L279.576 89.4948L278.931 88.8487L278.286 89.4948Z" fill="#919143"/>
<path d="M263.889 89.4923L263.068 88.6699L262.247 89.4923L263.068 90.3146L263.889 89.4923Z" fill="#EFEFA7"/>
<path d="M263.069 90.4938L262.072 89.4948L263.069 88.4958L264.067 89.4948L263.069 90.4938ZM262.424 89.4948L263.069 90.1409L263.714 89.4948L263.069 88.8487L262.424 89.4948Z" fill="#919143"/>
<path d="M227.358 154.498C228.525 154.498 229.471 153.55 229.471 152.38C229.471 151.211 228.525 150.263 227.358 150.263C226.191 150.263 225.244 151.211 225.244 152.38C225.244 153.55 226.191 154.498 227.358 154.498Z" fill="#12A33E"/>
<path d="M270.998 91.6121C272.165 91.6121 273.111 90.6642 273.111 89.4949C273.111 88.3256 272.165 87.3777 270.998 87.3777C269.83 87.3777 268.884 88.3256 268.884 89.4949C268.884 90.6642 269.83 91.6121 270.998 91.6121Z" fill="#12A33E"/>
<path d="M503.148 0H0V13.7421H503.148V0Z" fill="white"/>
<path d="M503.148 243.943H0V257.685H503.148V243.943Z" fill="white"/>
<path d="M0 2.05255L0 244.216H13.7181L13.7181 2.05255H0Z" fill="white"/>
<path d="M489.574 4.97003V247.134H503.292V4.97003H489.574Z" fill="white"/>
<path d="M503.148 13.5532H0V13.926H503.148V13.5532Z" fill="#348193"/>
<path d="M503.148 244.032H0V244.405H503.148V244.032Z" fill="#348193"/>
<path d="M13.9023 0H13.5295V257.68H13.9023V0Z" fill="#348193"/>
<path d="M489.758 0H489.385V257.68H489.758V0Z" fill="#348193"/>
<g opacity="0.39">
<path d="M21.1997 10.1388H20.5051V13.742H21.1997V10.1388Z" fill="#348193"/>
<path d="M27.9868 10.1388H27.2922V13.742H27.9868V10.1388Z" fill="#348193"/>
<path d="M34.7739 10.1388H34.0793V13.742H34.7739V10.1388Z" fill="#348193"/>
<path d="M41.561 10.1388H40.8665V13.742H41.561V10.1388Z" fill="#348193"/>
<path d="M55.1401 10.1388H54.4456V13.742H55.1401V10.1388Z" fill="#348193"/>
<path d="M61.9273 10.1388H61.2327V13.742H61.9273V10.1388Z" fill="#348193"/>
<path d="M68.7144 10.1388H68.0198V13.742H68.7144V10.1388Z" fill="#348193"/>
<path d="M75.5015 10.1388H74.8069V13.742H75.5015V10.1388Z" fill="#348193"/>
<path d="M89.0806 10.1388H88.386V13.742H89.0806V10.1388Z" fill="#348193"/>
<path d="M95.8677 10.1388H95.1731V13.742H95.8677V10.1388Z" fill="#348193"/>
<path d="M102.655 10.1388H101.96V13.742H102.655V10.1388Z" fill="#348193"/>
<path d="M109.442 10.1388H108.747V13.742H109.442V10.1388Z" fill="#348193"/>
<path d="M123.021 10.1388H122.326V13.742H123.021V10.1388Z" fill="#348193"/>
<path d="M129.808 10.1388H129.114V13.742H129.808V10.1388Z" fill="#348193"/>
<path d="M136.595 10.1388H135.901V13.742H136.595V10.1388Z" fill="#348193"/>
<path d="M143.382 10.1388H142.688V13.742H143.382V10.1388Z" fill="#348193"/>
<path d="M156.961 10.1388H156.267V13.742H156.961V10.1388Z" fill="#348193"/>
<path d="M163.749 10.1388H163.054V13.742H163.749V10.1388Z" fill="#348193"/>
<path d="M170.536 10.1388H169.841V13.742H170.536V10.1388Z" fill="#348193"/>
<path d="M177.323 10.1388H176.628V13.742H177.323V10.1388Z" fill="#348193"/>
<path d="M190.902 10.1388H190.207V13.742H190.902V10.1388Z" fill="#348193"/>
<path d="M197.689 10.1388H196.994V13.742H197.689V10.1388Z" fill="#348193"/>
<path d="M204.476 10.1388H203.781V13.742H204.476V10.1388Z" fill="#348193"/>
<path d="M211.263 10.1388H210.569V13.742H211.263V10.1388Z" fill="#348193"/>
<path d="M224.837 10.1388H224.143V13.742H224.837V10.1388Z" fill="#348193"/>
<path d="M231.629 10.1388H230.935V13.742H231.629V10.1388Z" fill="#348193"/>
<path d="M238.417 10.1388H237.722V13.742H238.417V10.1388Z" fill="#348193"/>
<path d="M245.204 10.1388H244.509V13.742H245.204V10.1388Z" fill="#348193"/>
<path d="M258.778 10.1388H258.083V13.742H258.778V10.1388Z" fill="#348193"/>
<path d="M265.57 10.1388H264.875V13.742H265.57V10.1388Z" fill="#348193"/>
<path d="M272.357 10.1388H271.662V13.742H272.357V10.1388Z" fill="#348193"/>
<path d="M279.144 10.1388H278.449V13.742H279.144V10.1388Z" fill="#348193"/>
<path d="M292.882 10.1388H292.187V13.742H292.882V10.1388Z" fill="#348193"/>
<path d="M299.669 10.1388H298.974V13.742H299.669V10.1388Z" fill="#348193"/>
<path d="M306.456 10.1388H305.762V13.742H306.456V10.1388Z" fill="#348193"/>
<path d="M313.243 10.1388H312.549V13.742H313.243V10.1388Z" fill="#348193"/>
<path d="M326.659 10.1388H325.964V13.742H326.659V10.1388Z" fill="#348193"/>
<path d="M333.446 10.1388H332.751V13.742H333.446V10.1388Z" fill="#348193"/>
<path d="M340.238 10.1388H339.543V13.742H340.238V10.1388Z" fill="#348193"/>
<path d="M347.025 10.1388H346.33V13.742H347.025V10.1388Z" fill="#348193"/>
<path d="M360.599 10.1388H359.905V13.742H360.599V10.1388Z" fill="#348193"/>
<path d="M367.386 10.1388H366.692V13.742H367.386V10.1388Z" fill="#348193"/>
<path d="M374.178 10.1388H373.484V13.742H374.178V10.1388Z" fill="#348193"/>
<path d="M380.965 10.1388H380.271V13.742H380.965V10.1388Z" fill="#348193"/>
<path d="M394.54 10.1388H393.845V13.742H394.54V10.1388Z" fill="#348193"/>
<path d="M401.327 10.1388H400.632V13.742H401.327V10.1388Z" fill="#348193"/>
<path d="M408.119 10.1388H407.424V13.742H408.119V10.1388Z" fill="#348193"/>
<path d="M414.906 10.1388H414.211V13.742H414.906V10.1388Z" fill="#348193"/>
<path d="M428.48 10.1388H427.785V13.742H428.48V10.1388Z" fill="#348193"/>
<path d="M435.267 10.1388H434.572V13.742H435.267V10.1388Z" fill="#348193"/>
<path d="M442.059 10.1388H441.365V13.742H442.059V10.1388Z" fill="#348193"/>
<path d="M448.846 10.1388H448.152V13.742H448.846V10.1388Z" fill="#348193"/>
<path d="M462.42 10.1388H461.726V13.742H462.42V10.1388Z" fill="#348193"/>
<path d="M469.207 10.1388H468.513V13.742H469.207V10.1388Z" fill="#348193"/>
<path d="M475.995 10.1388H475.3V13.742H475.995V10.1388Z" fill="#348193"/>
<path d="M482.787 10.1388H482.092V13.742H482.787V10.1388Z" fill="#348193"/>
<path d="M48.353 6.53552H47.6584V13.742H48.353V6.53552Z" fill="#348193"/>
<path d="M82.2935 6.53552H81.5989V13.742H82.2935V6.53552Z" fill="#348193"/>
<path d="M116.229 6.53552H115.534V13.742H116.229V6.53552Z" fill="#348193"/>
<path d="M150.169 6.53552H149.475V13.742H150.169V6.53552Z" fill="#348193"/>
<path d="M184.11 6.53552H183.415V13.742H184.11V6.53552Z" fill="#348193"/>
<path d="M218.05 6.53552H217.356V13.742H218.05V6.53552Z" fill="#348193"/>
<path d="M251.991 6.53552H251.296V13.742H251.991V6.53552Z" fill="#348193"/>
<path d="M285.931 6.53552H285.237V13.742H285.931V6.53552Z" fill="#348193"/>
<path d="M319.872 6.53552H319.177V13.742H319.872V6.53552Z" fill="#348193"/>
<path d="M353.812 6.53552H353.117V13.742H353.812V6.53552Z" fill="#348193"/>
<path d="M387.752 6.53552H387.058V13.742H387.752V6.53552Z" fill="#348193"/>
<path d="M421.693 6.53552H420.998V13.742H421.693V6.53552Z" fill="#348193"/>
<path d="M455.633 6.53552H454.939V13.742H455.633V6.53552Z" fill="#348193"/>
</g>
<g opacity="0.39">
<path d="M482.087 248.326H482.782V244.723H482.087V248.326Z" fill="#348193"/>
<path d="M475.305 248.326H476V244.723H475.305V248.326Z" fill="#348193"/>
<path d="M468.518 248.326H469.212V244.723H468.518V248.326Z" fill="#348193"/>
<path d="M461.726 248.326H462.42V244.723H461.726V248.326Z" fill="#348193"/>
<path d="M448.147 248.326H448.841V244.723H448.147V248.326Z" fill="#348193"/>
<path d="M441.36 248.326H442.054V244.723H441.36V248.326Z" fill="#348193"/>
<path d="M434.577 248.326H435.272V244.723H434.577V248.326Z" fill="#348193"/>
<path d="M427.785 248.326H428.48V244.723H427.785V248.326Z" fill="#348193"/>
<path d="M414.211 248.326H414.906V244.723H414.211V248.326Z" fill="#348193"/>
<path d="M407.419 248.326H408.114V244.723H407.419V248.326Z" fill="#348193"/>
<path d="M400.637 248.326H401.332V244.723H400.637V248.326Z" fill="#348193"/>
<path d="M393.845 248.326H394.54V244.723H393.845V248.326Z" fill="#348193"/>
<path d="M380.271 248.326H380.965V244.723H380.271V248.326Z" fill="#348193"/>
<path d="M373.479 248.326H374.173V244.723H373.479V248.326Z" fill="#348193"/>
<path d="M366.697 248.326H367.391V244.723H366.697V248.326Z" fill="#348193"/>
<path d="M359.909 248.326H360.604V244.723H359.909V248.326Z" fill="#348193"/>
<path d="M346.33 248.326H347.025V244.723H346.33V248.326Z" fill="#348193"/>
<path d="M339.538 248.326H340.233V244.723H339.538V248.326Z" fill="#348193"/>
<path d="M332.756 248.326H333.451V244.723H332.756V248.326Z" fill="#348193"/>
<path d="M325.969 248.326H326.664V244.723H325.969V248.326Z" fill="#348193"/>
<path d="M312.39 248.326H313.084V244.723H312.39V248.326Z" fill="#348193"/>
<path d="M305.603 248.326H306.297V244.723H305.603V248.326Z" fill="#348193"/>
<path d="M298.811 248.326H299.505V244.723H298.811V248.326Z" fill="#348193"/>
<path d="M292.029 248.326H292.723V244.723H292.029V248.326Z" fill="#348193"/>
<path d="M278.449 248.326H279.144V244.723H278.449V248.326Z" fill="#348193"/>
<path d="M271.662 248.326H272.357V244.723H271.662V248.326Z" fill="#348193"/>
<path d="M264.87 248.326H265.565V244.723H264.87V248.326Z" fill="#348193"/>
<path d="M258.088 248.326H258.783V244.723H258.088V248.326Z" fill="#348193"/>
<path d="M244.509 248.326H245.204V244.723H244.509V248.326Z" fill="#348193"/>
<path d="M237.722 248.326H238.417V244.723H237.722V248.326Z" fill="#348193"/>
<path d="M230.93 248.326H231.624V244.723H230.93V248.326Z" fill="#348193"/>
<path d="M224.148 248.326H224.842V244.723H224.148V248.326Z" fill="#348193"/>
<path d="M210.41 248.326H211.104V244.723H210.41V248.326Z" fill="#348193"/>
<path d="M203.618 248.326H204.312V244.723H203.618V248.326Z" fill="#348193"/>
<path d="M196.836 248.326H197.53V244.723H196.836V248.326Z" fill="#348193"/>
<path d="M190.049 248.326H190.743V244.723H190.049V248.326Z" fill="#348193"/>
<path d="M176.628 248.326H177.323V244.723H176.628V248.326Z" fill="#348193"/>
<path d="M169.841 248.326H170.536V244.723H169.841V248.326Z" fill="#348193"/>
<path d="M163.054 248.326H163.749V244.723H163.054V248.326Z" fill="#348193"/>
<path d="M156.262 248.326H156.957V244.723H156.262V248.326Z" fill="#348193"/>
<path d="M142.693 248.326H143.387V244.723H142.693V248.326Z" fill="#348193"/>
<path d="M135.901 248.326H136.595V244.723H135.901V248.326Z" fill="#348193"/>
<path d="M129.114 248.326H129.808V244.723H129.114V248.326Z" fill="#348193"/>
<path d="M122.322 248.326H123.016V244.723H122.322V248.326Z" fill="#348193"/>
<path d="M108.752 248.326H109.447V244.723H108.752V248.326Z" fill="#348193"/>
<path d="M101.96 248.326H102.655V244.723H101.96V248.326Z" fill="#348193"/>
<path d="M95.1731 248.326H95.8677V244.723H95.1731V248.326Z" fill="#348193"/>
<path d="M88.381 248.326H89.0756V244.723H88.381V248.326Z" fill="#348193"/>
<path d="M74.8118 248.326H75.5063V244.723H74.8118V248.326Z" fill="#348193"/>
<path d="M68.0198 248.326H68.7144V244.723H68.0198V248.326Z" fill="#348193"/>
<path d="M61.2327 248.326H61.9272V244.723H61.2327V248.326Z" fill="#348193"/>
<path d="M54.4456 248.326H55.1401V244.723H54.4456V248.326Z" fill="#348193"/>
<path d="M40.8713 248.326H41.5659V244.723H40.8713V248.326Z" fill="#348193"/>
<path d="M34.0792 248.326H34.7738V244.723H34.0792V248.326Z" fill="#348193"/>
<path d="M27.2921 248.326H27.9867V244.723H27.2921V248.326Z" fill="#348193"/>
<path d="M20.5051 248.326H21.1997V244.723H20.5051V248.326Z" fill="#348193"/>
<path d="M454.939 251.93H455.633V244.723H454.939V251.93Z" fill="#348193"/>
<path d="M420.998 251.93H421.693V244.723H420.998V251.93Z" fill="#348193"/>
<path d="M387.058 251.93H387.752V244.723H387.058V251.93Z" fill="#348193"/>
<path d="M353.117 251.93H353.812V244.723H353.117V251.93Z" fill="#348193"/>
<path d="M319.177 251.93H319.872V244.723H319.177V251.93Z" fill="#348193"/>
<path d="M285.237 251.93H285.931V244.723H285.237V251.93Z" fill="#348193"/>
<path d="M251.301 251.93H251.996V244.723H251.301V251.93Z" fill="#348193"/>
<path d="M217.361 251.93H218.055V244.723H217.361V251.93Z" fill="#348193"/>
<path d="M183.42 251.93H184.115V244.723H183.42V251.93Z" fill="#348193"/>
<path d="M149.48 251.93H150.174V244.723H149.48V251.93Z" fill="#348193"/>
<path d="M115.539 251.93H116.234V244.723H115.539V251.93Z" fill="#348193"/>
<path d="M81.594 251.93H82.2886V244.723H81.594V251.93Z" fill="#348193"/>
<path d="M47.6536 251.93H48.3481V244.723H47.6536V251.93Z" fill="#348193"/>
</g>
<g opacity="0.39">
<path d="M10.1707 237.288V237.984H13.7676V237.288H10.1707Z" fill="#348193"/>
<path d="M10.1707 230.489V231.185H13.7676V230.489H10.1707Z" fill="#348193"/>
<path d="M10.1757 223.69V224.386H13.7726V223.69H10.1757Z" fill="#348193"/>
<path d="M10.1707 209.928V210.624H13.7676V209.928H10.1707Z" fill="#348193"/>
<path d="M10.1707 203.129V203.825H13.7676V203.129H10.1707Z" fill="#348193"/>
<path d="M10.1757 196.33V197.026H13.7726V196.33H10.1757Z" fill="#348193"/>
<path d="M10.1757 189.531V190.227H13.7726V189.531H10.1757Z" fill="#348193"/>
<path d="M10.1707 176.092V176.788H13.7676V176.092H10.1707Z" fill="#348193"/>
<path d="M10.1707 169.293V169.989H13.7676V169.293H10.1707Z" fill="#348193"/>
<path d="M10.1707 162.49V163.185H13.7676V162.49H10.1707Z" fill="#348193"/>
<path d="M10.1707 155.69V156.386H13.7676V155.69H10.1707Z" fill="#348193"/>
<path d="M10.1757 142.093V142.788H13.7726V142.093H10.1757Z" fill="#348193"/>
<path d="M10.1707 135.294V135.99H13.7676V135.294H10.1707Z" fill="#348193"/>
<path d="M10.1707 128.49V129.186H13.7676V128.49H10.1707Z" fill="#348193"/>
<path d="M10.1707 121.691V122.386H13.7676V121.691H10.1707Z" fill="#348193"/>
<path d="M10.1757 108.093V108.788H13.7726V108.093H10.1757Z" fill="#348193"/>
<path d="M10.1707 101.294V101.99H13.7676V101.294H10.1707Z" fill="#348193"/>
<path d="M10.1707 94.4897V95.1855H13.7676V94.4897H10.1707Z" fill="#348193"/>
<path d="M10.1707 87.6907V88.3865H13.7676V87.6907H10.1707Z" fill="#348193"/>
<path d="M10.1757 74.0928V74.7886H13.7726V74.0928H10.1757Z" fill="#348193"/>
<path d="M10.1707 67.2939V67.9897H13.7676V67.2939H10.1707Z" fill="#348193"/>
<path d="M10.1707 60.4949V61.1907H13.7676V60.4949H10.1707Z" fill="#348193"/>
<path d="M10.1707 53.6909V54.3867H13.7676V53.6909H10.1707Z" fill="#348193"/>
<path d="M10.1757 40.093V40.7888H13.7726V40.093H10.1757Z" fill="#348193"/>
<path d="M10.1757 33.2941V33.9899H13.7726V33.2941H10.1757Z" fill="#348193"/>
<path d="M10.1707 26.4951V27.1909H13.7676V26.4951H10.1707Z" fill="#348193"/>
<path d="M10.1707 19.6912V20.387H13.7676V19.6912H10.1707Z" fill="#348193"/>
<path d="M6.57373 216.891V217.587H13.7677V216.891H6.57373Z" fill="#348193"/>
<path d="M6.57373 182.891V183.587H13.7677V182.891H6.57373Z" fill="#348193"/>
<path d="M6.57373 148.896V149.592H13.7677V148.896H6.57373Z" fill="#348193"/>
<path d="M6.57373 114.896V115.592H13.7677V114.896H6.57373Z" fill="#348193"/>
<path d="M6.57373 80.8967V81.5925H13.7677V80.8967H6.57373Z" fill="#348193"/>
<path d="M6.57373 46.897V47.5928H13.7677V46.897H6.57373Z" fill="#348193"/>
</g>
<g opacity="0.39">
<path d="M493.171 20.3869V19.6912H489.574V20.3869H493.171Z" fill="#348193"/>
<path d="M493.171 27.1859V26.4901H489.574V27.1859H493.171Z" fill="#348193"/>
<path d="M493.166 33.9898V33.2941H489.569V33.9898H493.166Z" fill="#348193"/>
<path d="M493.171 47.7468V47.051H489.574V47.7468H493.171Z" fill="#348193"/>
<path d="M493.171 54.5458V53.85H489.574V54.5458H493.171Z" fill="#348193"/>
<path d="M493.166 61.3496V60.6538H489.569V61.3496H493.166Z" fill="#348193"/>
<path d="M493.171 68.1487V67.4529H489.574V68.1487H493.171Z" fill="#348193"/>
<path d="M493.171 81.5876V80.8918H489.574V81.5876H493.171Z" fill="#348193"/>
<path d="M493.171 88.3867V87.6909H489.574V88.3867H493.171Z" fill="#348193"/>
<path d="M493.171 95.1855V94.4897H489.574V95.1855H493.171Z" fill="#348193"/>
<path d="M493.171 101.985V101.289H489.574V101.985H493.171Z" fill="#348193"/>
<path d="M493.171 115.587V114.892H489.574V115.587H493.171Z" fill="#348193"/>
<path d="M493.171 122.386V121.691H489.574V122.386H493.171Z" fill="#348193"/>
<path d="M493.171 129.185V128.49H489.574V129.185H493.171Z" fill="#348193"/>
<path d="M493.171 135.984V135.289H489.574V135.984H493.171Z" fill="#348193"/>
<path d="M493.171 149.587V148.891H489.574V149.587H493.171Z" fill="#348193"/>
<path d="M493.171 156.386V155.69H489.574V156.386H493.171Z" fill="#348193"/>
<path d="M493.171 163.185V162.489H489.574V163.185H493.171Z" fill="#348193"/>
<path d="M493.171 169.984V169.288H489.574V169.984H493.171Z" fill="#348193"/>
<path d="M493.171 183.587V182.891H489.574V183.587H493.171Z" fill="#348193"/>
<path d="M493.171 190.386V189.69H489.574V190.386H493.171Z" fill="#348193"/>
<path d="M493.171 197.185V196.489H489.574V197.185H493.171Z" fill="#348193"/>
<path d="M493.171 203.984V203.288H489.574V203.984H493.171Z" fill="#348193"/>
<path d="M493.166 217.587V216.891H489.569V217.587H493.166Z" fill="#348193"/>
<path d="M493.171 224.386V223.69H489.574V224.386H493.171Z" fill="#348193"/>
<path d="M493.171 231.185V230.489H489.574V231.185H493.171Z" fill="#348193"/>
<path d="M493.171 237.984V237.288H489.574V237.984H493.171Z" fill="#348193"/>
<path d="M496.768 40.7888V40.093H489.574V40.7888H496.768Z" fill="#348193"/>
<path d="M496.768 74.7886V74.0928H489.574V74.7886H496.768Z" fill="#348193"/>
<path d="M496.768 108.789V108.093H489.574V108.789H496.768Z" fill="#348193"/>
<path d="M496.768 142.788V142.093H489.574V142.788H496.768Z" fill="#348193"/>
<path d="M496.768 176.788V176.092H489.574V176.788H496.768Z" fill="#348193"/>
<path d="M496.768 210.788V210.092H489.574V210.788H496.768Z" fill="#348193"/>
</g>
</g>
<defs>
<clipPath id="clip0_565_1577">
<rect width="504.17" height="257.68" rx="24" fill="white"/>
</clipPath>
</defs>
</svg>
